<svg width="20" height="16" viewBox="0 0 20 16" fill="none" xmlns="http://www.w3.org/2000/svg">
<path d="M4.15422 9.49374L9.30577 14.343C9.30579 14.343 9.3058 14.3431 9.30582 14.3431C9.43399 14.4638 9.49988 14.6208 9.49988 14.7776C9.49988 14.9345 9.43397 15.0915 9.30577 15.2122C9.1765 15.3338 8.99512 15.407 8.80013 15.407C8.60509 15.407 8.42366 15.3338 8.29439 15.2121L1.0945 8.43467C1.09448 8.43466 1.09446 8.43464 1.09445 8.43462C0.966277 8.31391 0.900391 8.15691 0.900391 8.00007C0.900391 7.84324 0.966276 7.68624 1.09445 7.56553C1.09446 7.56551 1.09448 7.56549 1.0945 7.56547L8.29086 0.79135C8.42097 0.674376 8.60026 0.605271 8.79173 0.606838C8.98454 0.608415 9.16341 0.681439 9.2912 0.801734C9.41802 0.921107 9.48393 1.07605 9.48536 1.2312C9.48678 1.38521 9.4247 1.53975 9.30222 1.66047L4.15422 6.50641L3.23629 7.37048H4.49693H18.4001C18.5952 7.37048 18.7767 7.44371 18.906 7.56541C19.0342 7.68613 19.1001 7.84319 19.1001 8.00007C19.1001 8.15696 19.0342 8.31402 18.906 8.43474C18.7767 8.55644 18.5952 8.62967 18.4001 8.62967H4.49693H3.23629L4.15422 9.49374Z" fill="#111827" stroke="#111827"/>
</svg>
