<svg width="72" height="72" viewBox="0 0 72 72" fill="none" xmlns="http://www.w3.org/2000/svg">
<path d="M21.1062 16.1904C17.833 16.3003 15.0935 16.4361 12.8859 16.5694C8.81579 16.8152 5.60154 19.9219 5.24007 23.9833C4.8684 28.1592 4.5 33.9091 4.5 40.2954C4.5 46.6818 4.8684 52.4318 5.24007 56.6074C5.60154 60.669 8.81577 63.7756 12.8858 64.0215C17.8711 64.3225 25.5695 64.6363 36 64.6363C46.4305 64.6363 54.1289 64.3225 59.1141 64.0215C63.1842 63.7756 66.3984 60.669 66.7599 56.6076C67.1316 52.4317 67.5 46.6818 67.5 40.2954C67.5 33.9091 67.1316 28.1592 66.7599 23.9833C66.3984 19.9219 63.1842 16.8152 59.1141 16.5694C56.9066 16.4361 54.1671 16.3003 50.8938 16.1904L48.7022 11.6741C47.6352 9.47547 45.5633 7.93937 43.1264 7.7556C41.3085 7.61852 38.8986 7.5 36 7.5C33.1014 7.5 30.6915 7.61852 28.8736 7.7556C26.4367 7.93937 24.3648 9.47547 23.2979 11.6741L21.1062 16.1904Z" fill="#FF7F41"/>
<path d="M36 52.5C43.4558 52.5 49.5 46.4558 49.5 39C49.5 31.5442 43.4558 25.5 36 25.5C28.5442 25.5 22.5 31.5442 22.5 39C22.5 46.4558 28.5442 52.5 36 52.5Z" fill="white"/>
<path d="M21.1062 16.1904C17.833 16.3004 15.0935 16.4361 12.8859 16.5694C8.81579 16.8151 5.60154 19.922 5.24007 23.9834C4.8684 28.1592 4.5 33.9091 4.5 40.2954C4.5 46.6818 4.8684 52.4318 5.24007 56.6075C5.60154 60.669 8.81577 63.7756 12.8858 64.0215C17.8711 64.3225 25.5694 64.6364 36 64.6364C46.4306 64.6364 54.1289 64.3225 59.1141 64.0215C63.1842 63.7756 66.3984 60.669 66.7599 56.6076C67.1316 52.4317 67.5 46.6818 67.5 40.2954C67.5 33.9091 67.1316 28.1592 66.7599 23.9834C66.3984 19.922 63.1842 16.8151 59.1141 16.5694C56.9066 16.4361 54.1671 16.3004 50.8938 16.1904L48.7022 11.6741C47.6352 9.47547 45.5633 7.93937 43.1264 7.7556C41.3085 7.61852 38.8986 7.5 36 7.5C33.1014 7.5 30.6915 7.61852 28.8736 7.7556C26.4367 7.93937 24.3648 9.47547 23.2979 11.6741L21.1062 16.1904Z" stroke="#E54A2B" stroke-width="7.75" stroke-linejoin="round"/>
<path d="M36 52.5C43.4558 52.5 49.5 46.4558 49.5 39C49.5 31.5442 43.4558 25.5 36 25.5C28.5442 25.5 22.5 31.5442 22.5 39C22.5 46.4558 28.5442 52.5 36 52.5Z" stroke="#E54A2B" stroke-width="7.75" stroke-linejoin="round"/>
</svg>
