<svg width="72" height="72" viewBox="0 0 72 72" fill="none" xmlns="http://www.w3.org/2000/svg">
<path d="M64.4184 20.4254C66.6566 23.8658 65.5292 28.0901 62.6321 30.9975L30.9915 62.7498C29.9939 63.7511 28.6781 64.3659 27.2672 64.4478C24.68 64.5978 19.7432 64.8182 12.2082 64.8905C11.8935 64.8935 11.5833 64.7985 11.3309 64.6106C10.6829 64.128 9.94886 63.5196 9.21477 62.7855C8.48043 62.0513 7.87193 61.3169 7.38924 60.6687C7.20129 60.4164 7.10642 60.1062 7.10945 59.7915C7.18172 52.2567 7.40207 47.3199 7.55214 44.7329C7.63401 43.3218 8.24885 42.0062 9.25004 41.0085L41.0025 9.36809C43.91 6.47094 48.1341 5.34353 51.5747 7.58172C53.5713 8.88068 55.9727 10.7404 58.6163 13.3839C61.2597 16.0274 63.1194 18.4286 64.4184 20.4254Z" fill="#FF7F41"/>
<path d="M65.3322 15.5786L62.9583 18.3483C61.8207 16.8369 60.3947 15.1652 58.6139 13.3844C56.8337 11.6042 55.1633 10.1795 53.6523 9.04205L56.4212 6.66751C58.0523 5.26936 60.2145 4.44458 62.112 5.45221C62.903 5.87228 63.776 6.47786 64.649 7.35083C65.522 8.22379 66.1275 9.09676 66.5475 9.88783C67.5552 11.7853 66.7304 13.9474 65.3322 15.5786Z" fill="white"/>
<path d="M29.1585 63.9991C28.5639 64.2547 27.926 64.4092 27.267 64.4475C24.68 64.5975 19.7432 64.8178 12.2082 64.8901C11.8935 64.8931 11.5833 64.7982 11.3309 64.6102C10.683 64.1277 9.94887 63.5193 9.21478 62.7852C8.48044 62.0509 7.87194 61.3165 7.38925 60.6685C7.20129 60.4161 7.10643 60.1059 7.10944 59.7912C7.18171 52.2564 7.40208 47.3196 7.55216 44.7325C7.59045 44.0725 7.74535 43.4334 8.00187 42.8379C11.1291 45.1443 15.1991 48.4194 19.269 52.4752C23.4689 56.6605 26.8344 60.8461 29.1585 63.9991Z" fill="white"/>
<path d="M64.4183 20.4254C66.6566 23.8658 65.5292 28.0901 62.6319 30.9975L30.9915 62.7498C29.9939 63.7511 28.6781 64.3659 27.267 64.4478C24.68 64.5978 19.7432 64.8182 12.2082 64.8905C11.8935 64.8935 11.5833 64.7985 11.3309 64.6106C10.683 64.128 9.94887 63.5196 9.21478 62.7855C8.48044 62.0513 7.87194 61.3169 7.38925 60.6687C7.20129 60.4164 7.10643 60.1062 7.10944 59.7915C7.18171 52.2567 7.40208 47.3199 7.55216 44.7329C7.63401 43.3218 8.24886 42.0062 9.25003 41.0085L41.0025 9.36809C43.91 6.47094 48.1341 5.34353 51.5747 7.58172C53.5713 8.88068 55.9727 10.7404 58.6163 13.3839C61.2597 16.0274 63.1194 18.4286 64.4183 20.4254Z" stroke="#E54A2B" stroke-width="7.75" stroke-linecap="round" stroke-linejoin="round"/>
<path d="M53.6523 9.04135L56.4218 6.66751C58.0529 5.26936 60.2151 4.44458 62.1125 5.45221C62.9036 5.87228 63.7766 6.47786 64.6496 7.35083C65.5224 8.22379 66.1281 9.09676 66.5481 9.88783C67.5558 11.7853 66.731 13.9474 65.3328 15.5786L62.9589 18.3483" stroke="#E54A2B" stroke-width="7.75" stroke-linecap="round" stroke-linejoin="round"/>
<path d="M56.2357 36.2581C56.7482 37.3902 58.0813 37.8925 59.2133 37.3801C60.3454 36.8677 60.8477 35.5345 60.3353 34.4025L56.2357 36.2581ZM37.6003 11.6675C36.4682 11.1551 35.135 11.6575 34.6226 12.7896C34.1102 13.9216 34.6126 15.2548 35.7446 15.7672L37.6003 11.6675ZM58.2856 35.3302C60.3353 34.4025 60.335 34.4017 60.3347 34.401C60.3346 34.4007 60.3341 34.3999 60.334 34.3993C60.3334 34.3983 60.3329 34.3971 60.3323 34.3959C60.3311 34.3933 60.3299 34.3905 60.3284 34.3875C60.3257 34.3813 60.3223 34.3741 60.3184 34.3657C60.3106 34.3489 60.3005 34.3278 60.2882 34.3021C60.2636 34.2508 60.2299 34.1818 60.1861 34.0957C60.0985 33.9235 59.971 33.6828 59.7973 33.3768C59.4499 32.7649 58.918 31.8936 58.1516 30.7918C56.6183 28.588 54.1486 25.4664 50.3426 21.6603L47.1605 24.8424C50.7841 28.4658 53.0812 31.3834 54.4576 33.3618C55.1459 34.3512 55.6046 35.1064 55.8839 35.5986C56.0237 35.8447 56.1187 36.025 56.1752 36.1362C56.2034 36.1917 56.222 36.2299 56.2319 36.2503C56.2369 36.2607 56.2396 36.2664 56.2402 36.2677C56.2405 36.2683 56.2402 36.2679 56.2394 36.2662C56.2391 36.2655 56.2387 36.2644 56.2379 36.2631C56.2376 36.2623 56.2373 36.2616 56.237 36.2608C56.2367 36.2604 56.237 36.261 56.237 36.2608C56.2367 36.2601 56.2357 36.2581 58.2856 35.3302ZM50.3426 21.6603C46.5365 17.8543 43.4147 15.3846 41.2109 13.8513C40.1093 13.0848 39.2378 12.553 38.626 12.2056C38.32 12.032 38.0791 11.9045 37.9069 11.8169C37.8208 11.7731 37.7519 11.7392 37.7006 11.7146C37.675 11.7023 37.6538 11.6923 37.637 11.6845C37.6286 11.6806 37.6214 11.6772 37.6153 11.6744C37.6123 11.673 37.6094 11.6717 37.6069 11.6706C37.6057 11.67 37.6045 11.6695 37.6034 11.669C37.6028 11.6687 37.6021 11.6683 37.6018 11.6682C37.601 11.6679 37.6003 11.6675 36.6725 13.7174C35.7446 15.7672 35.744 15.7669 35.7433 15.7665C35.7431 15.7665 35.7437 15.7666 35.7433 15.7665C35.7425 15.766 35.7404 15.7653 35.7397 15.765C35.7383 15.7644 35.7373 15.7638 35.7365 15.7635C35.7349 15.7627 35.7344 15.7624 35.735 15.7627C35.7364 15.7633 35.7421 15.766 35.7524 15.771C35.7728 15.7809 35.8111 15.7995 35.8666 15.8278C35.9777 15.8842 36.1582 15.9792 36.4042 16.119C36.8963 16.3983 37.6516 16.857 38.641 17.5453C40.6193 18.9217 43.5371 21.2188 47.1605 24.8424L50.3426 21.6603Z" fill="#E54A2B"/>
<path d="M29.157 63.9993C26.8331 60.8463 23.4675 56.6608 19.2675 52.4755C15.1974 48.4195 11.1273 45.1443 8 42.8379" stroke="#E54A2B" stroke-width="7.75" stroke-linecap="round" stroke-linejoin="round"/>
<path d="M39.3425 11.6788C40.4079 12.3181 41.79 11.9726 42.4293 10.9071C43.0688 9.84151 42.7232 8.45942 41.6576 7.82009L39.3425 11.6788ZM14.909 20.9085C14.0303 21.7872 14.0303 23.2117 14.909 24.0904C15.7877 24.9691 17.2124 24.9691 18.0911 24.0904L14.909 20.9085ZM41.6576 7.82009C39.167 6.32572 36.2381 5.71952 34.2695 5.46056L33.6825 9.92213C35.4245 10.1513 37.6344 10.654 39.3425 11.6788L41.6576 7.82009ZM28.1517 7.66582L14.909 20.9085L18.0911 24.0904L31.3337 10.8478L28.1517 7.66582ZM34.2695 5.46056C31.8731 5.14533 29.6747 6.14275 28.1517 7.66582L31.3337 10.8478C32.061 10.1204 32.9235 9.82228 33.6825 9.92213L34.2695 5.46056Z" fill="#E54A2B"/>
<path d="M9 63L4.5 67.5" stroke="#E54A2B" stroke-width="7.75" stroke-linecap="round" stroke-linejoin="round"/>
</svg>
