<svg width="24" height="24" viewBox="0 0 24 24" fill="none" xmlns="http://www.w3.org/2000/svg">
<path d="M19 20H5V9H19M19 4H18V2H16V4H8V2H6V4H5C3.89 4 3 4.9 3 6V20C3 20.5304 3.21071 21.0391 3.58579 21.4142C3.96086 21.7893 4.46957 22 5 22H19C19.5304 22 20.0391 21.7893 20.4142 21.4142C20.7893 21.0391 21 20.5304 21 20V6C21 5.46957 20.7893 4.96086 20.4142 4.58579C20.0391 4.21071 19.5304 4 19 4ZM16.53 12.06L15.47 11L10.59 15.88L8.47 13.76L7.41 14.82L10.59 18L16.53 12.06Z" fill="currentColor"/>
</svg>
