<svg width="26" height="26" viewBox="0 0 26 26" fill="none" xmlns="http://www.w3.org/2000/svg">
<path fill-rule="evenodd" clip-rule="evenodd" d="M5.19961 6.50039C4.51005 6.50039 3.84873 6.77432 3.36113 7.26191C2.87354 7.74951 2.59961 8.41083 2.59961 9.10039V19.5004C2.59961 20.19 2.87354 20.8513 3.36113 21.3389C3.84873 21.8265 4.51005 22.1004 5.19961 22.1004H20.7996C21.4892 22.1004 22.1505 21.8265 22.6381 21.3389C23.1257 20.8513 23.3996 20.19 23.3996 19.5004V9.10039C23.3996 8.41083 23.1257 7.74951 22.6381 7.26191C22.1505 6.77432 21.4892 6.50039 20.7996 6.50039H18.7378C18.3931 6.50032 18.0624 6.3633 17.8187 6.11949L16.3614 4.66219C15.8739 4.17456 15.2127 3.90054 14.5232 3.90039H11.476C10.7865 3.90054 10.1253 4.17456 9.63781 4.66219L8.18051 6.11949C7.93677 6.3633 7.60616 6.50032 7.26141 6.50039H5.19961ZM12.9996 18.2004C13.5118 18.2004 14.0189 18.0995 14.4921 17.9035C14.9652 17.7075 15.3952 17.4203 15.7573 17.0581C16.1195 16.696 16.4067 16.266 16.6027 15.7929C16.7987 15.3197 16.8996 14.8125 16.8996 14.3004C16.8996 13.7882 16.7987 13.2811 16.6027 12.8079C16.4067 12.3348 16.1195 11.9048 15.7573 11.5427C15.3952 11.1805 14.9652 10.8933 14.4921 10.6973C14.0189 10.5013 13.5118 10.4004 12.9996 10.4004C11.9653 10.4004 10.9733 10.8113 10.2419 11.5427C9.5105 12.2741 9.09961 13.266 9.09961 14.3004C9.09961 15.3347 9.5105 16.3267 10.2419 17.0581C10.9733 17.7895 11.9653 18.2004 12.9996 18.2004Z" fill="currentColor"/>
</svg>
