<svg width="40" height="40" viewBox="0 0 40 40" fill="none" xmlns="http://www.w3.org/2000/svg">
<path d="M28.4 14.4L22.8 20L28.4 25.6L25.6 28.4L20 22.8L14.4 28.4L11.6 25.6L17.2 20L11.6 14.4L14.4 11.6L20 17.2L25.6 11.6M6 6C4.1615 7.8385 2.70311 10.0211 1.70812 12.4233C0.713126 14.8254 0.201011 17.4 0.201011 20C0.201011 25.251 2.28697 30.287 6 34C9.71303 37.713 14.749 39.799 20 39.799C22.6 39.799 25.1746 39.2869 27.5767 38.2919C29.9789 37.2969 32.1615 35.8385 34 34C37.713 30.287 39.799 25.251 39.799 20C39.799 14.749 37.713 9.71303 34 6C32.1615 4.16149 29.9789 2.70311 27.5767 1.70811C25.1746 0.713124 22.6 0.201008 20 0.201009C17.4 0.201008 14.8254 0.713124 12.4233 1.70812C10.0211 2.70311 7.83851 4.16149 6 6Z" fill="#E54A2B"/>
</svg>
