<svg width="40" height="40" viewBox="0 0 40 40" fill="none" xmlns="http://www.w3.org/2000/svg">
<path d="M20.0021 0.201172C9.11267 0.201172 0.203125 9.11072 0.203125 20.0002C0.203125 30.8896 9.11267 39.7992 20.0021 39.7992C30.8916 39.7992 39.8011 30.8896 39.8011 20.0002C39.8011 9.11072 30.8916 0.201172 20.0021 0.201172ZM20.0021 35.8394C11.2708 35.8394 4.16292 28.7315 4.16292 20.0002C4.16292 11.2688 11.2708 4.16097 20.0021 4.16097C28.7335 4.16097 35.8413 11.2688 35.8413 20.0002C35.8413 28.7315 28.7335 35.8394 20.0021 35.8394ZM29.0899 11.249L16.0423 24.2965L10.9144 19.1884L8.12272 21.9801L16.0423 29.8997L31.8815 14.0605L29.0899 11.249Z" fill="#9CA3AF"/>
</svg>
