<svg width="14" height="10" viewBox="0 0 14 10" fill="none" xmlns="http://www.w3.org/2000/svg">
<path fill-rule="evenodd" clip-rule="evenodd" d="M13.0362 0.763508C13.2049 0.932283 13.2997 1.16116 13.2997 1.39981C13.2997 1.63846 13.2049 1.86733 13.0362 2.03611L5.83618 9.23611C5.6674 9.40483 5.43853 9.49961 5.19988 9.49961C4.96123 9.49961 4.73235 9.40483 4.56358 9.23611L0.963578 5.63611C0.799636 5.46637 0.708921 5.23902 0.710972 5.00305C0.713022 4.76707 0.807674 4.54134 0.974541 4.37447C1.14141 4.2076 1.36714 4.11295 1.60312 4.1109C1.83909 4.10885 2.06644 4.19957 2.23618 4.36351L5.19988 7.32721L11.7636 0.763508C11.9324 0.594784 12.1612 0.5 12.3999 0.5C12.6385 0.5 12.8674 0.594784 13.0362 0.763508Z" fill="currentColor"/>
</svg>
