<svg width="14" height="14" viewBox="0 0 14 14" fill="none" xmlns="http://www.w3.org/2000/svg">
<path fill-rule="evenodd" clip-rule="evenodd" d="M11.5271 3.82263C11.6537 3.94921 11.7248 4.12087 11.7248 4.29986C11.7248 4.47884 11.6537 4.6505 11.5271 4.77708L6.12713 10.1771C6.00055 10.3036 5.82889 10.3747 5.64991 10.3747C5.47092 10.3747 5.29926 10.3036 5.17268 10.1771L2.47268 7.47708C2.34973 7.34977 2.28169 7.17927 2.28323 7.00229C2.28477 6.8253 2.35576 6.656 2.48091 6.53085C2.60606 6.4057 2.77535 6.33471 2.95234 6.33318C3.12932 6.33164 3.29983 6.39967 3.42713 6.52263L5.64991 8.74541L10.5727 3.82263C10.6993 3.69609 10.8709 3.625 11.0499 3.625C11.2289 3.625 11.4006 3.69609 11.5271 3.82263Z" fill="white"/>
</svg>
