<svg width="92" height="97" viewBox="0 0 92 97" fill="none" xmlns="http://www.w3.org/2000/svg">
<path d="M16.6933 21.1401C15.8872 19.0412 11.9206 16.2635 14.0856 14.1045C14.1288 14.0613 14.1497 14.0055 14.1437 13.9494C14.1377 13.8933 14.1054 13.8415 14.0537 13.8053C14.0021 13.7692 13.9354 13.7517 13.8683 13.7567C13.8013 13.7617 13.7394 13.7888 13.6962 13.832C12.4497 15.0388 12.9237 16.7852 13.7738 18.0502C14.8065 19.5886 16.4737 20.9772 16.1996 22.8986C15.6983 26.4089 11.0676 28.4385 10.8578 32.4894C10.768 34.2309 11.5127 36.2474 13.1503 37.4266C13.1913 37.4564 13.244 37.4726 13.2984 37.4719C13.3527 37.4711 13.4049 37.4536 13.4447 37.4227C13.4846 37.3918 13.5093 37.3496 13.5142 37.3043C13.5192 37.259 13.5039 37.2138 13.4713 37.1773C12.2472 35.9351 11.585 34.3718 11.6007 32.7618C11.6367 28.294 18.3912 25.5585 16.6933 21.1401Z" fill="#E54A2B"/>
<path d="M31.2647 18.2988C30.465 16.5844 28.2253 15.909 29.2104 13.9866C29.6369 13.1546 30.2651 12.4224 30.2373 11.478C30.2309 11.2554 29.7789 11.2593 29.7789 11.478C29.7789 12.8932 27.6 13.9395 28.4814 15.7742C29.218 17.3077 32.8595 19.1293 29.4486 22.1043C29.2626 22.2668 29.546 22.5543 29.7789 22.4495C31.4397 21.7024 31.9143 19.6917 31.2647 18.2988Z" fill="#E54A2B"/>
<path d="M20.85 11.6318C21.1009 10.4808 22.0855 9.51307 22.8672 8.56277C23.7405 7.50241 24.5361 6.15017 23.9358 4.85709C23.9068 4.81629 23.8619 4.78507 23.8087 4.76865C23.7555 4.75222 23.6971 4.7516 23.6434 4.76688C23.5897 4.78216 23.5439 4.81242 23.5137 4.85259C23.4835 4.89275 23.4707 4.94039 23.4774 4.98751C24.1328 7.48108 20.9346 9.01174 20.2265 11.1868C19.4181 13.6667 21.9539 15.4263 23.1239 17.4413C23.4771 17.9656 23.6464 18.5626 23.6124 19.1638C23.5784 19.765 23.3424 20.346 22.9315 20.8401C22.7815 21.002 23.0735 21.2241 23.2479 21.0742C23.6649 20.707 23.9617 20.2559 24.1095 19.7647C24.2573 19.2734 24.2511 18.7586 24.0917 18.2699C23.4797 15.8922 20.3285 14.0217 20.85 11.6318Z" fill="#E54A2B"/>
<path d="M7.17439 44.6832C7.5186 44.641 23.942 44.7176 24.2213 44.9018C24.5006 45.0861 24.3951 46.8412 24.2213 46.9542C24.0474 47.0672 7.25725 47.1733 7.17439 47.0807C7.09152 46.9881 7.03763 44.7006 7.17439 44.6832Z" fill="#E54A2B"/>
<path d="M26.5733 30.1516C26.6058 29.1543 28.073 28.9041 28.339 29.7298C28.5508 30.372 28.9403 30.9634 29.476 31.4563C30.2229 30.5123 31.9336 27.6197 29.1822 26.5153C26.4308 25.4108 22.3784 26.2045 20.1178 31.5329C17.8572 36.8614 19.886 41.4689 24.4599 41.6144C29.0338 41.7598 29.1503 37.9048 28.2747 35.2144C26.6852 34.3394 25.5589 32.9863 25.1292 31.4355C24.7352 29.6188 26.3444 29.6706 26.5733 30.1516ZM25.3628 39.1058C24.1717 38.5337 23.1818 37.7093 22.4925 36.7155C22.2399 36.2558 22.5372 36.073 22.9515 36.5084C23.73 37.3272 24.6709 38.028 25.733 38.5802C26.1966 38.8192 26.0228 39.3472 25.3436 39.1058H25.3628ZM26.5797 35.9543C26.9239 36.2035 26.4933 36.6781 26.1485 36.426C24.8642 35.5122 23.9118 34.3154 23.3994 32.9715C23.3229 32.7611 23.6892 32.6161 23.7894 32.8333C24.3624 34.067 25.3284 35.1457 26.5826 35.9523L26.5797 35.9543ZM24.4049 29.1005C21.2553 32.3814 20.6828 36.9676 21.938 39.4548C21.956 39.4971 21.9549 39.5434 21.935 39.5851C21.9151 39.6267 21.8777 39.6609 21.8298 39.6811C21.782 39.7013 21.7269 39.7063 21.675 39.695C21.6231 39.6837 21.578 39.6569 21.548 39.6197C20.0204 37.641 20.5431 31.6343 24.6708 28.157C25.4178 27.5267 26.5368 26.8716 27.6465 27.1519C27.69 27.1664 27.7261 27.1932 27.7487 27.2276C27.7712 27.262 27.7788 27.3018 27.7701 27.3403C27.7614 27.3789 27.737 27.4137 27.701 27.4388C27.6651 27.464 27.6198 27.4779 27.5729 27.4782C26.181 27.4641 25.2237 28.2476 24.4049 29.1005Z" fill="#E54A2B"/>
<path d="M67.4501 17.4691C67.4501 17.2466 66.9865 17.2383 66.9685 17.4691C66.8242 19.1249 64.129 19.4943 62.7869 19.3872C61.4448 19.28 61.0513 18.2599 60.6364 17.346C59.9262 15.777 59.4041 14.1529 59.0776 12.4975C59.0646 12.4566 59.0342 12.4212 58.9921 12.3978C58.9499 12.3745 58.899 12.3649 58.849 12.3709C58.799 12.3769 58.7533 12.398 58.7207 12.4303C58.688 12.4625 58.6707 12.5037 58.6719 12.546C58.9418 14.5464 59.5823 16.4995 60.5704 18.3351C61.1498 19.4066 61.9455 19.9079 63.3212 19.8696L63.4585 20.8669C63.4997 21.12 64.0137 21.1355 63.9494 20.7171C63.9262 20.4262 63.9082 20.1304 63.885 19.8386C65.4027 19.712 67.4982 19.2786 67.4704 17.4604L67.4501 17.4691Z" fill="#191919"/>
<path d="M60.0587 6.38502C60.0848 6.32246 60.0801 6.25378 60.0458 6.19409C60.0114 6.1344 59.95 6.08858 59.8753 6.06672C59.8382 6.0559 59.799 6.05128 59.7599 6.05313C59.7207 6.05499 59.6824 6.06328 59.6471 6.07753C59.5757 6.1063 59.5209 6.15762 59.4948 6.22017C59.1512 6.90284 57.9221 8.1998 56.8813 7.98114C56.8294 7.97104 56.7749 7.97734 56.7282 7.99882C56.6815 8.02031 56.6459 8.05546 56.6283 8.09754C56.6107 8.13962 56.6123 8.18566 56.6328 8.22681C56.6533 8.26797 56.6912 8.30134 56.7393 8.32053C57.9128 8.74816 59.631 7.46332 60.0587 6.38502Z" fill="#191919"/>
<path d="M56.5279 10.4332C55.4039 10.1965 54.4184 9.63049 53.7505 8.83787C53.0826 8.04525 52.7764 7.07854 52.8876 6.11319C53.0118 5.12305 53.5942 4.2129 54.5102 3.57738C55.4261 2.94186 56.6029 2.63143 57.7889 2.71248C58.9444 -0.663506 67.624 -1.44993 69.3341 3.62933C72.9519 3.45284 74.7112 5.3098 75.0467 7.67294C75.6459 11.8911 70.2236 12.5602 69.2101 11.9692C69.2041 12.1175 69.1826 12.2652 69.1458 12.4104C69.7421 12.9922 69.3938 14.4361 68.7239 14.95C69.0704 16.4245 69.238 17.9244 69.224 19.4271C69.224 19.6608 68.7656 19.7146 68.7656 19.4654C68.6445 17.941 68.4069 16.4259 68.105 14.9195C68.0615 14.7013 68.3281 14.5844 68.4672 14.4167C68.9198 13.8727 69.0925 12.5922 68.4092 12.4986C67.5302 12.3793 67.7185 13.1081 67.208 12.8288C66.221 12.2839 65.4676 11.4896 65.0575 10.5617C62.7374 10.6005 60.4556 11.0639 58.3725 11.9192C58.3286 11.9362 58.2797 11.9421 58.2318 11.9361C58.184 11.9302 58.1393 11.9127 58.1032 11.8857C58.0671 11.8588 58.0412 11.8236 58.0287 11.7845C58.0162 11.7454 58.0177 11.7041 58.0329 11.6657C57.7715 11.3263 57.6388 9.43294 57.6753 8.98058C57.6846 8.92354 57.7183 8.87125 57.7701 8.83339C57.822 8.79553 57.8884 8.77467 57.9572 8.77467C58.0261 8.77467 58.0925 8.79553 58.1444 8.83339C58.1962 8.87125 58.2299 8.92354 58.2392 8.98058C58.3377 9.60603 58.2971 10.4114 58.4826 11.3975C61.6217 10.0414 65.238 9.67243 68.6746 10.3575C68.6978 9.74372 68.7164 9.12603 68.739 8.51512C68.7599 8.47785 68.7935 8.44663 68.8357 8.42541C68.8779 8.40419 68.9266 8.39395 68.9757 8.39597C69.0249 8.398 69.0722 8.41221 69.1117 8.43679C69.1511 8.46138 69.1809 8.49522 69.1974 8.53403L69.129 10.6189C69.2014 10.9142 69.2321 11.2155 69.2205 11.5168C70.2706 11.6012 74.8173 11.6705 74.3925 7.78349C74.1027 5.12896 72.2698 4.06229 69.202 4.05017C69.0281 4.05017 68.8265 4.08847 68.7436 3.86981C67.11 -1.57841 58.4936 0.692125 58.1969 3.10036C58.1546 3.43975 57.8347 3.21187 57.6834 3.20024C57.1695 3.16116 56.6514 3.20716 56.1588 3.33563C55.6661 3.46409 55.2085 3.67249 54.8122 3.94894C54.4158 4.22538 54.0884 4.56445 53.8486 4.94678C53.6089 5.32911 53.4615 5.74721 53.4149 6.17719C53.3453 7.02719 53.6258 7.87148 54.2097 8.56948C54.7937 9.26747 55.6458 9.77703 56.6241 10.0133C56.9318 10.0885 56.8258 10.4889 56.5082 10.4201L56.5279 10.4332Z" fill="#191919"/>
<path d="M61.2332 6.42073C61.0141 6.29273 60.7371 6.59819 60.9486 6.7354C62.0124 7.42029 63.2843 7.84194 64.62 7.9525C65.9557 8.06306 67.3017 7.85808 68.5052 7.36085C69.3385 9.12472 71.8031 9.1349 71.482 8.51333C71.4633 8.47714 71.4342 8.44541 71.3971 8.42103C71.3601 8.39665 71.3164 8.38038 71.2699 8.3737C69.6329 8.30048 69.0169 7.60521 68.7665 6.2714C68.7399 6.12934 68.0787 5.72643 68.3447 6.89297C67.2177 7.35538 65.9628 7.55554 64.7116 7.47245C63.4603 7.38936 62.2588 7.02609 61.2332 6.42073Z" fill="#191919"/>
<path d="M63.9158 11.8916C63.0669 11.1517 62.1553 11.8601 62.8148 12.0758C63.177 12.1941 62.9336 11.8819 63.7315 12.3251C64.1082 12.4826 64.2589 12.1912 63.9158 11.8916Z" fill="#191919"/>
<path d="M62.8369 17.0813C62.892 17.4653 65.1937 16.9251 65.1618 15.6316C65.152 15.2481 64.7029 15.2476 64.7029 15.6316C64.6206 16.9474 62.805 16.6982 62.8694 17.0623L62.8369 17.0813Z" fill="#191919"/>
<path d="M63.0479 13.3846C62.8109 13.6003 63.2385 14.1535 63.4698 13.9024C63.5996 13.7613 63.3707 13.0898 63.0479 13.3846Z" fill="#191919"/>
<path d="M60.3326 14.0039C59.9692 14.1862 60.5464 14.8485 60.649 14.449C60.7179 14.1731 60.5794 13.8798 60.3326 14.0039Z" fill="#191919"/>
<path d="M61.893 15.3481C62.0535 15.4097 63.0108 14.8264 63.0896 15.2449C63.1441 15.5324 61.9162 15.9658 61.5354 15.6284C61.2926 15.4131 61.1547 13.9072 61.5354 13.944C61.8252 13.9721 61.5766 15.0374 61.9069 15.3501L61.893 15.3481Z" fill="#191919"/>
<path d="M60.2975 12.3022C59.6797 12.1524 59.1147 13.0382 59.6328 13.1036C59.9625 13.1458 59.8298 12.7643 60.1874 12.7201C60.6185 12.6896 60.513 12.3546 60.2975 12.3022Z" fill="#191919"/>
<path d="M75.8683 41.8144C74.951 41.9114 73.4125 42.4932 73.0868 43.2569C72.6174 44.3545 72.2309 45.7014 72.855 46.8016C73.3186 47.6205 73.7358 47.8275 74.8131 47.6743C76.5237 47.4275 76.216 46.8418 75.8562 46.9068C73.4397 47.4629 73.781 47.1143 73.1053 45.7557C72.9604 45.4648 73.5226 43.3698 73.9746 43.0707C74.5919 42.7222 75.2649 42.4485 75.9738 42.2576C76.2531 42.1606 76.2056 41.7587 75.8683 41.7931V41.8144Z" fill="#191919"/>
<path d="M40.9985 43.35C39.734 43.0567 39.4408 42.2833 39.1186 42.4981C38.5391 42.886 41.1607 44.3706 41.3699 43.6874C41.4441 43.446 41.1358 43.3815 40.9985 43.35Z" fill="#191919"/>
<path d="M41.0316 45.0889C40.9736 45.1272 40.6735 45.6945 41.7328 45.3076C41.9848 45.2155 42.5214 45.1233 42.3748 44.7859C42.2282 44.4484 41.2796 44.926 41.0316 45.0889Z" fill="#191919"/>
<path d="M39.9123 45.0118C39.3391 45.6639 38.5939 45.2542 38.569 45.629C38.5331 46.1662 40.0177 45.8481 40.4031 45.307C40.4402 45.2515 40.4515 45.1864 40.4347 45.1244C40.4179 45.0623 40.3742 45.0076 40.312 44.9709C40.2499 44.9342 40.1737 44.9181 40.0981 44.9256C40.0226 44.9332 39.9531 44.9639 39.903 45.0118H39.9123Z" fill="#191919"/>
<path d="M37.6465 45.121C37.579 45.1154 37.5169 45.0876 37.474 45.0438C37.431 44.9999 37.4106 44.9435 37.4173 44.8871C37.4239 44.8306 37.4572 44.7787 37.5096 44.7428C37.562 44.7068 37.6294 44.6897 37.6969 44.6953C38.8141 44.768 39.4353 43.9855 39.7054 44.3559C40.0177 44.7792 38.6096 45.2437 37.6465 45.121Z" fill="#191919"/>
<path d="M36.5838 44.1743C36.388 44.0725 36.5427 43.7903 36.7623 43.8291C37.8906 44.0973 38.4278 43.2032 38.9679 43.2648C39.0378 43.2734 39.1007 43.3049 39.1429 43.3524C39.1851 43.3998 39.203 43.4594 39.1927 43.5179C39.1098 43.9397 37.5168 44.6597 36.5838 44.1743Z" fill="#191919"/>
<path d="M36.2446 42.2285C36.2861 42.1998 36.3387 42.1846 36.3925 42.1856C36.4464 42.1866 36.4981 42.2038 36.5381 42.234C36.5781 42.2642 36.6038 42.3054 36.6106 42.3501C36.6173 42.3948 36.6047 42.4401 36.5749 42.4777C35.9206 43.2568 38.0421 42.4777 38.0514 42.4777C38.457 42.3589 38.8865 42.4777 38.6518 42.7686C38.4605 43.0081 37.006 43.3208 36.7215 43.3131C36.5643 43.3261 36.4065 43.2947 36.2732 43.2239C36.1398 43.1531 36.0387 43.047 35.9859 42.9224C35.9331 42.7979 35.9318 42.6622 35.982 42.5369C36.0323 42.4116 36.1312 42.3041 36.2631 42.2314L36.2446 42.2285Z" fill="#191919"/>
<path d="M37.7016 40.3838C38.6189 40.6369 39.3821 41.7719 40.5411 41.3738C40.8627 41.2633 40.7885 40.7949 40.4084 40.8482C39.4366 40.984 38.7806 40.2034 37.9137 39.9658C37.6006 39.9261 37.2934 39.8591 36.9969 39.7661C36.7651 39.655 36.5154 39.96 36.7356 40.0885C37.0361 40.2304 37.3625 40.3302 37.7016 40.3838Z" fill="#191919"/>
<path d="M74.2589 46.3297C74.661 45.9418 75.2904 46.0039 75.8588 46.0077C76.5878 46.0126 76.8347 45.6877 77.4316 45.4589C77.6831 45.3619 78.0111 45.6494 77.7984 45.8424C76.6481 46.9008 75.3066 46.3171 74.5567 46.6366C74.3522 46.7239 74.1053 46.478 74.2589 46.3297Z" fill="#191919"/>
<path d="M59.3338 26.4834C59.3918 26.2764 58.9989 26.1993 58.9073 26.3913C58.0381 28.2274 57.4047 32.2095 57.0141 34.2943C56.2098 38.5794 55.5306 42.9488 55.73 47.2989C55.7572 47.8938 59.6867 48.0698 60.2645 48.1086C63.7745 48.3173 67.2959 48.3557 70.8112 48.2235C73.7765 48.1338 72.9385 47.6417 72.7815 47.648C67.0764 47.8104 60.4569 47.8744 56.3396 47.1146C56.2156 41.633 57.2563 36.2468 58.2652 30.849C58.3238 30.849 58.4008 29.7935 59.3338 26.4834ZM86.8353 27.8531C89.4813 30.6493 93.3459 33.8492 90.4988 37.5501C87.6518 41.2509 79.6421 46.0999 79.1599 45.886C78.3027 45.4924 77.5922 44.9083 77.1067 44.1982C76.6211 43.4881 76.3795 42.6796 76.4085 41.8618C76.4184 41.3285 76.4137 41.2315 76.6473 40.9891C78.5208 39.055 81.6222 36.6124 83.0663 34.7515C81.6913 33.5732 80.2386 32.4602 78.7149 31.4177C77.9129 33.7198 77.4771 36.8233 77.0048 39.7615C76.9932 39.8076 76.9619 39.8487 76.9168 39.8769C76.8717 39.9051 76.8158 39.9187 76.7596 39.9149C76.7034 39.9112 76.6507 39.8904 76.6115 39.8566C76.5723 39.8227 76.5491 39.778 76.5464 39.7309C76.5464 38.1964 77.436 32.193 78.1742 31.0648C77.3119 30.4946 76.4284 29.9461 75.5236 29.4192C75.2721 29.2737 75.5769 28.9014 75.8308 29.0357C78.5879 30.5188 81.1347 32.2592 83.4221 34.2235C83.5231 34.0674 83.635 33.9164 83.757 33.7712C84.0056 33.4774 84.9062 33.76 82.8397 35.8424C80.9917 37.7052 78.9699 39.4715 77.0349 41.2902C76.9388 41.6737 76.5076 43.6528 79.1715 45.3716C82.725 43.4536 87.7822 40.1925 89.9286 37.2926C92.5462 33.7532 88.55 30.5533 86.0356 27.9244C77.6417 19.1448 74.6196 20.418 70.3685 19.9031C69.8643 21.4377 69.1353 22.8122 67.026 23.0105C64.6559 23.2335 63.4772 22.962 62.6288 21.0347C57.553 22.596 55.6291 27.1714 53.6925 31.3135C52.5538 33.7489 52.395 35.0114 49.6163 36.3389L41.1726 40.4015C42.9238 41.2606 43.3746 42.9755 43.4007 44.5483C47.2935 43.5264 51.0974 42.2811 54.7854 40.8213C54.9094 40.783 56.0846 41.0545 52.3231 42.3559C49.9356 43.1801 45.2447 44.7801 43.071 45.1447C42.612 45.2223 42.7297 44.6346 42.7175 44.3316C42.6213 41.8962 41.4612 41.1937 40.957 40.8141C40.5398 40.4994 40.5514 40.2385 40.8011 40.0868C42.0621 39.3198 46.7299 37.2979 49.3706 35.9782C52.0114 34.6584 52.0722 33.7615 53.2358 31.344C55.1406 27.3857 57.0309 21.9773 62.5529 20.6255C63.1446 20.4801 63.0478 20.6794 63.1672 20.9058C63.9744 22.4403 64.657 22.7608 67.0596 22.4864C69.1226 22.2507 69.4002 20.7201 69.7421 19.9506C69.9854 19.4032 70.4299 19.4609 71.0627 19.4517C72.7124 19.4252 74.3573 19.609 75.9409 19.9967C80.1677 21.0396 84.0937 24.9562 86.8353 27.8531Z" fill="#191919"/>
<path d="M29.6971 34.6311C30.655 35.5746 36.793 41.8723 37.4913 42.1617C37.5482 42.1857 37.6123 42.1951 37.6756 42.1889C37.739 42.1827 37.7987 42.1611 37.8475 42.1269C37.8964 42.0926 37.9321 42.047 37.9503 41.9959C37.9686 41.9448 37.9685 41.8904 37.9502 41.8393C37.748 41.4286 30.7697 34.8803 30.0958 34.2587C30.5542 33.4262 29.2683 32.5797 28.4495 31.2207C28.1929 30.7812 27.9773 30.3259 27.8045 29.8587C27.6706 29.5125 26.1448 29.5479 29.2532 33.2769C29.496 33.5678 29.8483 34.041 29.2532 34.1821C27.9673 34.4866 26.3668 31.4965 26.124 30.7295C26.0422 30.4687 25.5607 30.5356 25.6239 30.8061C25.8922 31.93 27.7801 35.5785 29.6971 34.6311Z" fill="#191919"/>
<path d="M65.4182 86.5941C65.4182 86.2106 64.7025 86.2412 64.7025 86.6286C64.7025 89.1759 65.0004 88.8104 63.4189 89.1376C61.1589 89.6045 56.6012 90.4569 54.3499 90.2004C52.7632 90.0196 53.8921 89.5066 54.9456 88.7944C56.1388 87.9895 57.3464 87.19 58.568 86.4157C58.8392 86.2441 58.5639 85.8586 58.2748 86.0322C56.6047 87.0334 54.9717 88.0782 53.3549 89.1435C52.3217 89.8247 53.0565 90.5553 53.9234 90.7163C56.2159 91.1425 61.1404 90.2111 63.5012 89.7267C65.7943 89.2559 65.4135 89.3427 65.4182 86.5844V86.5941Z" fill="#191919"/>
<path d="M85.7389 89.1765C85.6051 88.9084 85.0279 88.9539 85.0968 89.2803C85.4642 91.0218 86.2239 91.1227 84.1801 92.0269C83.0565 92.5248 75.22 95.4737 74.3954 94.6664C73.7968 94.0797 75.5179 93.2395 78.9114 90.1777C79.1432 89.9707 78.7561 89.7181 78.5173 89.8979C77.1445 90.9321 75.7937 92.0162 74.4823 93.1086C72.9658 94.3716 73.6432 95.433 74.9778 95.3491C77.9077 95.1643 81.7428 93.7641 84.336 92.6174C86.4372 91.688 86.6997 91.1013 85.7389 89.1765Z" fill="#191919"/>
<path d="M8.30254 89.951C7.97475 88.8882 7.26986 87.9333 6.2807 87.2121C6.07788 87.025 5.61081 87.2543 5.82232 87.4424C6.47714 88.0243 7.16152 88.7515 7.70219 90.607C8.03713 91.7581 8.75165 91.3207 8.30254 89.951Z" fill="#191919"/>
<path d="M11.186 86.1861C8.85243 88.3679 9.26734 90.268 9.30153 90.7921C9.33167 91.2527 9.56578 91.3667 9.86538 91.1756C10.329 90.8813 9.33978 88.8135 11.5575 86.4726C11.7313 86.2884 11.3738 86.0198 11.186 86.1963V86.1861Z" fill="#191919"/>
<path d="M44.5624 87.7604C44.5726 87.8282 44.612 87.8905 44.6731 87.9357C44.7343 87.9808 44.8131 88.0058 44.8947 88.0058C44.9764 88.0058 45.0552 87.9808 45.1164 87.9357C45.1775 87.8905 45.2169 87.8282 45.2271 87.7604C45.6437 84.7689 45.6808 83.3585 47.6117 80.2938C47.7398 80.0906 47.3457 79.9103 47.1991 80.0829C47.1991 80.129 44.4007 83.7255 44.5624 87.7604Z" fill="#191919"/>
<path d="M43.4015 86.1919C42.9529 85.0356 42.127 84.0072 41.0169 83.2227C40.7498 83.0321 40.4473 83.3851 40.6913 83.5795C42.8174 85.2731 42.767 87.1708 43.0434 87.4656C43.1808 87.6106 44.0581 87.9092 43.4015 86.1919Z" fill="#191919"/>
<path d="M50.3516 83.6519C50.4076 83.6372 50.4682 83.6399 50.522 83.6596C50.5758 83.6793 50.6193 83.7147 50.6445 83.7591C50.6696 83.8035 50.6747 83.854 50.6588 83.9014C50.6429 83.9487 50.607 83.9896 50.5579 84.0165C48.623 84.8606 47.5521 85.5157 46.8897 87.2926C46.7657 87.6262 46.0877 87.5229 46.1654 87.1738C46.5333 85.5205 48.6073 84.2391 50.3516 83.6519Z" fill="#191919"/>
<path d="M85.6066 87.7836C81.2187 71.0269 76.9409 51.0555 76.4367 48.0059C68.5273 49.4749 58.3989 48.5659 56.1615 48.1479C55.8497 53.3304 56.8569 77.0613 58.2019 84.9754C60.1142 86.4639 64.3688 85.9882 66.1067 85.1941C65.5336 76.9517 66.0424 66.7495 66.3907 61.7125C65.9045 60.0974 65.5185 58.4858 65.0839 56.864C65.0202 56.6264 65.4531 56.5018 65.5423 56.7491C69.0952 66.5619 73.1951 80.2113 78.225 89.0001C79.9073 89.5979 84.5658 88.9996 85.6066 87.7836Z" fill="#191919"/>
<path d="M30.7692 60.9214C39.0223 56.9355 39.2547 48.2131 39.0223 48.0085C38.7099 47.7331 3.59394 47.625 3.42821 48.0085C3.29609 48.3154 3.33202 56.6092 10.9477 60.6678C7.0651 70.278 3.01793 81.283 0.512212 90.9741C0.38936 91.4498 1.2302 91.6679 1.38782 91.185C2.52768 87.7058 3.59337 84.211 4.73033 80.7313C6.10604 82.8757 17.0833 83.7237 19.8614 83.8794C19.8336 87.716 19.7455 91.9356 19.8614 95.6912C19.8764 95.7795 19.9299 95.8601 20.0117 95.9173C20.0935 95.9745 20.1978 96.0044 20.3043 96.0011C20.4109 95.9978 20.5122 95.9615 20.5887 95.8994C20.6652 95.8372 20.7114 95.7536 20.7185 95.6645C20.9659 91.7601 20.9503 87.8464 20.9798 83.9371C24.6022 84.0869 33.5113 84.4665 35.6844 81.4644C36.6794 84.3734 38.1287 88.6173 39.3526 91.2427C39.3701 91.2841 39.3971 91.3222 39.4322 91.3549C39.4672 91.3875 39.5096 91.4141 39.557 91.433C39.6043 91.4519 39.6556 91.4629 39.708 91.4652C39.7604 91.4675 39.8128 91.4612 39.8623 91.4466C39.9117 91.432 39.9573 91.4094 39.9963 91.38C40.0353 91.3507 40.067 91.3152 40.0897 91.2756C40.1123 91.236 40.1254 91.1931 40.1282 91.1493C40.131 91.1054 40.1234 91.0616 40.1059 91.0202C37.0051 80.9461 33.4377 71.2734 30.7692 60.9214ZM5.55147 79.619C6.57253 78.0859 16.0658 77.4227 18.1264 77.2598C18.5483 77.2263 18.4979 76.6678 18.0853 76.646C15.5228 76.5112 7.62662 77.3247 5.43035 78.6217C7.38382 72.8671 9.61659 66.8443 12.0238 61.1857C14.4803 62.2338 17.1896 62.8006 19.9466 62.8433V83.0716C17.8622 82.949 4.01582 81.923 5.55147 79.619ZM35.1339 80.3211C35.3593 83.6311 23.3644 83.2481 21.0123 83.1332C21.0899 76.3856 21.2597 69.6108 21.2505 62.8705C24.1796 62.9087 27.0822 62.4002 29.747 61.382C31.2227 67.1291 32.8824 72.8386 34.7259 78.5107C32.5024 77.3596 25.5236 77.0377 22.9623 76.9107C22.8506 76.8704 22.7244 76.8689 22.6115 76.9065C22.4985 76.9441 22.408 77.0177 22.3599 77.1112C22.3118 77.2046 22.31 77.3102 22.3549 77.4047C22.3999 77.4992 22.4879 77.5749 22.5995 77.6152C22.8927 77.7218 34.9612 77.7849 35.1339 80.3211Z" fill="#191919"/>
</svg>
