<svg width="20" height="20" viewBox="0 0 20 20" fill="none" xmlns="http://www.w3.org/2000/svg">
<path fill-rule="evenodd" clip-rule="evenodd" d="M9.99844 19.5999C12.5445 19.5999 14.9863 18.5885 16.7867 16.7881C18.587 14.9878 19.5984 12.546 19.5984 9.9999C19.5984 7.45382 18.587 5.01203 16.7867 3.21168C14.9863 1.41133 12.5445 0.399902 9.99844 0.399902C7.45236 0.399902 5.01056 1.41133 3.21021 3.21168C1.40986 5.01203 0.398438 7.45382 0.398438 9.9999C0.398438 12.546 1.40986 14.9878 3.21021 16.7881C5.01056 18.5885 7.45236 19.5999 9.99844 19.5999V19.5999ZM14.4468 8.4483C14.6654 8.22198 14.7864 7.91886 14.7836 7.60422C14.7809 7.28959 14.6547 6.98861 14.4322 6.76612C14.2097 6.54363 13.9088 6.41743 13.5941 6.41469C13.2795 6.41196 12.9764 6.53291 12.75 6.7515L8.79844 10.7031L7.24684 9.1515C7.02051 8.93291 6.71739 8.81196 6.40276 8.81469C6.08812 8.81743 5.78715 8.94363 5.56466 9.16612C5.34217 9.38861 5.21596 9.68959 5.21323 10.0042C5.21049 10.3189 5.33145 10.622 5.55004 10.8483L7.95004 13.2483C8.17507 13.4733 8.48024 13.5996 8.79844 13.5996C9.11663 13.5996 9.4218 13.4733 9.64684 13.2483L14.4468 8.4483V8.4483Z" fill="#374151"/>
</svg>
