<svg width="32" height="32" viewBox="0 0 32 32" fill="none" xmlns="http://www.w3.org/2000/svg">
<path d="M14.3998 3.19922C13.9755 3.19922 13.5685 3.36779 13.2684 3.66785C12.9684 3.96791 12.7998 4.37487 12.7998 4.79922C12.7998 5.22357 12.9684 5.63053 13.2684 5.93059C13.5685 6.23065 13.9755 6.39922 14.3998 6.39922H17.5998C18.0242 6.39922 18.4311 6.23065 18.7312 5.93059C19.0312 5.63053 19.1998 5.22357 19.1998 4.79922C19.1998 4.37487 19.0312 3.96791 18.7312 3.66785C18.4311 3.36779 18.0242 3.19922 17.5998 3.19922H14.3998Z" fill="#E54A2B"/>
<path fill-rule="evenodd" clip-rule="evenodd" d="M6.40039 8.00078C6.40039 7.15209 6.73753 6.33816 7.33765 5.73804C7.93777 5.13792 8.7517 4.80078 9.60039 4.80078C9.60039 6.07382 10.1061 7.29472 11.0063 8.19489C11.9065 9.09507 13.1274 9.60078 14.4004 9.60078H17.6004C18.8734 9.60078 20.0943 9.09507 20.9945 8.19489C21.8947 7.29472 22.4004 6.07382 22.4004 4.80078C23.2491 4.80078 24.063 5.13792 24.6631 5.73804C25.2632 6.33816 25.6004 7.15209 25.6004 8.00078V25.6008C25.6004 26.4495 25.2632 27.2634 24.6631 27.8635C24.063 28.4636 23.2491 28.8008 22.4004 28.8008H9.60039C8.7517 28.8008 7.93777 28.4636 7.33765 27.8635C6.73753 27.2634 6.40039 26.4495 6.40039 25.6008V8.00078ZM11.2004 14.4008C10.776 14.4008 10.3691 14.5694 10.069 14.8694C9.76896 15.1695 9.60039 15.5764 9.60039 16.0008C9.60039 16.4251 9.76896 16.8321 10.069 17.1322C10.3691 17.4322 10.776 17.6008 11.2004 17.6008H11.2164C11.6407 17.6008 12.0477 17.4322 12.3478 17.1322C12.6478 16.8321 12.8164 16.4251 12.8164 16.0008C12.8164 15.5764 12.6478 15.1695 12.3478 14.8694C12.0477 14.5694 11.6407 14.4008 11.2164 14.4008H11.2004ZM16.0004 14.4008C15.576 14.4008 15.1691 14.5694 14.869 14.8694C14.569 15.1695 14.4004 15.5764 14.4004 16.0008C14.4004 16.4251 14.569 16.8321 14.869 17.1322C15.1691 17.4322 15.576 17.6008 16.0004 17.6008H20.8004C21.2247 17.6008 21.6317 17.4322 21.9318 17.1322C22.2318 16.8321 22.4004 16.4251 22.4004 16.0008C22.4004 15.5764 22.2318 15.1695 21.9318 14.8694C21.6317 14.5694 21.2247 14.4008 20.8004 14.4008H16.0004ZM11.2004 20.8008C10.776 20.8008 10.3691 20.9694 10.069 21.2694C9.76896 21.5695 9.60039 21.9764 9.60039 22.4008C9.60039 22.8251 9.76896 23.2321 10.069 23.5322C10.3691 23.8322 10.776 24.0008 11.2004 24.0008H11.2164C11.6407 24.0008 12.0477 23.8322 12.3478 23.5322C12.6478 23.2321 12.8164 22.8251 12.8164 22.4008C12.8164 21.9764 12.6478 21.5695 12.3478 21.2694C12.0477 20.9694 11.6407 20.8008 11.2164 20.8008H11.2004ZM16.0004 20.8008C15.576 20.8008 15.1691 20.9694 14.869 21.2694C14.569 21.5695 14.4004 21.9764 14.4004 22.4008C14.4004 22.8251 14.569 23.2321 14.869 23.5322C15.1691 23.8322 15.576 24.0008 16.0004 24.0008H20.8004C21.2247 24.0008 21.6317 23.8322 21.9318 23.5322C22.2318 23.2321 22.4004 22.8251 22.4004 22.4008C22.4004 21.9764 22.2318 21.5695 21.9318 21.2694C21.6317 20.9694 21.2247 20.8008 20.8004 20.8008H16.0004Z" fill="#E54A2B"/>
</svg>
