<svg width="20" height="20" viewBox="0 0 20 20" fill="none" xmlns="http://www.w3.org/2000/svg">
<path d="M7.49935 13.3333H7.50768H7.49935Z" fill="#F9FAFB"/>
<path d="M7.49935 4.16667H5.83268C5.39065 4.16667 4.96673 4.34226 4.65417 4.65482C4.34161 4.96738 4.16602 5.39131 4.16602 5.83333V15.8333C4.16602 16.2754 4.34161 16.6993 4.65417 17.0118C4.96673 17.3244 5.39065 17.5 5.83268 17.5H14.166C14.608 17.5 15.032 17.3244 15.3445 17.0118C15.6571 16.6993 15.8327 16.2754 15.8327 15.8333V5.83333C15.8327 5.39131 15.6571 4.96738 15.3445 4.65482C15.032 4.34226 14.608 4.16667 14.166 4.16667H12.4993M7.49935 4.16667C7.49935 4.60869 7.67494 5.03262 7.9875 5.34518C8.30007 5.65774 8.72399 5.83333 9.16602 5.83333H10.8327C11.2747 5.83333 11.6986 5.65774 12.0112 5.34518C12.3238 5.03262 12.4993 4.60869 12.4993 4.16667M7.49935 4.16667C7.49935 3.72464 7.67494 3.30072 7.9875 2.98816C8.30007 2.67559 8.72399 2.5 9.16602 2.5H10.8327C11.2747 2.5 11.6986 2.67559 12.0112 2.98816C12.3238 3.30072 12.4993 3.72464 12.4993 4.16667M9.99935 10H12.4993M9.99935 13.3333H12.4993M7.49935 10H7.50768M7.49935 13.3333H7.50768" stroke="#E54A2B" stroke-width="2" stroke-linecap="round" stroke-linejoin="round"/>
</svg>
