<svg width="24" height="24" viewBox="0 0 24 24" fill="none" xmlns="http://www.w3.org/2000/svg">
<path d="M12 2H6V0H12V2ZM10 18C10 19.03 10.26 20 10.71 20.83C10.16 20.94 9.59 21 9 21C4.03 21 0 16.97 0 12C0 7.03 4.03 3 9 3C11.12 3 13.07 3.74 14.62 5L16.04 3.56C16.55 4 17 4.46 17.45 4.97L16.03 6.39C17.26 7.93 18 9.88 18 12C18 12.12 18 12.23 18 12.35C17.36 12.13 16.7 12 16 12C12.69 12 10 14.69 10 18ZM10 6H8V13H10V6ZM18.34 14.84L14.75 18.43L13.16 16.84L12 18L14.75 21L19.5 16.25L18.34 14.84Z" fill="currentColor"/>
</svg>
