<svg width="40" height="40" viewBox="0 0 40 40" fill="none" xmlns="http://www.w3.org/2000/svg">
<path d="M31.2 31.2C25.026 37.374 14.974 37.374 8.8 31.2C2.626 25.026 2.626 14.974 8.8 8.8C14.974 2.626 25.026 2.626 31.2 8.8C37.374 14.974 37.374 25.026 31.2 31.2ZM6 6C4.1615 7.8385 2.70311 10.0211 1.70812 12.4233C0.713127 14.8254 0.201012 17.4 0.201011 20C0.201012 25.251 2.28697 30.287 6 34C9.71303 37.713 14.749 39.799 20 39.799C22.6 39.799 25.1746 39.2869 27.5768 38.2919C29.9789 37.2969 32.1615 35.8385 34 34C37.713 30.287 39.799 25.251 39.799 20C39.799 14.749 37.713 9.71303 34 6C32.1615 4.16149 29.9789 2.70311 27.5768 1.70812C25.1746 0.713122 22.6 0.201005 20 0.201007C17.4 0.201006 14.8254 0.713122 12.4233 1.70811C10.0211 2.70311 7.83851 4.16149 6 6ZM14.4 11.6L11.6 14.4L17.2 20L11.6 25.6L14.4 28.4L20 22.8L25.6 28.4L28.4 25.6L22.8 20L28.4 14.4L25.6 11.6L20 17.2L14.4 11.6Z" fill="#9CA3AF"/>
</svg>
