<svg width="33" height="32" viewBox="0 0 33 32" fill="none" xmlns="http://www.w3.org/2000/svg">
<path d="M16.4217 20.666C15.184 20.666 13.997 20.1743 13.1218 19.2992C12.2467 18.424 11.755 17.237 11.755 15.9993C11.755 14.7617 12.2467 13.5747 13.1218 12.6995C13.997 11.8243 15.184 11.3327 16.4217 11.3327C17.6593 11.3327 18.8463 11.8243 19.7215 12.6995C20.5967 13.5747 21.0883 14.7617 21.0883 15.9993C21.0883 17.237 20.5967 18.424 19.7215 19.2992C18.8463 20.1743 17.6593 20.666 16.4217 20.666ZM26.3283 17.2927C26.3817 16.866 26.4217 16.4393 26.4217 15.9993C26.4217 15.5593 26.3817 15.1193 26.3283 14.666L29.1417 12.4927C29.395 12.2927 29.4617 11.9327 29.3017 11.6393L26.635 7.02602C26.475 6.73268 26.115 6.61268 25.8217 6.73268L22.5017 8.06602C21.8083 7.54602 21.0883 7.09268 20.2483 6.75935L19.755 3.22602C19.7017 2.90602 19.4217 2.66602 19.0883 2.66602H13.755C13.4217 2.66602 13.1417 2.90602 13.0883 3.22602L12.595 6.75935C11.755 7.09268 11.035 7.54602 10.3417 8.06602L7.02166 6.73268C6.72833 6.61268 6.36833 6.73268 6.20833 7.02602L3.54166 11.6393C3.36833 11.9327 3.44833 12.2927 3.70166 12.4927L6.51499 14.666C6.46166 15.1193 6.42166 15.5593 6.42166 15.9993C6.42166 16.4393 6.46166 16.866 6.51499 17.2927L3.70166 19.506C3.44833 19.706 3.36833 20.066 3.54166 20.3593L6.20833 24.9727C6.36833 25.266 6.72833 25.3727 7.02166 25.266L10.3417 23.9193C11.035 24.4527 11.755 24.906 12.595 25.2393L13.0883 28.7727C13.1417 29.0927 13.4217 29.3327 13.755 29.3327H19.0883C19.4217 29.3327 19.7017 29.0927 19.755 28.7727L20.2483 25.2393C21.0883 24.8927 21.8083 24.4527 22.5017 23.9193L25.8217 25.266C26.115 25.3727 26.475 25.266 26.635 24.9727L29.3017 20.3593C29.4617 20.066 29.395 19.706 29.1417 19.506L26.3283 17.2927Z" fill="#E54A2B"/>
</svg>
