<svg width="24" height="24" viewBox="0 0 24 24" fill="none" xmlns="http://www.w3.org/2000/svg">
<path d="M10.1192 8.90243C10.3052 8.77883 10.5344 8.66723 10.7996 8.58203V10.6196C10.5593 10.5443 10.3304 10.4365 10.1192 10.2992C9.68361 10.0088 9.59961 9.73763 9.59961 9.60083C9.59961 9.46403 9.68361 9.19283 10.1192 8.90243ZM13.1996 15.4196V13.382C13.4636 13.4672 13.694 13.5788 13.88 13.7024C14.3168 13.994 14.3996 14.264 14.3996 14.4008C14.3996 14.5376 14.3156 14.8088 13.88 15.0992C13.6689 15.2365 13.4399 15.3443 13.1996 15.4196Z" fill="currentColor"/>
<path fill-rule="evenodd" clip-rule="evenodd" d="M12.0004 21.6004C14.5465 21.6004 16.9883 20.589 18.7886 18.7886C20.589 16.9883 21.6004 14.5465 21.6004 12.0004C21.6004 9.45431 20.589 7.01252 18.7886 5.21217C16.9883 3.41182 14.5465 2.40039 12.0004 2.40039C9.45431 2.40039 7.01252 3.41182 5.21217 5.21217C3.41182 7.01252 2.40039 9.45431 2.40039 12.0004C2.40039 14.5465 3.41182 16.9883 5.21217 18.7886C7.01252 20.589 9.45431 21.6004 12.0004 21.6004ZM13.2004 6.00039C13.2004 5.68213 13.074 5.37691 12.8489 5.15186C12.6239 4.92682 12.3187 4.80039 12.0004 4.80039C11.6821 4.80039 11.3769 4.92682 11.1519 5.15186C10.9268 5.37691 10.8004 5.68213 10.8004 6.00039V6.11079C10.0836 6.23839 9.3997 6.50852 8.78919 6.90519C7.92279 7.48119 7.20039 8.41119 7.20039 9.60039C7.20039 10.7884 7.92279 11.7184 8.78919 12.2956C9.36519 12.6796 10.054 12.9496 10.8004 13.09V15.4192C10.3312 15.2668 9.98439 15.0388 9.78879 14.8144C9.68727 14.6898 9.56177 14.5869 9.41973 14.5118C9.27768 14.4366 9.12199 14.3907 8.96189 14.3769C8.80178 14.3631 8.64053 14.3815 8.4877 14.4312C8.33487 14.4809 8.19357 14.5607 8.07218 14.666C7.95079 14.7713 7.8518 14.8999 7.78106 15.0442C7.71032 15.1885 7.66929 15.3456 7.66039 15.506C7.6515 15.6665 7.67492 15.8271 7.72927 15.9783C7.78362 16.1295 7.86779 16.2683 7.97679 16.3864C8.65119 17.1652 9.67239 17.6776 10.8004 17.89V18.0004C10.8004 18.3187 10.9268 18.6239 11.1519 18.8489C11.3769 19.074 11.6821 19.2004 12.0004 19.2004C12.3187 19.2004 12.6239 19.074 12.8489 18.8489C13.074 18.6239 13.2004 18.3187 13.2004 18.0004V17.89C13.9172 17.7624 14.6011 17.4923 15.2116 17.0956C16.078 16.5196 16.8004 15.5896 16.8004 14.4004C16.8004 13.2124 16.078 12.2824 15.2116 11.7052C14.6011 11.3085 13.9172 11.0384 13.2004 10.9108V8.58159C13.6696 8.73399 14.0164 8.96199 14.212 9.18639C14.3145 9.30797 14.4401 9.40797 14.5815 9.48058C14.7229 9.5532 14.8774 9.59698 15.0359 9.60939C15.1944 9.62179 15.3538 9.60257 15.5049 9.55285C15.6559 9.50312 15.7955 9.42388 15.9156 9.31973C16.0358 9.21558 16.134 9.08859 16.2046 8.94615C16.2753 8.8037 16.3169 8.64864 16.3271 8.48998C16.3373 8.33131 16.3158 8.17219 16.264 8.02188C16.2122 7.87157 16.131 7.73306 16.0252 7.61439C15.3496 6.83559 14.3296 6.32319 13.2004 6.11079V6.00039Z" fill="currentColor"/>
</svg>
