<svg width="24" height="23" viewBox="0 0 24 23" fill="none" xmlns="http://www.w3.org/2000/svg">
<path d="M4 6.58952H20M19 6.58952L18.133 18.0191C18.0971 18.4941 17.8713 18.9386 17.5011 19.2631C17.1309 19.5877 16.6439 19.7681 16.138 19.7681H7.862C7.35614 19.7681 6.86907 19.5877 6.49889 19.2631C6.1287 18.9386 5.90292 18.4941 5.867 18.0191L5 6.58952H19ZM10 10.3548V16.0028V10.3548ZM14 10.3548V16.0028V10.3548ZM15 6.58952V3.76555C15 3.51589 14.8946 3.27646 14.7071 3.09993C14.5196 2.92339 14.2652 2.82422 14 2.82422H10C9.73478 2.82422 9.48043 2.92339 9.29289 3.09993C9.10536 3.27646 9 3.51589 9 3.76555V6.58952H15Z" stroke="#EF4444" stroke-width="2" stroke-linecap="round" stroke-linejoin="round"/>
</svg>
