<svg width="31" height="31" viewBox="0 0 31 31" fill="none" xmlns="http://www.w3.org/2000/svg">
<path d="M11.4923 15.0098H19.1536H11.4923ZM11.4923 20.0098H19.1536H11.4923ZM21.7073 26.2598H8.93853C8.26123 26.2598 7.61167 25.9964 7.13275 25.5275C6.65382 25.0587 6.38477 24.4228 6.38477 23.7598V6.25977C6.38477 5.59672 6.65382 4.96084 7.13275 4.492C7.61167 4.02316 8.26123 3.75977 8.93853 3.75977H16.0712C16.4098 3.75984 16.7345 3.89158 16.9739 4.12602L23.887 10.8935C24.1265 11.1279 24.261 11.4458 24.2611 11.7773V23.7598C24.2611 24.4228 23.9921 25.0587 23.5131 25.5275C23.0342 25.9964 22.3846 26.2598 21.7073 26.2598Z" stroke="currentColor" stroke-width="2" stroke-linecap="round" stroke-linejoin="round"/>
</svg>
