<svg width="13" height="8" viewBox="0 0 13 8" fill="none" xmlns="http://www.w3.org/2000/svg">
<path d="M3.45596 7.96032C3.32939 7.96032 3.20658 7.90969 3.11658 7.81969L0.476564 5.17968C0.289062 4.99218 0.289062 4.68842 0.476564 4.50092C0.664065 4.31342 0.967817 4.31342 1.15532 4.50092L3.42221 6.76781L8.84661 0.214646C9.01537 0.00933194 9.31818 -0.0187934 9.52162 0.150895C9.726 0.319646 9.75506 0.622461 9.58537 0.8259L3.82533 7.78594C3.74002 7.89094 3.61346 7.95376 3.47846 7.95938C3.47096 7.96032 3.46346 7.96032 3.45596 7.96032ZM6.11847 7.95938C6.25347 7.95376 6.3791 7.89094 6.46535 7.78594L12.2254 0.8259C12.3951 0.622461 12.366 0.319646 12.1616 0.150895C11.9582 -0.0187934 11.6554 0.0102694 11.4866 0.214646L6.06222 6.76781L5.95535 6.66094C5.76785 6.47343 5.46409 6.47343 5.27659 6.66094C5.08909 6.84844 5.08909 7.15219 5.27659 7.33969L5.7566 7.81969C5.8466 7.90969 5.96941 7.96032 6.09597 7.96032C6.10347 7.96032 6.11097 7.96032 6.11847 7.95938Z" fill="currentColor"/>
</svg>
