<svg width="20" height="20" viewBox="0 0 20 20" fill="none" xmlns="http://www.w3.org/2000/svg">
<path d="M8.5 3.99919H3.5C2.96957 3.99919 2.46086 4.2099 2.08579 4.58497C1.71071 4.96004 1.5 5.46875 1.5 5.99919V16.9992C1.5 17.5296 1.71071 18.0383 2.08579 18.4134C2.46086 18.7885 2.96957 18.9992 3.5 18.9992H14.5C15.0304 18.9992 15.5391 18.7885 15.9142 18.4134C16.2893 18.0383 16.5 17.5296 16.5 16.9992V11.9992M15.086 2.58519C15.2705 2.39417 15.4912 2.2418 15.7352 2.13698C15.9792 2.03216 16.2416 1.97699 16.5072 1.97468C16.7728 1.97238 17.0361 2.02298 17.2819 2.12354C17.5277 2.2241 17.751 2.37261 17.9388 2.5604C18.1266 2.74818 18.2751 2.97148 18.3756 3.21728C18.4762 3.46307 18.5268 3.72643 18.5245 3.99199C18.5222 4.25755 18.467 4.51999 18.3622 4.76399C18.2574 5.008 18.105 5.22869 17.914 5.41319L9.328 13.9992H6.5V11.1712L15.086 2.58519Z" stroke="#111827" stroke-width="2" stroke-linecap="round" stroke-linejoin="round"/>
</svg>
