<svg width="90" height="90" viewBox="0 0 90 90" fill="none" xmlns="http://www.w3.org/2000/svg">
<path d="M48.1819 10.3175C47.338 9.47392 46.1936 9 45.0004 9C43.8071 9 42.6627 9.47392 41.8189 10.3175L10.3189 41.8175C9.49916 42.6662 9.04558 43.803 9.05583 44.9828C9.06609 46.1627 9.53935 47.2914 10.3737 48.1257C11.208 48.9601 12.3367 49.4333 13.5166 49.4436C14.6964 49.4538 15.8332 49.0002 16.6819 48.1805L18.0004 46.862V76.499C18.0004 77.6925 18.4745 78.8371 19.3184 79.681C20.1623 80.5249 21.3069 80.999 22.5004 80.999H31.5004C32.6938 80.999 33.8384 80.5249 34.6823 79.681C35.5263 78.8371 36.0004 77.6925 36.0004 76.499V67.499C36.0004 66.3056 36.4745 65.161 37.3184 64.3171C38.1623 63.4731 39.3069 62.999 40.5004 62.999H49.5004C50.6938 62.999 51.8384 63.4731 52.6823 64.3171C53.5263 65.161 54.0004 66.3056 54.0004 67.499V76.499C54.0004 77.6925 54.4745 78.8371 55.3184 79.681C56.1623 80.5249 57.3069 80.999 58.5004 80.999H67.5004C68.6938 80.999 69.8384 80.5249 70.6823 79.681C71.5263 78.8371 72.0004 77.6925 72.0004 76.499V46.862L73.3189 48.1805C74.1676 49.0002 75.3043 49.4538 76.4842 49.4436C77.6641 49.4333 78.7927 48.9601 79.6271 48.1257C80.4614 47.2914 80.9347 46.1627 80.9449 44.9828C80.9552 43.803 80.5016 42.6662 79.6819 41.8175L48.1819 10.3175Z" fill="#71717A"/>
</svg>
