<svg width="182" height="174" viewBox="0 0 182 174" fill="none" xmlns="http://www.w3.org/2000/svg">
<path d="M92.5965 92.2885C91.8505 92.6419 91.1833 93.1302 90.6318 93.7266C90.185 94.1738 89.4051 94.8854 89.7846 95.5492C89.819 95.6059 89.8684 95.6529 89.9278 95.6856C89.9873 95.7183 90.0546 95.7354 90.1231 95.7354C90.8175 95.7258 91.1341 94.8967 91.5282 94.4565C92.0414 93.9388 92.6058 93.4697 93.2135 93.0558C93.7067 92.6765 93.0797 92.0884 92.5965 92.2885Z" fill="#191919"/>
<path d="M94.4196 93.7754C93.7826 93.4187 92.9782 94.1042 92.5432 94.5105C91.9571 95.0246 91.5185 95.6737 91.2692 96.3958C91.2342 96.5286 91.25 96.669 91.3138 96.7916C91.3777 96.9142 91.4853 97.0109 91.6173 97.0643C91.7492 97.1176 91.8968 97.1239 92.0333 97.0822C92.1697 97.0405 92.2861 96.9535 92.3612 96.8369C92.694 96.299 93.0853 95.7962 93.5287 95.337C93.91 94.989 94.5898 94.641 94.6044 94.0833C94.6048 94.021 94.5879 93.9596 94.5554 93.9055C94.523 93.8514 94.4761 93.8065 94.4196 93.7754Z" fill="#191919"/>
<path d="M94.0161 96.0609C93.5653 96.6453 93.1784 97.2724 92.8613 97.9323C92.5392 98.6413 93.5457 99.259 93.9761 98.5543C94.4821 97.7278 94.8715 96.669 95.7242 96.1183C96.5314 95.5981 95.3393 94.2687 94.0161 96.0609Z" fill="#191919"/>
<path d="M94.7922 98.251C94.7549 100.855 92.5627 102.303 90.9201 104.061C89.587 105.487 88.6096 107.563 89.1256 109.5C89.1575 109.6 89.2219 109.687 89.3095 109.749C89.3971 109.811 89.5031 109.844 89.612 109.844C89.7209 109.844 89.8269 109.811 89.9145 109.749C90.002 109.687 90.0665 109.6 90.0984 109.5C90.252 108.254 90.6411 107.046 91.2468 105.933C92.0205 104.945 92.8881 104.028 93.8385 103.193C95.1807 101.821 96.3437 99.9379 95.1835 98.1535C95.1599 98.1165 95.1244 98.0877 95.0823 98.0714C95.0403 98.0551 94.9938 98.0522 94.9499 98.0632C94.906 98.0741 94.8669 98.0983 94.8385 98.1321C94.8101 98.1659 94.7939 98.2076 94.7922 98.251Z" fill="#191919"/>
<path d="M98.4737 77.6243C99.704 77.198 100.849 76.3193 100.648 74.9325C100.506 73.9633 98.976 72.6087 98.056 73.6423C98.0003 73.6982 97.9606 73.7668 97.9405 73.8416C97.9205 73.9164 97.9209 73.9948 97.9416 74.0695C97.9623 74.1441 98.0027 74.2124 98.0589 74.2678C98.1151 74.3232 98.1852 74.364 98.2625 74.3861C98.925 74.5793 99.603 74.5306 99.5211 75.438C99.4618 75.7864 99.3104 76.1146 99.0812 76.3914C98.852 76.6682 98.5527 76.8844 98.2116 77.0196C97.8658 77.1901 98.0978 77.753 98.4737 77.6243Z" fill="#191919"/>
<path d="M89.7257 69.4807C89.5063 70.0655 89.4746 70.6996 89.6347 71.3016C89.6947 71.4888 89.8223 71.6495 89.9948 71.7551C90.1672 71.8607 90.3733 71.9042 90.5762 71.878C90.7791 71.8518 90.9657 71.7575 91.1026 71.6119C91.2395 71.4663 91.3179 71.279 91.3237 71.0833C91.3127 70.464 91.1083 69.862 90.7367 69.3546C90.6789 69.2688 90.5968 69.2004 90.4999 69.1575C90.403 69.1145 90.2954 69.0987 90.1895 69.112C90.0836 69.1252 89.9838 69.1668 89.9017 69.2321C89.8196 69.2974 89.7586 69.3836 89.7257 69.4807Z" fill="#191919"/>
<path d="M101.251 69.1857C101.121 69.3336 101.023 69.5053 100.965 69.6904C100.907 69.8754 100.889 70.0699 100.912 70.2619C100.887 70.6786 100.954 71.0957 101.109 71.4859C101.194 71.6181 101.317 71.7239 101.463 71.7906C101.609 71.8573 101.773 71.8821 101.934 71.862C102.094 71.8418 102.246 71.7776 102.369 71.6771C102.493 71.5765 102.583 71.444 102.629 71.2954C102.684 70.8786 102.647 70.4555 102.521 70.0531C102.498 69.8635 102.434 69.6807 102.333 69.5159C102.233 69.3512 102.097 69.2083 101.936 69.0961C101.826 69.0413 101.701 69.0205 101.578 69.0365C101.456 69.0526 101.341 69.1047 101.251 69.1857Z" fill="#191919"/>
<path d="M100.782 65.5306C102.282 66.9113 102.314 67.8988 103.157 68.2224C103.284 68.2546 103.419 68.238 103.533 68.1762C103.647 68.1144 103.731 68.0123 103.767 67.8918C104.006 66.8478 102.333 65.5141 101.31 64.8764C101.218 64.8304 101.113 64.8167 101.012 64.8378C100.911 64.8588 100.821 64.9132 100.758 64.9914C100.695 65.0695 100.663 65.1665 100.667 65.2651C100.672 65.3638 100.712 65.4578 100.782 65.5306Z" fill="#191919"/>
<path d="M88.4267 69.0394C88.7757 68.4138 89.2146 67.838 89.7308 67.329C90.1858 66.84 90.8 66.4929 90.9638 65.8204C90.9788 65.7624 90.98 65.702 90.9673 65.6435C90.9547 65.585 90.9285 65.53 90.8907 65.4824C90.8529 65.4349 90.8045 65.396 90.749 65.3687C90.6934 65.3413 90.6322 65.3262 90.5698 65.3245C89.7189 65.2323 89.1183 65.9491 88.6588 66.5364C88.1805 67.2022 87.8615 67.9605 87.7242 68.7575C87.6332 69.1429 88.2302 69.4352 88.4267 69.0394Z" fill="#191919"/>
<path d="M93.4298 84.3495C94.9868 84.9437 97.0698 85.5927 98.7305 85.0342C98.8168 85.0088 98.8924 84.9576 98.946 84.8882C98.9997 84.8187 99.0286 84.7347 99.0286 84.6483C99.0286 84.562 98.9997 84.4779 98.946 84.4085C98.8924 84.339 98.8168 84.2879 98.7305 84.2625C97.7013 83.9545 96.3845 84.1355 93.6291 83.6587C93.5343 83.6365 93.4343 83.6506 93.3501 83.6978C93.266 83.745 93.2045 83.8217 93.1785 83.9116C93.1526 84.0015 93.1643 84.0975 93.2112 84.1792C93.2581 84.261 93.3365 84.3221 93.4298 84.3495Z" fill="#191919"/>
<path d="M82.112 97.9047C81.3658 96.8259 80.575 95.4243 79.2418 94.9041C78.9854 94.8154 78.7123 94.7792 78.4403 94.7977C78.1683 94.8161 77.9034 94.8889 77.6626 95.0113C77.4219 95.1337 77.2106 95.303 77.0425 95.5082C76.8743 95.7135 76.7531 95.9502 76.6865 96.203C75.8402 98.6851 78.1871 101.099 80.443 101.958C80.9399 102.149 81.3193 101.443 80.9544 101.118C79.7414 100.038 77.976 99.4246 77.7813 97.6132C77.733 97.1634 77.8122 96.3317 78.3719 96.1342C78.7996 95.9829 79.1981 96.4005 79.4912 96.6188C80.2192 97.1582 81.0045 97.648 81.7134 98.2014C81.9172 98.3597 82.283 98.1526 82.112 97.9047Z" fill="#191919"/>
<path d="M96.0255 102.7C98.3632 102.042 101.783 100.066 101.173 97.2344C101.079 96.658 100.764 96.1355 100.29 95.7675C99.8169 95.3995 99.2176 95.212 98.608 95.2412C97.9828 95.336 97.4002 95.6033 96.9318 96.0103C96.4145 96.3636 95.924 96.7514 95.464 97.1709C95.3937 97.2424 95.3465 97.3318 95.328 97.4284C95.3096 97.5249 95.3207 97.6245 95.36 97.7152C95.3993 97.8059 95.4651 97.8838 95.5496 97.9395C95.634 97.9953 95.7336 98.0266 95.8362 98.0296C96.1366 98.0593 96.4399 98.0168 96.7188 97.9061C96.9977 97.7953 97.2432 97.6198 97.4332 97.3954C97.8318 97.0717 98.4133 96.4471 99.033 96.6176C99.7055 96.8029 99.852 97.6042 99.7392 98.1557C99.4079 99.7879 97.2894 101.519 95.8526 102.31C95.8068 102.337 95.7726 102.378 95.7562 102.427C95.7398 102.476 95.7423 102.529 95.7633 102.576C95.7842 102.623 95.8222 102.662 95.8703 102.684C95.9185 102.707 95.9735 102.713 96.0255 102.7Z" fill="#191919"/>
<path d="M142.294 124.274C141.17 121.52 139.042 119.3 136.897 117.234C126.802 107.512 115.33 96.7789 100.825 95.1816C100.515 95.1451 100.448 95.6401 100.753 95.7036C113.831 98.4763 123.888 106.985 133.124 115.768C137.406 119.842 142.875 124.389 141.23 130.819C139.964 135.769 134.791 141.754 131.012 145.379C124.047 152.059 119.14 153.988 114.632 156.602C116.983 146.558 117.627 136.217 116.537 125.978C118.141 127.689 119.975 129.189 121.991 130.44C120.707 131.244 117.745 135.346 117.771 137.96C117.774 138.071 117.813 138.179 117.885 138.266C117.956 138.354 118.055 138.417 118.167 138.447C118.28 138.476 118.399 138.47 118.507 138.429C118.615 138.389 118.706 138.316 118.768 138.221C119.197 137.563 119.437 136.789 119.822 136.1C122.461 131.382 122.685 132.111 123.235 131.103C125.246 132.084 127.799 133.041 130.037 132.539C130.104 132.521 130.164 132.485 130.21 132.435C130.256 132.385 130.285 132.323 130.295 132.257C130.305 132.192 130.294 132.124 130.264 132.064C130.235 132.004 130.187 131.954 130.128 131.919C128.047 130.933 125.665 130.667 123.537 129.721C120.966 128.376 118.573 126.74 116.41 124.849C115.98 121.324 115.286 117.833 114.333 114.403C114.242 114.064 113.736 114.213 113.793 114.546C119.459 147.775 109.564 164.933 109.477 169.146C109.479 169.236 109.512 169.323 109.571 169.394C109.629 169.465 109.71 169.516 109.801 169.539C109.892 169.562 109.989 169.557 110.077 169.524C110.164 169.491 110.239 169.431 110.288 169.354C110.782 168.672 112.639 164.549 114.283 158.05C117.395 156.795 120.358 155.225 123.119 153.365C128.398 149.919 133.076 145.698 136.98 140.859C140.959 135.937 144.664 130.075 142.294 124.274Z" fill="#191919"/>
<path d="M127.542 83.9961C128.932 83.9213 130.427 84.9444 129.646 86.3703C128.966 87.6127 127.715 87.4143 126.605 86.8688C125.337 86.2485 123.396 85.5986 122.565 87.202C122.536 87.2735 122.525 87.3502 122.531 87.4265C122.538 87.5029 122.562 87.5768 122.603 87.6428C122.643 87.7088 122.699 87.7652 122.766 87.8078C122.832 87.8503 122.908 87.8779 122.987 87.8885C123.643 88.0242 124.239 87.6423 124.885 87.8015C125.419 88.0074 125.936 88.2517 126.432 88.5323C130.095 90.0287 132.63 86.2155 130.878 83.9717C130.687 83.704 130.44 83.4771 130.152 83.3053C129.865 83.1336 129.543 83.0207 129.208 82.9738C128.872 82.927 128.53 82.9472 128.204 83.0331C127.877 83.1191 127.572 83.2689 127.309 83.4732C127.259 83.5146 127.224 83.57 127.209 83.6316C127.194 83.6932 127.2 83.7577 127.226 83.8159C127.252 83.8741 127.296 83.9228 127.353 83.9552C127.41 83.9876 127.476 84.0019 127.542 83.9961Z" fill="#E54A2B"/>
<path d="M120.821 88.9131C120.985 88.8436 121.113 88.7153 121.178 88.5561C121.243 88.397 121.24 88.2196 121.17 88.0625C121.1 87.9053 120.967 87.781 120.802 87.7163C120.636 87.6517 120.451 87.6519 120.285 87.7169C120.122 87.7865 119.994 87.9147 119.929 88.0739C119.864 88.2331 119.866 88.4104 119.937 88.5675C120.007 88.7247 120.14 88.849 120.305 88.9137C120.471 88.9784 120.656 88.9782 120.821 88.9131Z" fill="#E54A2B"/>
<path d="M60.4878 38.4053C60.4523 38.1218 60.4785 37.8344 60.5649 37.5611C60.6513 37.2878 60.796 37.0345 60.9898 36.8173C61.1836 36.6001 61.4223 36.4235 61.691 36.2989C61.9596 36.1742 62.2524 36.104 62.5508 36.0929C64.146 36.1946 64.3453 37.6206 64.1988 38.8508C64.0286 40.2863 63.7092 43.6114 66.0889 43.5931C66.2141 43.5914 66.3367 43.5586 66.4446 43.4978C66.5525 43.4371 66.642 43.3506 66.7043 43.2467C66.7667 43.1429 66.7997 43.0253 66.8001 42.9056C66.8005 42.7859 66.7684 42.6682 66.7068 42.5639C66.2818 41.8549 65.8204 41.506 65.7968 40.6151C65.7777 39.8156 66.0224 39.0352 66.0488 38.2383C66.1149 37.5422 65.962 36.8431 65.6097 36.2306C65.2574 35.6182 64.7217 35.1203 64.0714 34.8009C63.5075 34.5254 62.8699 34.4186 62.2416 34.4945C61.6133 34.5703 61.0234 34.8253 60.5488 35.2261C60.0742 35.627 59.7369 36.1552 59.5807 36.742C59.4246 37.3287 59.4569 37.9468 59.6734 38.5158C59.8199 38.9021 60.5361 38.8812 60.4878 38.4053Z" fill="#E54A2B"/>
<path d="M68.0922 45.0751C68.2912 45.0686 68.4798 44.9884 68.6181 44.8515C68.7565 44.7146 68.8338 44.5316 68.8338 44.3413C68.8338 44.1509 68.7565 43.968 68.6181 43.8311C68.4798 43.6942 68.2912 43.614 68.0922 43.6074C67.8932 43.614 67.7046 43.6942 67.5663 43.8311C67.4279 43.968 67.3506 44.1509 67.3506 44.3413C67.3506 44.5316 67.4279 44.7146 67.5663 44.8515C67.7046 44.9884 67.8932 45.0686 68.0922 45.0751Z" fill="#E54A2B"/>
<path d="M45.8981 90.3657C45.6876 90.162 45.5565 89.8954 45.5269 89.6105C45.4973 89.3255 45.5709 89.0395 45.7354 88.8002C45.9 88.5609 46.1454 88.3828 46.4308 88.2958C46.7161 88.2088 47.0241 88.2181 47.3032 88.3221C49.5545 88.9563 48.286 92.1283 50.4882 93.4655C52.5639 94.7305 53.7159 92.5155 52.4128 92.2118C51.5529 92.0117 51.1324 91.943 50.8658 91.0199C50.6501 90.2552 50.53 87.2981 46.9792 86.6273C46.3641 86.5559 45.7427 86.6991 45.2291 87.0306C44.7156 87.3621 44.3444 87.8596 44.1837 88.4317C44.0231 88.9342 44.0614 89.4756 44.2913 89.9529C44.5212 90.4301 44.9266 90.8099 45.4304 91.0199C45.5207 91.061 45.6234 91.0699 45.7199 91.045C45.8165 91.0201 45.9005 90.963 45.957 90.8841C46.0134 90.8052 46.0385 90.7096 46.0277 90.6145C46.0169 90.5195 45.9709 90.4312 45.8981 90.3657Z" fill="#E54A2B"/>
<path d="M54.5695 92.8464C54.4566 92.9282 54.2337 93.0822 54.19 93.1883C54.1348 93.299 54.109 93.4211 54.1151 93.5437C54.1212 93.6662 54.1589 93.7854 54.2248 93.8906C54.2908 93.9959 54.3829 94.0839 54.4931 94.1469C54.6032 94.2098 54.7279 94.2457 54.8561 94.2514C54.9861 94.2758 55.1203 94.2692 55.2469 94.2322C55.3736 94.1953 55.4888 94.1292 55.5825 94.0397C55.6762 93.9502 55.7454 93.8401 55.7841 93.719C55.8228 93.5979 55.8297 93.4696 55.8044 93.3454C55.779 93.2211 55.7221 93.1047 55.6387 93.0064C55.5552 92.9081 55.4478 92.8309 55.3258 92.7816C55.2039 92.7324 55.0711 92.7125 54.9392 92.7238C54.8073 92.7351 54.6803 92.7772 54.5695 92.8464Z" fill="#E54A2B"/>
<path d="M31.2856 74.4585C31.2747 73.8156 31.4585 73.0465 32.2921 73.0056C33.2021 72.9595 33.375 73.8826 33.6343 74.5072C34.6553 76.9641 36.7392 75.8818 35.9493 75.1336C35.5194 74.7965 35.1768 74.369 34.9483 73.8843C34.8062 73.4634 34.6187 73.0579 34.3887 72.6741C34.1576 72.3458 33.8426 72.0794 33.4736 71.9002C33.1046 71.721 32.6938 71.6349 32.2802 71.6502C31.9041 71.6591 31.5367 71.7608 31.2137 71.9453C30.8908 72.1299 30.6232 72.3912 30.4369 72.7037C30.2506 73.0163 30.1519 73.3695 30.1504 73.7292C30.1489 74.089 30.2447 74.443 30.4284 74.7569C30.4888 74.8369 30.5749 74.8959 30.6735 74.9248C30.7721 74.9538 30.878 74.9512 30.975 74.9175C31.0719 74.8837 31.1547 74.8206 31.2108 74.7378C31.2669 74.655 31.2931 74.5569 31.2856 74.4585Z" fill="#E54A2B"/>
<path d="M37.9818 77.0565C38.1677 77.0832 38.3571 77.0394 38.5096 76.9343C38.6622 76.8293 38.7657 76.6714 38.798 76.4943C38.8303 76.3173 38.7889 76.1352 38.6827 75.9869C38.5764 75.8387 38.4137 75.7361 38.2293 75.701C38.0434 75.6743 37.8539 75.7181 37.7014 75.8232C37.5489 75.9282 37.4454 76.0861 37.4131 76.2632C37.3807 76.4402 37.4221 76.6223 37.5284 76.7706C37.6347 76.9188 37.7974 77.0214 37.9818 77.0565Z" fill="#E54A2B"/>
<path d="M116.557 30.937C118.161 31.7139 118.409 33.44 116.642 34.1908C115.613 34.6258 114.61 35.073 114.403 36.2258C114.238 37.1558 115.376 37.2176 115.542 37.0662C115.969 36.6799 115.906 36.1884 116.432 35.8482C116.826 35.5872 117.314 35.4671 117.725 35.2392C120.352 33.7663 119.488 30.2088 116.774 30.1758C116.681 30.1785 116.592 30.2095 116.52 30.2642C116.447 30.3189 116.395 30.3945 116.371 30.4797C116.346 30.565 116.351 30.6555 116.385 30.7378C116.418 30.8201 116.479 30.89 116.557 30.937Z" fill="#E54A2B"/>
<path d="M114.938 39.4116C115.096 39.4116 115.247 39.3518 115.358 39.2452C115.47 39.1387 115.532 38.9942 115.532 38.8435C115.532 38.6928 115.47 38.5483 115.358 38.4418C115.247 38.3352 115.096 38.2754 114.938 38.2754C114.78 38.2754 114.629 38.3352 114.518 38.4418C114.406 38.5483 114.344 38.6928 114.344 38.8435C114.344 38.9942 114.406 39.1387 114.518 39.2452C114.629 39.3518 114.78 39.4116 114.938 39.4116Z" fill="#E54A2B"/>
<path d="M146.942 68.8263C147.124 68.8215 147.304 68.8591 147.467 68.936C147.63 69.0128 147.771 69.1265 147.878 69.2673C147.985 69.408 148.054 69.5715 148.08 69.7436C148.105 69.9157 148.087 70.0912 148.025 70.2548C147.889 70.5572 147.673 70.8211 147.4 71.0216C147.127 71.2222 146.804 71.3526 146.464 71.4006C145.34 71.5172 144.412 70.8951 143.394 71.6877C143.277 71.771 143.191 71.888 143.149 72.0216C143.106 72.1551 143.11 72.2981 143.159 72.4296C143.207 72.5611 143.299 72.6742 143.42 72.7522C143.541 72.8302 143.685 72.8691 143.831 72.8631C144.395 72.8088 144.965 72.8164 145.527 72.8857C145.98 72.982 146.448 72.9938 146.906 72.9205C147.423 72.8106 147.908 72.5955 148.33 72.29C148.752 71.9845 149.1 71.5957 149.351 71.15C150.208 69.4918 148.753 67.2577 146.755 67.9554C146.649 67.9928 146.562 68.065 146.507 68.159C146.453 68.253 146.435 68.3625 146.458 68.4677C146.48 68.573 146.542 68.667 146.631 68.7327C146.72 68.7985 146.83 68.8317 146.942 68.8263Z" fill="#E54A2B"/>
<path d="M142.142 73.8044C142.301 73.7456 142.43 73.6299 142.501 73.4818C142.572 73.3337 142.58 73.1649 142.523 73.0113C142.466 72.8576 142.349 72.7312 142.196 72.6589C142.044 72.5865 141.867 72.5739 141.705 72.6238C141.546 72.6826 141.417 72.7983 141.346 72.9464C141.275 73.0945 141.267 73.2633 141.324 73.4169C141.38 73.5706 141.498 73.697 141.651 73.7693C141.803 73.8417 141.979 73.8542 142.142 73.8044Z" fill="#E54A2B"/>
<path d="M56.2461 67.9648C58.7194 64.1716 51.6533 61.2711 50.4858 65.0764C50.3325 65.585 50.3064 66.1209 50.4094 66.6408C50.5125 67.1608 50.7419 67.6504 51.0791 68.0701C51.381 68.4581 51.7756 68.7714 52.23 68.9838C52.6843 69.1963 53.1853 69.3018 53.691 69.2915C54.1966 69.2812 54.6924 69.1554 55.1369 68.9246C55.5814 68.6938 55.9617 68.3647 56.2461 67.9648Z" fill="#E54A2B"/>
<path d="M42.6589 61.5037C39.9634 59.7994 37.1361 57.2668 37.9414 53.8477C38.6303 50.9262 42.789 46.5484 39.8269 43.4703C38.9142 42.5878 37.6868 42.067 36.3899 42.0122C31.1701 41.6642 29.554 47.0869 31.1537 50.8714C31.2156 51.0228 31.6087 51.7745 31.444 51.9276C31.4131 51.958 25.3097 51.6153 25.074 51.5004C24.619 51.2777 23.618 47.441 24.5025 44.2559C24.963 42.5908 25.7875 38.7471 30.8116 36.7122C34.7746 35.107 39.584 35.2036 42.9874 37.7205C44.6766 39.0063 45.9496 40.724 46.6583 42.674C47.3671 44.624 47.4826 46.7262 46.9914 48.7364C46.4608 50.7505 44.6681 53.8494 46.1969 56.1715C47.2707 57.8018 50.9881 60.1508 51.0272 60.2605C50.2448 61.6679 49.187 62.9187 47.9114 63.9449C47.4719 64.2311 43.9529 62.3232 42.6589 61.5037Z" fill="#E54A2B"/>
<path d="M38.0693 57.6934C38.1477 58.7529 38.4071 59.793 38.8374 60.7723C40.6733 62.2315 42.6042 63.5778 44.6186 64.803C45.676 65.3746 46.0646 65.3789 47.1338 64.4306C44.251 63.4223 40.2451 61.1281 38.0693 57.6934Z" fill="#E54A2B"/>
<path d="M37.5693 43.971C38.756 44.7211 39.6302 45.845 40.0399 47.1474C41.2084 46.9282 40.2829 42.9061 36.965 42.472C35.0122 42.2171 33.4051 42.807 33.9384 43.2063C34.2159 43.4133 35.5709 42.9279 37.5693 43.971Z" fill="#E54A2B"/>
<path d="M32.6165 54.4017C32.5856 54.4269 27.1019 54.1102 27.0009 54.0798C26.2947 53.5587 25.7233 52.8892 25.3311 52.1232C25.413 52.0249 31.2861 52.4155 31.5191 52.5094C31.9407 53.1091 32.3078 53.7422 32.6165 54.4017Z" fill="#E54A2B"/>
<path d="M49.3911 67.9843C49.5813 68.4417 49.8793 68.851 50.2619 69.1804C50.6444 69.5098 51.1013 69.7504 51.597 69.8835C53.3023 70.161 54.2706 69.5755 53.9175 69.6033C53.0747 69.6685 52.2326 69.4704 51.5178 69.0387C49.5704 67.9477 50.0263 65.0176 50.0263 65.0176C49.746 65.3671 49.5045 65.7435 49.3056 66.1407C49.1657 66.7519 49.1952 67.3874 49.3911 67.9843Z" fill="#E54A2B"/>
<path d="M91.0639 40.1595C95.1671 39.3895 92.8348 33.1995 89.5169 34.7977C89.0759 35.0128 88.6938 35.3238 88.4014 35.7058C88.109 36.0878 87.9145 36.5301 87.8334 36.997C87.7519 37.4229 87.7783 37.8612 87.9105 38.2753C88.0427 38.6894 88.2769 39.0672 88.5933 39.3769C88.9097 39.6866 89.2991 39.9193 89.729 40.0555C90.1589 40.1917 90.6166 40.2273 91.0639 40.1595Z" fill="#E54A2B"/>
<path d="M87.1776 27.7263C86.698 25.0024 86.6998 21.6894 89.529 20.1025C90.5465 19.6014 91.6244 19.2216 92.7386 18.9715C94.8571 18.3773 97.5734 17.4473 97.7727 14.9391C97.819 13.8296 97.425 12.7445 96.6698 11.901C93.7205 8.42712 89.0258 10.73 87.416 14.0412C87.3505 14.1726 87.0748 14.8773 86.87 14.8686C86.8291 14.8686 83.3365 10.8475 83.2719 10.6317C83.1499 10.2115 85.1574 7.2387 87.8737 5.8467C89.1915 5.01083 90.7108 4.51071 92.2875 4.39377C93.8641 4.27684 95.4459 4.54697 96.8827 5.17854C100.399 6.6732 103.272 9.73647 103.632 13.3992C103.786 15.2399 103.391 17.0846 102.491 18.7188C101.592 20.3531 100.226 21.7096 98.5517 22.6307C96.789 23.5634 93.6377 24.3011 92.9843 26.6762C92.5293 28.3414 93.1909 32.1007 93.1426 32.1903C91.6997 32.5621 90.1956 32.6658 88.7118 32.4957C88.2532 32.3974 87.4106 29.0348 87.1776 27.7263Z" fill="#E54A2B"/>
<path d="M86.9788 22.5332C86.3025 23.2298 85.7493 24.027 85.3408 24.8935C85.4651 26.9317 85.7249 28.9603 86.1189 30.967C86.3737 31.9779 86.6066 32.2233 87.9107 32.3111C86.5157 29.2306 86.1892 25.804 86.9788 22.5332Z" fill="#E54A2B"/>
<path d="M96.0501 13.8326C96.2623 15.0308 96.0286 16.2622 95.3894 17.3126C96.2576 17.9103 98.4352 14.8662 96.7053 12.5363C95.687 11.1608 94.3038 10.5179 94.3539 11.0938C94.3802 11.3966 95.5432 11.9508 96.0501 13.8326Z" fill="#E54A2B"/>
<path d="M85.9043 17.1129C85.8688 17.1086 82.7338 13.4894 82.6956 13.4093C82.6212 12.6495 82.7298 11.8834 83.0132 11.1699C83.1306 11.1612 86.4503 15.0675 86.5294 15.2694C86.3746 15.8993 86.1655 16.5159 85.9043 17.1129Z" fill="#E54A2B"/>
<path d="M86.8634 35.8905C86.6674 36.2891 86.57 36.7255 86.5787 37.1659C86.5873 37.6062 86.7019 38.0388 86.9134 38.4301C87.7661 39.6637 88.758 39.9134 88.5232 39.7098C87.964 39.2231 87.5856 38.5758 87.4449 37.8654C86.9999 35.9827 89.2821 34.4785 89.2821 34.4785C88.872 34.5169 88.4671 34.5954 88.0737 34.7125C87.5689 34.9966 87.1514 35.4029 86.8634 35.8905Z" fill="#E54A2B"/>
<path d="M123.917 66.4608C128.024 68.7732 130.93 61.8106 126.843 60.7727C126.296 60.637 125.723 60.626 125.171 60.7406C124.619 60.8551 124.103 61.092 123.664 61.4322C123.258 61.7363 122.935 62.129 122.72 62.5773C122.506 63.0256 122.407 63.5165 122.431 64.0089C122.456 64.5014 122.604 64.9809 122.863 65.4075C123.121 65.8341 123.483 66.1952 123.917 66.4608Z" fill="#E54A2B"/>
<path d="M130.446 53.05C132.189 50.3782 134.814 47.5568 138.482 48.2502C141.609 48.84 146.39 52.7829 149.594 49.8162C150.513 48.9032 151.037 47.6917 151.06 46.4249C151.294 41.3319 145.472 39.8999 141.477 41.5529C141.319 41.6199 140.526 42.0192 140.36 41.8652C140.327 41.8357 140.529 35.8814 140.646 35.6517C140.872 35.2063 144.936 34.1266 148.354 34.9009C150.14 35.3046 154.26 36.0075 156.561 40.8482C158.381 44.6666 158.401 49.3542 155.81 52.7385C154.485 54.4196 152.688 55.7063 150.628 56.449C148.568 57.1917 146.33 57.3598 144.174 56.9336C142.013 56.4708 138.663 54.8056 136.229 56.3551C134.521 57.4435 132.114 61.1297 132.002 61.1705C130.477 60.444 129.112 59.4446 127.981 58.2265C127.664 57.8097 129.607 54.3358 130.446 53.05Z" fill="#E54A2B"/>
<path d="M134.384 48.4785C133.257 48.5826 132.156 48.8623 131.123 49.3068C129.617 51.1356 128.233 53.0534 126.98 55.0488C126.398 56.0928 126.404 56.4729 127.444 57.49C128.438 54.6503 130.782 50.6874 134.384 48.4785Z" fill="#E54A2B"/>
<path d="M148.998 47.6268C148.231 48.8043 147.055 49.6863 145.677 50.1185C145.945 51.2573 150.2 50.2264 150.576 46.9978C150.797 45.0838 150.121 43.5396 149.714 44.0677C149.505 44.3391 150.059 45.6528 148.998 47.6268Z" fill="#E54A2B"/>
<path d="M137.753 43.0781C137.726 43.0476 137.916 37.6954 137.947 37.5971C138.484 36.8954 139.183 36.3209 139.988 35.918C140.097 35.9963 139.835 41.7278 139.741 41.9575C139.112 42.3831 138.447 42.7579 137.753 43.0781Z" fill="#E54A2B"/>
<path d="M123.716 59.7803C123.233 59.9777 122.804 60.2791 122.463 60.6611C122.122 61.0431 121.879 61.4952 121.751 61.9822C121.501 63.6492 122.149 64.5792 122.115 64.2355C122.024 63.4156 122.214 62.5895 122.655 61.8813C123.767 59.9551 126.902 60.3223 126.902 60.3223C126.522 60.0586 126.115 59.8332 125.687 59.6498C125.029 59.5296 124.35 59.5746 123.716 59.7803Z" fill="#E54A2B"/>
<path d="M97.7774 120.234C97.013 116.112 96.1121 112.049 95.0201 107.995C94.9091 107.582 94.2657 107.759 94.354 108.169C97.4663 122.462 98.7624 137.061 98.2142 151.651C98.0531 155.74 97.4025 159.865 97.5199 163.952C97.5243 164.077 97.5748 164.197 97.6626 164.289C97.7504 164.382 97.8697 164.442 97.9995 164.459C98.1292 164.476 98.2609 164.448 98.3714 164.381C98.4818 164.314 98.5638 164.212 98.6028 164.092C100.12 158.46 101.068 138.002 97.7774 120.234Z" fill="#191919"/>
<path d="M103.965 124.344C104.161 124.012 104.232 123.625 104.167 123.249C104.1 123.009 103.967 122.791 103.782 122.618C103.597 122.444 103.367 122.322 103.115 122.263C102.309 122.123 101.769 122.883 101.776 123.588C101.755 123.84 101.822 124.091 101.965 124.304C102.108 124.516 102.32 124.678 102.569 124.763C102.818 124.849 103.089 124.855 103.341 124.779C103.593 124.703 103.812 124.55 103.965 124.344Z" fill="#191919"/>
<path d="M104.512 137.965C104.115 137.914 103.712 138.007 103.384 138.226C103.248 138.394 103.151 138.587 103.097 138.793C103.043 138.999 103.033 139.214 103.069 139.423C103.105 139.633 103.186 139.833 103.306 140.012C103.426 140.191 103.583 140.344 103.768 140.462C105.96 141.318 106.093 138.233 104.512 137.965Z" fill="#191919"/>
<path d="M104.983 151.376C104.931 151.207 104.839 151.053 104.716 150.923C104.592 150.794 104.439 150.693 104.268 150.629C104.097 150.565 103.913 150.539 103.731 150.552C103.548 150.566 103.371 150.62 103.213 150.709C102.96 150.913 102.797 151.201 102.758 151.516C102.729 152.446 103.478 153.704 104.578 152.981C104.827 152.798 105.003 152.538 105.076 152.246C105.15 151.954 105.117 151.647 104.983 151.376Z" fill="#191919"/>
<path d="M102.011 45.5556C99.9178 45.9575 98.3217 47.3669 93.9237 48.0934C87.4235 49.1722 81.1627 46.0167 76.7383 49.7464C75.9845 50.3635 75.4179 51.1628 75.0977 52.0609C74.7775 52.9589 74.7156 53.9227 74.9183 54.8515C72.3212 55.2195 69.0124 60.711 72.0527 65.6047C72.6647 66.6797 73.5693 67.5764 74.6708 68.1999C71.2255 69.7781 70.3938 75.5949 74.2103 78.492C75.165 79.2304 76.3005 79.7244 77.51 79.9275C77.5218 80.6235 79.1571 89.8673 79.2781 90.5311C79.458 91.989 79.7438 93.4333 80.1335 94.8532C80.1778 94.9822 80.2679 95.0922 80.3882 95.1642C80.5086 95.2361 80.6515 95.2655 80.7921 95.2472C80.9327 95.2289 81.0622 95.1641 81.158 95.064C81.2538 94.9639 81.3099 94.8348 81.3165 94.6993C81.2017 93.3894 80.9916 92.0888 80.6877 90.8069C80.6049 90.3562 78.7394 80.3669 78.5947 79.9388C78.9194 79.9049 79.2364 79.8218 79.5338 79.6926C79.6552 79.6228 79.7526 79.5206 79.8141 79.3985C79.8756 79.2765 79.8985 79.14 79.8801 79.0057C79.8616 78.8715 79.8026 78.7452 79.7102 78.6425C79.6178 78.5399 79.4961 78.4652 79.36 78.4277C77.9477 78.0101 76.6419 78.0944 75.4043 77.1488C72.4868 74.9137 73.3113 70.2853 76.1323 69.4814C76.661 70.12 77.379 70.7168 77.7875 71.2841C78.3801 72.2524 78.9152 73.2519 79.39 74.2777C79.9515 75.2887 81.5923 75.4514 82.6588 75.4088C82.7461 75.4075 82.8319 75.3872 82.9098 75.3494C82.9877 75.3117 83.0555 75.2574 83.1082 75.1908C83.1608 75.1242 83.1969 75.047 83.2136 74.9651C83.2304 74.8831 83.2273 74.7986 83.2048 74.718C82.2289 71.9318 81.5702 69.0531 81.2401 66.1319C82.4713 65.8517 83.6187 65.3048 84.5939 64.5336C85.5691 63.7623 86.346 62.7873 86.8648 61.6836C93.2084 65.0723 100.197 64.4119 104.756 61.4487C104.434 67.2273 104.678 73.0423 104.58 78.8235C104.498 83.8121 104.847 86.2272 103.371 87.9376C101.164 90.4972 97.7165 89.9325 94.7436 89.3C96.4407 87.821 96.8056 87.413 96.903 86.911C96.9308 86.7156 96.911 86.5167 96.8451 86.3298C96.7793 86.143 96.6692 85.9731 96.5234 85.8336C96.3777 85.6941 96.2002 85.5886 96.0048 85.5255C95.8094 85.4623 95.6014 85.4431 95.397 85.4694C94.5161 85.492 93.668 86.0323 90.6031 87.5618C89.8751 86.8997 88.7121 86.871 86.6418 84.9518C86.4808 84.8047 86.205 84.9953 86.327 85.1815C86.8169 85.9587 87.4331 86.6565 88.1524 87.2486C88.5511 87.587 88.9843 87.8863 89.4456 88.1421C84.2185 90.8304 84.6116 92.5373 83.4095 98.482C82.9667 100.242 82.6805 102.034 82.5541 103.839C82.5541 103.956 82.7416 104.02 82.7989 103.901C84.5188 100.334 84.9966 94.3948 86.2624 92.2241C87.2097 90.605 89.1134 89.8612 92.8335 87.9115C93.2985 87.667 95.3342 86.4595 95.6545 86.6561C96.1732 86.9815 95.5407 87.4182 95.3278 87.627C93.2211 89.6889 90.7259 91.388 88.6912 93.5169C88.6216 93.5899 88.5842 93.6856 88.5866 93.7843C88.5889 93.8829 88.631 93.9769 88.704 94.0467C88.777 94.1165 88.8753 94.1567 88.9785 94.1589C89.0817 94.1612 89.1818 94.1254 89.2581 94.0589C90.7023 92.8723 92.0836 91.6029 93.496 90.3815C94.9202 90.8928 96.417 91.1958 97.9359 91.2802C97.9117 91.685 97.9374 92.0912 98.0123 92.4903C98.0039 92.8511 98.0846 93.2087 98.2479 93.534C98.4113 93.8593 98.6526 94.1432 98.9523 94.3626C99.0904 94.4358 99.2527 94.4552 99.4054 94.4166C99.5581 94.378 99.6892 94.2844 99.7713 94.1555C100.016 93.5221 100.009 92.825 99.7513 92.1963C99.6912 91.8839 99.6749 91.5655 99.6212 91.2602C100.93 91.1569 102.191 90.7378 103.285 90.0421C106.066 88.2151 106.197 85.1528 106.131 82.2122C105.79 67.8571 105.829 64.3284 105.57 60.8711C113.508 54.8237 108.745 44.2645 102.011 45.5556ZM103.764 48.0847C103.056 49.7237 101.255 50.4563 99.5629 50.9383C97.6996 51.4247 95.7559 51.565 93.8372 51.3515C93.6725 51.3431 93.5174 51.2747 93.4039 51.1602C93.2904 51.0458 93.2272 50.8941 93.2272 50.7364C93.2272 50.5787 93.2904 50.427 93.4039 50.3126C93.5174 50.1982 93.6725 50.1297 93.8372 50.1213C95.5251 50.0684 97.1851 49.6946 98.7203 49.0216C100.102 48.4379 101.341 47.4139 102.852 47.2094C103.333 47.1451 104.012 47.5192 103.764 48.0847Z" fill="#191919"/>
<path d="M88.9433 111.866C85.7583 110.397 81.5996 107.759 80.6996 104.471C80.6572 104.336 80.5747 104.216 80.4622 104.124C80.3497 104.033 80.212 103.974 80.0655 103.956C79.9191 103.937 79.7703 103.96 79.6369 104.02C79.5035 104.081 79.3913 104.177 79.3137 104.297C71.1965 116.929 66.8522 125.057 64.2077 129.66C61.8563 127.84 61.4777 126.585 60.545 125.593C60.1655 125.191 59.5749 125.625 59.6659 126.082C60.0454 127.979 62.0319 129.577 63.7609 130.438C62.9245 131.861 62.2515 133.365 61.7534 134.926C61.5996 135.454 62.3058 135.651 62.6134 135.274C64.4143 133.032 67.6266 125.761 76.2324 111.926C77.4983 115.721 81.909 118.11 85.7438 118.919C86.8358 119.148 87.2999 117.546 86.207 117.316C84.2158 116.912 82.355 116.058 80.7806 114.824C79.2081 113.567 78.34 111.946 77.1879 110.398C77.9997 109.107 78.8572 107.763 79.7605 106.364C80.9608 109.047 84.9967 112.067 88.2763 112.636C87.6995 121.459 85.3719 130.095 81.4176 138.086C77.9105 145.046 71.5896 152.574 62.5579 151.671C48.4265 150.248 41.6024 126.062 54.0312 112.095C60.6105 104.7 69.7096 101.803 75.7902 98.2004C75.8651 98.1571 75.9211 98.0894 75.948 98.0098C75.975 97.9301 75.971 97.8439 75.9368 97.7669C75.9027 97.6898 75.8406 97.6271 75.762 97.5903C75.6835 97.5534 75.5936 97.5449 75.509 97.5662C68.9333 99.5324 59.4102 104.464 54.0676 109.84C51.1179 112.892 48.8872 116.513 47.526 120.459C46.1648 124.405 45.7048 128.584 46.177 132.714C47.4191 145.275 54.731 152.637 62.921 153.295C62.8108 155.264 63.0258 157.237 63.558 159.142C63.8746 160.295 65.7647 165.912 66.2789 166.998C66.6284 167.96 67.2112 168.83 67.9797 169.535C68.4074 169.846 69.2018 169.482 69.0389 168.926C68.2272 166.12 66.0577 165.651 64.154 153.344C70.0253 153.331 76.2133 149.898 80.8634 142.505C86.4554 133.615 89.3264 122.83 89.7041 112.517C89.7111 112.423 89.6956 112.329 89.6586 112.241C89.6216 112.154 89.5642 112.076 89.4908 112.013C89.4173 111.95 89.3298 111.904 89.2349 111.879C89.14 111.854 89.0402 111.849 88.9433 111.866Z" fill="#191919"/>
</svg>
