<svg width="13" height="14" viewBox="0 0 13 14" fill="none" xmlns="http://www.w3.org/2000/svg">
<path d="M12.4016 6.99961C12.4016 8.56439 11.78 10.0651 10.6735 11.1715C9.56703 12.278 8.06634 12.8996 6.50156 12.8996C4.93678 12.8996 3.4361 12.278 2.32963 11.1715C1.22317 10.0651 0.601562 8.56439 0.601562 6.99961C0.601562 5.43483 1.22317 3.93414 2.32963 2.82768C3.4361 1.72121 4.93679 1.09961 6.50156 1.09961C8.06634 1.09961 9.56703 1.72121 10.6735 2.82768C11.78 3.93414 12.4016 5.43483 12.4016 6.99961ZM7.4208 4.71885C7.6646 4.47505 7.80156 4.14439 7.80156 3.79961C7.80156 3.45483 7.6646 3.12417 7.4208 2.88037C7.177 2.63657 6.84634 2.49961 6.50156 2.49961C6.15678 2.49961 5.82612 2.63657 5.58232 2.88037C5.33853 3.12417 5.20156 3.45483 5.20156 3.79961C5.20156 4.14439 5.33853 4.47505 5.58232 4.71885C5.82612 4.96264 6.15678 5.09961 6.50156 5.09961C6.84634 5.09961 7.177 4.96264 7.4208 4.71885ZM5.70156 5.69961C5.35678 5.69961 5.02612 5.83657 4.78232 6.08037C4.53853 6.32417 4.40156 6.65483 4.40156 6.99961C4.40156 7.34439 4.53853 7.67505 4.78232 7.91885C4.90357 8.04009 5.0463 8.13491 5.20156 8.19961V10.1996C5.20156 10.5444 5.33853 10.8751 5.58232 11.1188C5.82612 11.3626 6.15678 11.4996 6.50156 11.4996H7.30156C7.64634 11.4996 7.977 11.3626 8.2208 11.1188C8.4646 10.8751 8.60156 10.5444 8.60156 10.1996C8.60156 9.85483 8.4646 9.52417 8.2208 9.28037C8.09956 9.15913 7.95683 9.0643 7.80156 8.99961V6.99961C7.80156 6.65483 7.6646 6.32417 7.4208 6.08037C7.177 5.83657 6.84634 5.69961 6.50156 5.69961H5.70156Z" fill="#EF4444" stroke="#EF4444"/>
</svg>
