<svg width="157" height="32" viewBox="0 0 157 32" fill="none" xmlns="http://www.w3.org/2000/svg">
<path fill-rule="evenodd" clip-rule="evenodd" d="M103.069 11.5757C103.069 3.66756 107.966 0 114.329 0C118.424 0 121.643 1.6495 123.511 4.7068C125.389 1.6495 128.597 0 132.702 0C139.076 0 143.952 3.67159 143.952 11.5757V31.3847H137.631V11.5757C137.631 7.33915 135.267 5.597 132.154 5.597C129.04 5.597 126.666 7.38648 126.666 11.5757V31.3847H120.345V11.5757C120.345 7.38648 117.97 5.597 114.868 5.597C111.754 5.597 109.38 7.33915 109.38 11.5757V31.3847H103.059V11.5757H103.069Z" fill="#E54A2B"/>
<path fill-rule="evenodd" clip-rule="evenodd" d="M156.214 0.609375H149.893V31.3838H156.214V0.609375Z" fill="#E54A2B"/>
<path fill-rule="evenodd" clip-rule="evenodd" d="M64.4541 16.0025C64.4541 6.77622 71.5669 0 81.6452 0C91.7128 0 98.8257 6.77622 98.8257 15.9975C98.8257 25.2198 91.7128 32 81.6452 32C71.5669 32 64.4541 25.2238 64.4541 15.9975M92.4094 15.9975C92.4094 9.9725 88.0615 5.597 81.6452 5.597C75.2289 5.597 70.881 9.9725 70.881 15.9975C70.881 22.0235 75.2289 26.4453 81.6452 26.4453C88.072 26.4453 92.4094 22.0235 92.4094 15.9975Z" fill="#E54A2B"/>
<path fill-rule="evenodd" clip-rule="evenodd" d="M26.7295 16.0025C26.7295 6.77622 33.8423 0 43.91 0C53.9882 0 61.101 6.77622 61.101 15.9975C61.101 25.2198 53.9882 32 43.91 32C33.8423 32 26.7295 25.2238 26.7295 15.9975M54.6847 15.9975C54.6847 9.9725 50.3368 5.597 43.9205 5.597C37.5042 5.597 33.1458 9.9725 33.1458 15.9975C33.1458 22.0235 37.4937 26.4453 43.9205 26.4453C50.3368 26.4453 54.6847 22.0235 54.6847 15.9975Z" fill="#E54A2B"/>
<path fill-rule="evenodd" clip-rule="evenodd" d="M12.5768 16.0156L8.52441 19.8785L18.381 31.3908H26.5281L12.5768 16.0156Z" fill="#E54A2B"/>
<path fill-rule="evenodd" clip-rule="evenodd" d="M12.5768 15.9845L8.52441 12.1216L18.381 0.609375H26.5281L12.5768 15.9845Z" fill="#E54A2B"/>
<path fill-rule="evenodd" clip-rule="evenodd" d="M6.52836 0.609375H0.207031V31.3838H6.52836V0.609375Z" fill="#E54A2B"/>
</svg>
