<svg width="264" height="57" viewBox="0 0 264 57" fill="none" xmlns="http://www.w3.org/2000/svg">
<path fill-rule="evenodd" clip-rule="evenodd" d="M173.983 20.6042C173.983 6.52811 182.265 0 193.029 0C199.954 0 205.399 2.93604 208.558 8.37792C211.735 2.93604 217.162 0 224.105 0C234.887 0 243.133 6.53528 243.133 20.6042V55.8636H232.441V20.6042C232.441 13.0634 228.443 9.96245 223.177 9.96245C217.911 9.96245 213.895 13.1476 213.895 20.6042V55.8636H203.203V20.6042C203.203 13.1476 199.187 9.96245 193.939 9.96245C188.673 9.96245 184.657 13.0634 184.657 20.6042V55.8636H173.965V20.6042H173.983Z" fill="#D80D1D"/>
<path fill-rule="evenodd" clip-rule="evenodd" d="M263.876 1.08691H253.184V55.8643H263.876V1.08691Z" fill="#D80D1D"/>
<path fill-rule="evenodd" clip-rule="evenodd" d="M108.668 28.4839C108.668 12.0614 120.699 0 137.745 0C154.774 0 166.805 12.0614 166.805 28.4749C166.805 44.8902 154.774 56.9588 137.745 56.9588C120.699 56.9588 108.668 44.8974 108.668 28.4749M155.952 28.4749C155.952 17.7507 148.598 9.96245 137.745 9.96245C126.893 9.96245 119.539 17.7507 119.539 28.4749C119.539 39.2009 126.893 47.0716 137.745 47.0716C148.616 47.0716 155.952 39.2009 155.952 28.4749Z" fill="#D80D1D"/>
<path fill-rule="evenodd" clip-rule="evenodd" d="M44.8594 28.4839C44.8594 12.0614 56.8902 0 73.919 0C90.9657 0 102.996 12.0614 102.996 28.4749C102.996 44.8902 90.9657 56.9588 73.919 56.9588C56.8902 56.9588 44.8594 44.8974 44.8594 28.4749M92.1438 28.4749C92.1438 17.7507 84.7896 9.96245 73.9369 9.96245C63.0841 9.96245 55.7121 17.7507 55.7121 28.4749C55.7121 39.2009 63.0663 47.0716 73.9369 47.0716C84.7896 47.0716 92.1438 39.2009 92.1438 28.4749Z" fill="#D80D1D"/>
<path fill-rule="evenodd" clip-rule="evenodd" d="M20.9198 28.5059L14.0654 35.3817L30.7372 55.873H44.5174L20.9198 28.5059Z" fill="#D80D1D"/>
<path fill-rule="evenodd" clip-rule="evenodd" d="M20.9198 28.4541L14.0654 21.5782L30.7372 1.08691H44.5174L20.9198 28.4541Z" fill="#D80D1D"/>
<path fill-rule="evenodd" clip-rule="evenodd" d="M10.6921 1.08691H0V55.8643H10.6921V1.08691Z" fill="#D80D1D"/>
</svg>
