<svg width="24" height="23" viewBox="0 0 24 23" fill="none" xmlns="http://www.w3.org/2000/svg">
<path d="M11.5923 6.89821L11.935 6.53414C11.8706 6.47351 11.8214 6.40311 11.7888 6.3279C11.7561 6.25279 11.7401 6.17347 11.7409 6.09427C11.7416 6.01507 11.759 5.93593 11.7931 5.86121L11.3383 5.65363L11.7931 5.8612C11.8273 5.78639 11.8779 5.71663 11.9435 5.65692L11.9436 5.65698L11.9499 5.65104L13.7466 3.95971C14.5556 3.2257 15.6441 2.81509 16.7794 2.82437C17.9161 2.83367 18.9979 3.26309 19.7932 4.01169C20.5875 4.75937 21.032 5.76426 21.0416 6.80794C21.0513 7.85025 20.6265 8.86068 19.8484 9.62057L16.2517 13.0062C16.2517 13.0062 16.2517 13.0062 16.2517 13.0063C15.4473 13.7632 14.3504 14.1932 13.2008 14.1932C12.0528 14.1932 10.9574 13.7644 10.1534 13.0095C10.031 12.8888 9.96893 12.7343 9.97035 12.5804C9.97178 12.4252 10.0377 12.2703 10.1645 12.1509C10.2923 12.0306 10.4712 11.9576 10.664 11.956C10.8555 11.9545 11.0349 12.0236 11.165 12.1407C11.7105 12.6521 12.4429 12.9345 13.2008 12.9345C13.9603 12.9345 14.6944 12.6509 15.2402 12.1372L15.2403 12.1372L18.8372 8.75125C19.1139 8.49895 19.3364 8.19585 19.4903 7.85857C19.6449 7.51984 19.7267 7.15431 19.7302 6.78355C19.7336 6.41279 19.6585 6.04587 19.5101 5.70452C19.3618 5.36326 19.1436 5.0553 18.87 4.79775C18.5965 4.54025 18.2729 4.33813 17.9188 4.20176C17.5647 4.0654 17.1863 3.9971 16.8053 4.00022C16.4244 4.00334 16.0472 4.07781 15.6956 4.22C15.3453 4.36162 15.0265 4.568 14.7583 4.82859L12.9613 6.52014L12.9612 6.52008L12.955 6.52614C12.8918 6.58773 12.8146 6.63841 12.727 6.67381C12.6394 6.70923 12.5442 6.72824 12.4472 6.72903C12.3501 6.72983 12.2545 6.71238 12.1661 6.67835C12.0778 6.64433 11.9995 6.59483 11.935 6.53414L11.5923 6.89821ZM8.76132 10.4737L8.76127 10.4737L5.16428 13.8596C4.88768 14.1119 4.66517 14.415 4.51126 14.7523C4.35669 15.091 4.27482 15.4566 4.2714 15.8273C4.26798 16.1981 4.34308 16.565 4.49145 16.9063C4.63977 17.2476 4.85791 17.5556 5.13152 17.8131C5.40506 18.0706 5.72869 18.2727 6.08279 18.4091C6.43686 18.5455 6.81528 18.6138 7.19623 18.6106C7.57719 18.6075 7.95436 18.533 8.30599 18.3909C8.65623 18.2492 8.97507 18.0429 9.24329 17.7823L11.0403 16.0907L11.0403 16.0908L11.0466 16.0847C11.1097 16.0231 11.187 15.9725 11.2745 15.937C11.3621 15.9016 11.4573 15.8826 11.5544 15.8818C11.6514 15.881 11.7471 15.8985 11.8354 15.9325C11.9238 15.9665 12.0021 16.016 12.0665 16.0767C12.1309 16.1374 12.1801 16.2078 12.2128 16.283C12.2455 16.3581 12.2614 16.4374 12.2607 16.5166C12.26 16.5958 12.2425 16.6749 12.2084 16.7497C12.1743 16.8245 12.1237 16.8942 12.058 16.9539L12.058 16.9539L12.0517 16.9598L10.2517 18.6542L10.2516 18.6542L10.2454 18.6602C9.85012 19.0455 9.37565 19.3543 8.84888 19.5673C8.32208 19.7803 7.75447 19.8928 7.17942 19.8975C6.60436 19.9022 6.03468 19.799 5.5039 19.5946C4.97315 19.3902 4.49288 19.0891 4.0904 18.7102C3.68798 18.3314 3.37149 17.8826 3.1578 17.391C2.94414 16.8994 2.83707 16.3738 2.84196 15.8447C2.84684 15.3155 2.9636 14.7917 3.18637 14.3035C3.40918 13.8153 3.73402 13.3716 4.14353 12.9993L4.14358 12.9993L4.14989 12.9934L7.74984 9.60466C7.74986 9.60464 7.74987 9.60463 7.74989 9.60461C8.55426 8.84769 9.65118 8.41762 10.8008 8.41762C11.9504 8.41762 13.0473 8.84771 13.8517 9.60466L13.8517 9.60472L13.858 9.61049C13.9237 9.6702 13.9743 9.73996 14.0084 9.81478C14.0425 9.8895 14.06 9.96864 14.0607 10.0478C14.0614 10.127 14.0455 10.2064 14.0128 10.2815C13.9801 10.3567 13.9309 10.4271 13.8665 10.4877C13.8021 10.5484 13.7238 10.5979 13.6354 10.6319C13.5471 10.666 13.4514 10.6834 13.3544 10.6826C13.2573 10.6818 13.1621 10.6628 13.0745 10.6274C12.987 10.592 12.9097 10.5413 12.8466 10.4797L12.8466 10.4797L12.8402 10.4737C12.2944 9.96001 11.5603 9.67632 10.8008 9.67632C10.0412 9.67632 9.30715 9.96001 8.76132 10.4737Z" fill="currentColor" stroke="currentColor"/>
</svg>
