<svg width="264" height="77" viewBox="0 0 264 77" fill="none" xmlns="http://www.w3.org/2000/svg">
<path fill-rule="evenodd" clip-rule="evenodd" d="M173.983 20.6042C173.983 6.52811 182.265 0 193.029 0C199.954 0 205.399 2.93604 208.558 8.37792C211.735 2.93604 217.162 0 224.105 0C234.887 0 243.133 6.53528 243.133 20.6042V55.8636H232.441V20.6042C232.441 13.0634 228.443 9.96245 223.177 9.96245C217.911 9.96245 213.895 13.1476 213.895 20.6042V55.8636H203.203V20.6042C203.203 13.1476 199.187 9.96245 193.939 9.96245C188.673 9.96245 184.657 13.0634 184.657 20.6042V55.8636H173.965V20.6042H173.983Z" fill="#D80D1D"/>
<path fill-rule="evenodd" clip-rule="evenodd" d="M263.876 1.08691H253.184V55.8643H263.876V1.08691Z" fill="#D80D1D"/>
<path fill-rule="evenodd" clip-rule="evenodd" d="M108.668 28.4839C108.668 12.0614 120.699 0 137.745 0C154.774 0 166.805 12.0614 166.805 28.4749C166.805 44.8902 154.774 56.9588 137.745 56.9588C120.699 56.9588 108.668 44.8974 108.668 28.4749M155.952 28.4749C155.952 17.7507 148.598 9.96245 137.745 9.96245C126.893 9.96245 119.539 17.7507 119.539 28.4749C119.539 39.2009 126.893 47.0716 137.745 47.0716C148.616 47.0716 155.952 39.2009 155.952 28.4749Z" fill="#D80D1D"/>
<path fill-rule="evenodd" clip-rule="evenodd" d="M44.8594 28.4839C44.8594 12.0614 56.8902 0 73.919 0C90.9657 0 102.996 12.0614 102.996 28.4749C102.996 44.8902 90.9657 56.9588 73.919 56.9588C56.8902 56.9588 44.8594 44.8974 44.8594 28.4749M92.1438 28.4749C92.1438 17.7507 84.7896 9.96245 73.9369 9.96245C63.0841 9.96245 55.7121 17.7507 55.7121 28.4749C55.7121 39.2009 63.0663 47.0716 73.9369 47.0716C84.7896 47.0716 92.1438 39.2009 92.1438 28.4749Z" fill="#D80D1D"/>
<path fill-rule="evenodd" clip-rule="evenodd" d="M20.9198 28.5059L14.0654 35.3817L30.7372 55.873H44.5174L20.9198 28.5059Z" fill="#D80D1D"/>
<path fill-rule="evenodd" clip-rule="evenodd" d="M20.9198 28.4541L14.0654 21.5782L30.7372 1.08691H44.5174L20.9198 28.4541Z" fill="#D80D1D"/>
<path fill-rule="evenodd" clip-rule="evenodd" d="M10.6921 1.08691H0V55.8643H10.6921V1.08691Z" fill="#D80D1D"/>
<path d="M175 76.76V64.112H177.904L177.952 66.656L177.472 66.848C177.616 66.432 177.832 66.048 178.12 65.696C178.408 65.328 178.752 65.016 179.152 64.76C179.552 64.488 179.976 64.28 180.424 64.136C180.872 63.976 181.328 63.896 181.792 63.896C182.48 63.896 183.088 64.008 183.616 64.232C184.16 64.44 184.608 64.776 184.96 65.24C185.328 65.704 185.6 66.296 185.776 67.016L185.32 66.92L185.512 66.536C185.688 66.152 185.936 65.808 186.256 65.504C186.576 65.184 186.936 64.904 187.336 64.664C187.736 64.408 188.152 64.216 188.584 64.088C189.032 63.96 189.472 63.896 189.904 63.896C190.864 63.896 191.664 64.088 192.304 64.472C192.944 64.856 193.424 65.44 193.744 66.224C194.064 67.008 194.224 67.976 194.224 69.128V76.76H191.248V69.32C191.248 68.68 191.16 68.152 190.984 67.736C190.824 67.32 190.568 67.016 190.216 66.824C189.88 66.616 189.456 66.512 188.944 66.512C188.544 66.512 188.16 66.584 187.792 66.728C187.44 66.856 187.136 67.048 186.88 67.304C186.624 67.544 186.424 67.824 186.28 68.144C186.136 68.464 186.064 68.816 186.064 69.2V76.76H183.088V69.296C183.088 68.688 183 68.184 182.824 67.784C182.648 67.368 182.392 67.056 182.056 66.848C181.72 66.624 181.312 66.512 180.832 66.512C180.432 66.512 180.056 66.584 179.704 66.728C179.352 66.856 179.048 67.04 178.792 67.28C178.536 67.52 178.336 67.8 178.192 68.12C178.048 68.44 177.976 68.792 177.976 69.176V76.76H175Z" fill="black"/>
<path d="M203.381 77C202.341 77 201.397 76.712 200.549 76.136C199.701 75.56 199.021 74.776 198.509 73.784C197.997 72.792 197.741 71.664 197.741 70.4C197.741 69.136 197.997 68.008 198.509 67.016C199.021 66.024 199.717 65.248 200.597 64.688C201.477 64.128 202.469 63.848 203.573 63.848C204.213 63.848 204.797 63.944 205.325 64.136C205.853 64.312 206.317 64.568 206.717 64.904C207.117 65.24 207.445 65.624 207.701 66.056C207.973 66.488 208.157 66.952 208.253 67.448L207.605 67.28V64.112H210.581V76.76H207.581V73.736L208.277 73.616C208.165 74.048 207.957 74.472 207.653 74.888C207.365 75.288 206.997 75.648 206.549 75.968C206.117 76.272 205.629 76.52 205.085 76.712C204.557 76.904 203.989 77 203.381 77ZM204.197 74.384C204.885 74.384 205.493 74.216 206.021 73.88C206.549 73.544 206.957 73.08 207.245 72.488C207.549 71.88 207.701 71.184 207.701 70.4C207.701 69.632 207.549 68.952 207.245 68.36C206.957 67.768 206.549 67.304 206.021 66.968C205.493 66.632 204.885 66.464 204.197 66.464C203.509 66.464 202.901 66.632 202.373 66.968C201.861 67.304 201.461 67.768 201.173 68.36C200.885 68.952 200.741 69.632 200.741 70.4C200.741 71.184 200.885 71.88 201.173 72.488C201.461 73.08 201.861 73.544 202.373 73.88C202.901 74.216 203.509 74.384 204.197 74.384Z" fill="black"/>
<path d="M215.108 76.76V64.112H218.012L218.06 68.144L217.652 67.232C217.828 66.592 218.132 66.016 218.564 65.504C218.996 64.992 219.492 64.592 220.052 64.304C220.628 64 221.228 63.848 221.852 63.848C222.124 63.848 222.38 63.872 222.62 63.92C222.876 63.968 223.084 64.024 223.244 64.088L222.452 67.328C222.276 67.232 222.06 67.152 221.804 67.088C221.548 67.024 221.292 66.992 221.036 66.992C220.636 66.992 220.252 67.072 219.884 67.232C219.532 67.376 219.22 67.584 218.948 67.856C218.676 68.128 218.46 68.448 218.3 68.816C218.156 69.168 218.084 69.568 218.084 70.016V76.76H215.108Z" fill="black"/>
<path d="M229.073 72.896L228.497 70.136L234.497 64.112H238.433L229.073 72.896ZM226.313 76.76V59H229.265V76.76H226.313ZM234.857 76.76L230.201 71.12L232.289 69.344L238.505 76.76H234.857Z" fill="black"/>
<path d="M246.939 77C245.611 77 244.435 76.72 243.411 76.16C242.403 75.6 241.611 74.84 241.035 73.88C240.475 72.904 240.195 71.792 240.195 70.544C240.195 69.552 240.355 68.648 240.675 67.832C240.995 67.016 241.435 66.312 241.995 65.72C242.571 65.112 243.251 64.648 244.035 64.328C244.835 63.992 245.707 63.824 246.651 63.824C247.483 63.824 248.259 63.984 248.979 64.304C249.699 64.624 250.323 65.064 250.851 65.624C251.379 66.168 251.779 66.824 252.051 67.592C252.339 68.344 252.475 69.168 252.459 70.064L252.435 71.096H242.187L241.635 69.08H249.963L249.579 69.488V68.96C249.531 68.464 249.371 68.032 249.099 67.664C248.827 67.28 248.475 66.984 248.043 66.776C247.627 66.552 247.163 66.44 246.651 66.44C245.867 66.44 245.203 66.592 244.659 66.896C244.131 67.2 243.731 67.64 243.459 68.216C243.187 68.776 243.051 69.48 243.051 70.328C243.051 71.144 243.219 71.856 243.555 72.464C243.907 73.072 244.395 73.544 245.019 73.88C245.659 74.2 246.403 74.36 247.251 74.36C247.843 74.36 248.387 74.264 248.883 74.072C249.379 73.88 249.915 73.536 250.491 73.04L251.955 75.08C251.523 75.48 251.027 75.824 250.467 76.112C249.923 76.384 249.347 76.6 248.739 76.76C248.131 76.92 247.531 77 246.939 77Z" fill="black"/>
<path d="M257.545 76.76V60.896H260.497V76.76H257.545ZM255.049 66.848V64.112H263.257V66.848H255.049Z" fill="black"/>
</svg>
