<svg width="29" height="29" viewBox="0 0 29 29" fill="none" xmlns="http://www.w3.org/2000/svg">
<path d="M3.60156 8.73721L14.7974 14.3344L25.9932 8.73721C25.9517 8.02383 25.6391 7.35329 25.1193 6.86293C24.5995 6.37256 23.9119 6.09948 23.1974 6.09961H6.39736C5.68278 6.09948 4.99519 6.37256 4.47541 6.86293C3.95563 7.35329 3.64301 8.02383 3.60156 8.73721Z" fill="white"/>
<path d="M25.9977 11.8652L14.7977 17.4652L3.59766 11.8652V20.1C3.59766 20.8426 3.89266 21.5548 4.41776 22.0799C4.94286 22.605 5.65505 22.9 6.39766 22.9H23.1977C23.9403 22.9 24.6525 22.605 25.1776 22.0799C25.7027 21.5548 25.9977 20.8426 25.9977 20.1V11.8652Z" fill="white"/>
</svg>
