<svg width="20" height="28" viewBox="0 0 20 28" fill="none" xmlns="http://www.w3.org/2000/svg">
<path d="M10.0002 13.3C9.07194 13.3 8.1817 12.9313 7.52532 12.2749C6.86894 11.6185 6.5002 10.7283 6.5002 9.8C6.5002 8.87174 6.86894 7.9815 7.52532 7.32513C8.1817 6.66875 9.07194 6.3 10.0002 6.3C10.9285 6.3 11.8187 6.66875 12.4751 7.32513C13.1314 7.9815 13.5002 8.87174 13.5002 9.8C13.5002 10.2596 13.4097 10.7148 13.2338 11.1394C13.0579 11.564 12.8001 11.9499 12.4751 12.2749C12.1501 12.5999 11.7642 12.8577 11.3396 13.0336C10.9149 13.2095 10.4598 13.3 10.0002 13.3ZM10.0002 0C7.40107 0 4.90841 1.0325 3.07055 2.87035C1.23269 4.70821 0.200195 7.20088 0.200195 9.8C0.200195 17.15 10.0002 28 10.0002 28C10.0002 28 19.8002 17.15 19.8002 9.8C19.8002 7.20088 18.7677 4.70821 16.9298 2.87035C15.092 1.0325 12.5993 0 10.0002 0Z" fill="white"/>
</svg>
