<svg width="32" height="32" viewBox="0 0 32 32" fill="none" xmlns="http://www.w3.org/2000/svg">
<path fill-rule="evenodd" clip-rule="evenodd" d="M11.1998 6.39961C11.1998 5.12657 11.7055 3.90567 12.6057 3.0055C13.5059 2.10532 14.7268 1.59961 15.9998 1.59961C17.2728 1.59961 18.4937 2.10532 19.3939 3.0055C20.2941 3.90567 20.7998 5.12657 20.7998 6.39961V12.7996C20.7998 14.0726 20.2941 15.2935 19.3939 16.1937C18.4937 17.0939 17.2728 17.5996 15.9998 17.5996C14.7268 17.5996 13.5059 17.0939 12.6057 16.1937C11.7055 15.2935 11.1998 14.0726 11.1998 12.7996V6.39961ZM17.5998 23.8876C20.2657 23.5025 22.7036 22.1696 24.4668 20.1332C26.2299 18.0968 27.2002 15.4932 27.1998 12.7996C27.1998 12.3753 27.0312 11.9683 26.7312 11.6682C26.4311 11.3682 26.0242 11.1996 25.5998 11.1996C25.1755 11.1996 24.7685 11.3682 24.4684 11.6682C24.1684 11.9683 23.9998 12.3753 23.9998 12.7996C23.9998 14.9213 23.157 16.9562 21.6567 18.4565C20.1564 19.9568 18.1215 20.7996 15.9998 20.7996C13.8781 20.7996 11.8432 19.9568 10.343 18.4565C8.84266 16.9562 7.9998 14.9213 7.9998 12.7996C7.9998 12.3753 7.83123 11.9683 7.53118 11.6682C7.23112 11.3682 6.82415 11.1996 6.39981 11.1996C5.97546 11.1996 5.56849 11.3682 5.26843 11.6682C4.96838 11.9683 4.7998 12.3753 4.7998 12.7996C4.79945 15.4932 5.76973 18.0968 7.53285 20.1332C9.29597 22.1696 11.7339 23.5025 14.3998 23.8876V27.1996H9.5998C9.17546 27.1996 8.76849 27.3682 8.46843 27.6682C8.16838 27.9683 7.9998 28.3753 7.9998 28.7996C7.9998 29.224 8.16838 29.6309 8.46843 29.931C8.76849 30.231 9.17546 30.3996 9.5998 30.3996H22.3998C22.8242 30.3996 23.2311 30.231 23.5312 29.931C23.8312 29.6309 23.9998 29.224 23.9998 28.7996C23.9998 28.3753 23.8312 27.9683 23.5312 27.6682C23.2311 27.3682 22.8242 27.1996 22.3998 27.1996H17.5998V23.8876Z" fill="#111827"/>
</svg>
