<svg width="112" height="112" viewBox="0 0 112 112" fill="none" xmlns="http://www.w3.org/2000/svg">
<path d="M15.6448 21.7271C15.0686 22.7026 15.7831 23.7991 16.4534 24.5271C17.5359 25.6997 18.7198 26.7883 19.8896 27.8725C21.0557 28.3152 22.2839 28.573 23.5296 28.6363C25.1312 28.563 26.8784 28.0763 27.1864 27.7101C27.5836 27.2805 28.092 26.9692 28.6553 26.8107C29.2315 26.6579 29.8447 26.7027 30.3409 26.2894C31.1982 25.5748 30.3728 24.3495 29.385 24.6066C28.9263 24.7253 29.1262 25.3827 29.577 25.3043C30.249 25.6577 29.0478 25.88 28.8569 25.9041C28.4312 25.953 28.023 26.1011 27.665 26.3365C27.307 26.5719 27.0092 26.8879 26.7955 27.2593C25.7677 27.5654 24.7167 27.7872 23.6528 27.9223C22.578 27.886 21.5112 27.7238 20.4742 27.4391C20.4563 27.4105 18.6262 25.8016 17.7812 24.9717C16.9826 24.1877 15.9455 23.3684 16.0838 22.2031C21.2022 27.5051 29.0288 26.1791 31.8198 21.9074C32.0741 21.5154 31.5102 21.1088 31.1882 21.4202C29.4051 23.1489 27.3163 24.391 24.7946 24.6015C18.8805 25.096 12.8179 19.7889 13.668 11.8929C16.1594 18.5748 23.0463 22.7216 29.0456 22.2708C29.1637 22.2667 29.2755 22.2169 29.3576 22.1319C29.4396 22.0469 29.4855 21.9334 29.4855 21.8153C29.4855 21.6971 29.4396 21.5836 29.3576 21.4986C29.2755 21.4136 29.1637 21.3638 29.0456 21.3597C26.0601 21.2943 23.1487 20.4173 20.6238 18.8229C18.2762 17.262 16.3842 15.107 15.1402 12.5772C14.6514 11.642 13.985 10.2633 14.2801 9.18026C14.5752 8.09722 16.2059 8.00034 17.1204 8.10506C19.9036 8.42426 22.7316 9.86626 25.0506 11.3833C27.6604 13.0813 29.8458 15.3556 31.4385 18.0311C31.4728 18.0861 31.5272 18.1255 31.5902 18.141C31.6531 18.1565 31.7197 18.1469 31.7756 18.1142C31.8316 18.0815 31.8726 18.0282 31.89 17.9658C31.9073 17.9033 31.8996 17.8365 31.8686 17.7796C30.4053 15.0734 28.3586 12.7263 25.8766 10.9084C23.3851 9.10858 20.2021 7.47394 17.1182 7.11162C15.9982 6.97946 14.6144 7.15698 13.7817 8.00034C13.3995 8.50706 13.1541 9.10351 13.0688 9.73242C12.7485 11.9534 12.8644 15.7199 13.4608 17.5931C13.9689 19.0765 14.7058 20.4714 15.6448 21.7271Z" fill="#191919"/>
<path d="M27.3329 28.6802C26.4799 29.2238 25.4884 29.5104 24.4769 29.5056C23.5154 29.4342 22.5747 29.19 21.6999 28.7849C21.5694 28.7356 21.3678 28.8135 21.4294 29.0963C22.2462 32.6552 23.7669 36.0146 25.902 38.9768C28.0371 41.939 30.7434 44.444 33.8614 46.3442C33.9844 46.4158 34.1307 46.4356 34.2683 46.3993C34.4059 46.363 34.5234 46.2735 34.595 46.1505C34.6666 46.0275 34.6864 45.8811 34.65 45.7436C34.6137 45.606 34.5242 45.4885 34.4012 45.4169C28.3308 41.7842 24.2092 36.0117 21.8611 29.4261C23.3916 30.7023 26.0303 30.5523 27.6426 29.5314C29.3625 32.2741 31.854 34.448 34.8044 35.7804C37.5015 36.9044 40.5258 36.9571 43.2604 35.9277C44.5592 35.5239 45.7491 34.8297 46.7397 33.8977C46.9889 34.218 49.6993 36.7677 50.0359 37.0869C50.4178 37.4492 51.0013 36.8657 50.6132 36.5095C49.911 35.8599 49.2132 35.2075 48.4992 34.5686C48.0557 34.1715 47.0768 32.9519 46.8959 32.8242C46.4227 32.4882 45.8527 33.1792 45.5295 33.4363C44.3373 34.3182 42.9761 34.9452 41.531 35.2781C40.0858 35.6109 38.5875 35.6426 37.1295 35.3711C35.2981 34.9382 33.584 34.1084 32.1086 32.9401C30.8766 32.0318 28.7721 29.3779 27.81 28.6348C27.738 28.5847 27.6505 28.5617 27.5632 28.57C27.4758 28.5783 27.3942 28.6174 27.3329 28.6802Z" fill="#191919"/>
<path d="M54.2547 13.8029C55.5629 13.7727 58.966 13.1657 58.0034 11.1222C57.9618 11.0541 57.9015 10.9996 57.8295 10.9651C57.7576 10.9307 57.6772 10.9178 57.5982 10.9281C57.5191 10.9384 57.4447 10.9715 57.384 11.0232C57.3233 11.075 57.279 11.1432 57.2563 11.2197C56.9013 12.5637 54.8802 12.7429 53.7104 12.7188C53.0783 12.7323 52.4541 12.5768 51.9022 12.2684C51.3503 11.9599 50.8907 11.5097 50.571 10.9643C50.459 10.7582 50.1729 10.9055 50.2104 11.1161C50.5503 12.9954 52.5075 13.8433 54.2547 13.8029Z" fill="#191919"/>
<path d="M55.4652 24.7492C55.4786 24.4984 55.4215 24.2514 55.4125 23.9988C55.4107 23.9426 55.3909 23.8883 55.356 23.8442C55.3211 23.8 55.2729 23.7682 55.2186 23.7534C55.1643 23.7386 55.1066 23.7416 55.0541 23.762C55.0016 23.7824 54.9571 23.8191 54.927 23.8667C54.8025 24.0232 54.7359 24.2179 54.7383 24.4179C54.7408 24.6178 54.8122 24.8108 54.9404 24.9643C55.1224 25.1872 55.4517 24.9917 55.4652 24.7492Z" fill="#191919"/>
<path d="M55.6923 23.4895C55.8788 23.718 55.9662 24.0327 56.2221 24.1918C56.2579 24.212 56.2978 24.2238 56.3389 24.2265C56.3799 24.2291 56.421 24.2225 56.4591 24.207C56.4972 24.1916 56.5314 24.1677 56.559 24.1373C56.5866 24.1068 56.607 24.0705 56.6186 24.031C56.8191 23.4565 55.8503 22.5045 55.2007 22.64C55.1771 22.6466 55.1554 22.6585 55.1372 22.6748C55.119 22.6911 55.1047 22.7113 55.0956 22.734C55.0864 22.7567 55.0826 22.7812 55.0844 22.8055C55.0862 22.8299 55.0936 22.8536 55.106 22.8746C55.2656 23.1093 55.5137 23.27 55.6923 23.4895Z" fill="#191919"/>
<path d="M50.6177 23.6218C50.5971 23.5489 50.5507 23.486 50.4871 23.4448C50.4235 23.4036 50.3472 23.3869 50.2722 23.3978C50.197 23.4079 50.1279 23.4447 50.0776 23.5016C50.0273 23.5585 49.9992 23.6315 49.9984 23.7075C49.966 23.9338 49.9899 24.1645 50.0678 24.3795C50.1011 24.4348 50.1498 24.4793 50.208 24.5074C50.2662 24.5356 50.3313 24.5462 50.3954 24.5379C50.4595 24.5297 50.5198 24.5029 50.5689 24.4609C50.618 24.419 50.6539 24.3636 50.6721 24.3016C50.7191 24.1683 50.6933 24.0659 50.6177 23.6218Z" fill="#191919"/>
<path d="M50.0432 22.2658C49.7287 22.4622 49.4799 22.7481 49.3287 23.0867C49.2966 23.1416 49.2876 23.207 49.3037 23.2685C49.3199 23.33 49.3597 23.3825 49.4146 23.4146C49.4695 23.4467 49.5349 23.4557 49.5964 23.4395C49.6579 23.4234 49.7104 23.3835 49.7425 23.3287C49.8568 23.1808 49.9997 23.0574 50.1627 22.966C50.3257 22.8745 50.5054 22.8167 50.6911 22.7961C51.5345 22.6203 51.0859 21.6475 50.0432 22.2658Z" fill="#191919"/>
<path d="M57.66 32.5405C57.4147 32.4672 57.2422 32.8491 57.4825 32.9617C60.1762 34.1326 62.7964 35.4657 65.3286 36.9539C66.1072 37.5081 66.9293 37.9984 67.787 38.42C68.179 38.5734 68.4484 38.0095 68.1824 37.7401C67.4509 37.1206 66.643 36.5976 65.7783 36.1839C63.2086 34.6858 60.4873 33.4645 57.66 32.5405Z" fill="#191919"/>
<path d="M38.3884 41.5036C38.3946 41.481 38.3964 41.4574 38.3935 41.4341C38.3906 41.4108 38.3832 41.3883 38.3716 41.3679C38.36 41.3475 38.3445 41.3296 38.326 41.3151C38.3075 41.3007 38.2864 41.2901 38.2638 41.2838C38.2412 41.2775 38.2175 41.2758 38.1943 41.2787C38.171 41.2816 38.1485 41.289 38.1281 41.3006C38.1077 41.3121 38.0897 41.3276 38.0753 41.3461C38.0609 41.3646 38.0502 41.3858 38.044 41.4084C36.973 44.7824 36.2851 48.2663 35.9933 51.7942C35.3275 58.6049 35.5534 65.4735 36.6653 72.2258C36.6277 72.3322 38.3313 80.4488 39.5717 84.2775C40.5237 87.2237 42.6046 92.6775 44.1939 95.3095C44.4481 95.7306 45.0283 95.3622 44.839 94.9321C43.6485 92.2329 42.5727 90.615 40.7292 85.2323C39.5778 81.8594 37.7959 73.9097 37.7052 73.409C39.2925 74.5537 41.061 75.4234 42.9367 75.9817C47.4882 77.3613 52.3281 77.4845 56.944 76.3384C59.1749 75.833 61.3227 75.0132 63.3229 73.9035C65.5428 79.7891 65.7035 81.2199 66.6908 83.5422C66.9327 84.1106 67.8214 83.7002 67.6697 83.129C67.2049 81.393 66.4847 79.6794 65.8609 77.9938C65.2566 76.3591 64.6289 74.7323 63.8852 73.1582C64.0672 72.4274 64.2565 68.7902 64.3421 67.7614C64.5169 65.6967 64.7341 63.6236 64.7722 61.5516C66.1061 61.6731 67.8455 61.2598 68.536 60.1174C68.5729 60.05 68.587 59.9724 68.5761 59.8962C68.5652 59.8201 68.5299 59.7495 68.4756 59.6951C68.4212 59.6408 68.3506 59.6055 68.2745 59.5946C68.1983 59.5837 68.1207 59.5978 68.0533 59.6347C67.5121 60.0174 66.9372 60.3499 66.3357 60.6282C65.3845 60.92 64.3617 60.8748 63.4399 60.5C62.5182 60.1253 61.7539 59.4441 61.2761 58.5713C61.2162 58.466 61.0281 58.5366 61.0751 58.657C61.3232 59.3599 61.7466 59.9878 62.3052 60.4814C62.8637 60.975 63.539 61.3179 64.2671 61.4777C64.2957 61.4838 62.9752 72.4537 63.1001 73.3178C62.1184 73.6017 61.1697 74.0659 60.1998 74.3879C54.7202 76.1984 48.8772 76.736 43.4312 75.042C41.2903 74.3762 37.4952 72.1597 37.4952 72.1597C37.4952 72.1597 35.6472 61.5197 36.6485 53.3868C37.1435 49.3974 37.6559 45.4494 38.3884 41.5036Z" fill="#191919"/>
<path d="M45.7519 46.9444C45.3499 52.5535 45.4855 58.1881 46.1568 63.7713C46.3326 65.1668 47.3653 70.7467 47.9236 72.0033C47.9801 72.0975 48.0657 72.1707 48.1676 72.2118C48.2695 72.2528 48.382 72.2594 48.488 72.2307C48.594 72.2019 48.6877 72.1393 48.7548 72.0523C48.822 71.9654 48.8589 71.8589 48.8599 71.7491C48.6274 70.4108 48.3263 69.0854 47.9578 67.7781C47.6632 66.4033 46.5387 58.1366 46.453 55.373C46.173 46.4292 47.4935 42.6509 47.7338 39.2976C48.5692 39.1244 49.3868 38.8739 50.1759 38.5495C51.9395 37.8014 53.6595 36.9547 55.3279 36.0132C56.0268 35.5619 56.9771 35.0523 57.4134 34.3231C57.4312 34.2907 57.4392 34.2539 57.4364 34.217C57.4336 34.1801 57.4201 34.1449 57.3976 34.1155C57.3751 34.0862 57.3445 34.064 57.3096 34.0518C57.2747 34.0395 57.237 34.0377 57.2011 34.0465C56.4014 34.3002 55.6992 34.9873 54.9891 35.4325C50.9974 37.9318 48.5491 38.0186 47.2264 38.4968C46.9464 38.5976 46.4424 41.695 46.2548 42.9175C46.0521 44.2559 45.8845 45.5982 45.7519 46.9444Z" fill="#191919"/>
<path d="M48.7722 47.9163C48.7321 47.8336 48.6745 47.7607 48.6035 47.7025C48.5324 47.6442 48.4496 47.6021 48.3607 47.579C48.2718 47.5559 48.1789 47.5524 48.0885 47.5686C47.9981 47.5849 47.9123 47.6206 47.837 47.6732C47.7715 47.738 47.7224 47.8175 47.694 47.9052C47.6656 47.9929 47.6587 48.0861 47.6738 48.177C47.689 48.2679 47.7258 48.3538 47.7811 48.4275C47.8364 48.5012 47.9086 48.5606 47.9916 48.6006C48.0996 48.654 48.221 48.6744 48.3405 48.6592C48.4601 48.6439 48.5724 48.5938 48.6636 48.5149C48.7249 48.4294 48.7665 48.3313 48.7853 48.2278C48.8041 48.1243 48.7996 48.0179 48.7722 47.9163Z" fill="#191919"/>
<path d="M48.5939 55.827C48.6844 55.7991 48.7672 55.7506 48.8356 55.6851C48.9041 55.6197 48.9563 55.5391 48.9881 55.4499C49.0199 55.3607 49.0305 55.2653 49.0189 55.1714C49.0073 55.0774 48.974 54.9874 48.9215 54.9086C48.8557 54.8205 48.7642 54.755 48.6596 54.7211C48.5551 54.6873 48.4426 54.6867 48.3376 54.7195C48.2327 54.7523 48.1406 54.8169 48.0739 54.9044C48.0073 54.9918 47.9694 55.0977 47.9656 55.2076C47.9191 55.552 48.2282 55.9608 48.5939 55.827Z" fill="#191919"/>
<path d="M49.3918 63.7961C49.4549 63.7258 49.4987 63.6404 49.5189 63.5481C49.5392 63.4559 49.5352 63.36 49.5073 63.2697C49.4795 63.1795 49.4287 63.098 49.36 63.0332C49.2912 62.9684 49.2069 62.9226 49.1151 62.9001C48.9933 62.8661 48.8636 62.8732 48.7462 62.9202C48.6288 62.9673 48.5302 63.0517 48.4655 63.1605C48.4127 63.254 48.3917 63.3621 48.4055 63.4687C48.4193 63.5752 48.4673 63.6743 48.5423 63.7513C48.6613 63.8469 48.8074 63.9026 48.9598 63.9107C49.1122 63.9187 49.2634 63.8786 49.3918 63.7961Z" fill="#191919"/>
<path d="M51.4491 91.3555C51.4532 91.4742 51.5033 91.5866 51.5887 91.6691C51.6741 91.7515 51.7881 91.7976 51.9069 91.7976C52.0256 91.7976 52.1397 91.7515 52.2251 91.6691C52.3105 91.5866 52.3605 91.4742 52.3647 91.3555C52.5511 88.6171 52.3753 85.6732 52.8866 80.3616C54.7587 82.7225 56.501 85.1834 58.1058 87.7335C58.5118 88.3495 59.5058 87.7682 59.0953 87.155C57.0502 84.1243 54.7312 80.9586 51.962 78.545C51.8399 78.4397 51.626 78.5763 51.7257 78.727C51.9814 79.1115 52.2461 79.4905 52.5198 79.8638C51.7773 83.6486 51.4186 87.4987 51.4491 91.3555Z" fill="#191919"/>
<path d="M53.7646 43.14C54.683 43.2794 55.5963 43.4631 56.5119 43.6154C56.5605 43.6283 56.6122 43.6215 56.6558 43.5964C56.6993 43.5713 56.7312 43.53 56.7444 43.4815C56.7577 43.433 56.7512 43.3813 56.7264 43.3375C56.7016 43.2938 56.6606 43.2616 56.6122 43.2481C55.8545 43.0017 55.0895 42.776 54.3313 42.5268C54.5749 41.3239 53.7903 40.0578 52.3931 40.2308C52.1394 40.2596 51.8967 40.3506 51.6867 40.4959C51.4767 40.6412 51.3059 40.8362 51.1895 41.0635C51.0731 41.2907 51.0147 41.5433 51.0195 41.7986C51.0243 42.0539 51.0922 42.3041 51.2171 42.5268C50.9798 42.6219 50.7684 42.7718 50.6002 42.9644C50.432 43.157 50.3119 43.3867 50.2497 43.6347C50.1876 43.8827 50.185 44.142 50.2424 44.3911C50.2998 44.6403 50.4155 44.8723 50.5799 45.0681C50.7598 45.2799 50.9903 45.4429 51.2501 45.542C51.5098 45.6412 51.7903 45.6732 52.0656 45.6351C52.341 45.597 52.6023 45.4901 52.8254 45.3242C53.0484 45.1583 53.226 44.9389 53.3418 44.6862C53.9578 44.9314 54.5704 45.175 55.1898 45.4142C55.7111 45.6158 55.9402 44.7735 55.4211 44.5742C54.6841 44.293 53.9455 44.0164 53.2051 43.7442C53.0992 43.7152 52.986 43.7292 52.8904 43.7834C52.7948 43.8375 52.7245 43.9274 52.695 44.0332C52.5751 44.7231 51.8259 45.1638 51.2636 44.5971C51.1433 44.4756 51.0627 44.3206 51.0324 44.1523C51.002 43.9841 51.0233 43.8106 51.0936 43.6548C51.1638 43.4989 51.2796 43.368 51.4257 43.2793C51.5719 43.1906 51.7414 43.1483 51.9121 43.1579C51.9976 43.1554 52.08 43.1254 52.1472 43.0725C52.2143 43.0195 52.2627 42.9464 52.2851 42.8638C52.3075 42.7813 52.3028 42.6937 52.2716 42.6141C52.2404 42.5344 52.1845 42.4669 52.112 42.4215C51.351 41.8615 51.9933 40.8395 52.8126 40.9655C53.6526 41.0966 53.7735 42.0155 53.498 42.6707C53.4712 42.7683 53.4842 42.8725 53.5342 42.9605C53.5842 43.0485 53.667 43.113 53.7646 43.14Z" fill="#191919"/>
<path d="M78.3539 48.6022C79.4229 48.7568 81.7139 49.1689 81.3969 50.7134C81.1471 51.9252 79.5808 52.782 78.5969 53.3208C76.2723 54.588 73.581 55.2119 70.9949 55.6767C65.6343 56.7297 60.0905 56.3448 54.9268 54.5612C53.7508 54.1311 51.7964 53.5117 51.7421 51.9807C51.6822 50.294 53.3543 49.3778 54.5981 48.6369C54.6437 48.6035 54.6753 48.5543 54.6867 48.4989C54.6981 48.4435 54.6886 48.3858 54.6599 48.337C54.6313 48.2883 54.5856 48.2519 54.5317 48.2348C54.4777 48.2178 54.4194 48.2214 54.3679 48.2449C53.1259 48.848 51.8227 49.6029 51.2734 50.9458C51.0396 51.4892 50.9943 52.0952 51.1447 52.6673C51.2951 53.2395 51.6325 53.7449 52.1033 54.1031C53.2345 55.0265 54.84 55.4908 56.2098 55.918C59.6862 56.9617 63.3161 57.4006 66.9411 57.2156C66.8571 57.4233 66.8526 57.6535 66.6168 57.7599C66.4225 57.8489 65.4828 57.0504 65.1535 57.4726C65.0029 57.6652 64.8976 57.8758 64.6243 57.9072C64.485 57.9222 64.3447 57.8895 64.2264 57.8144C64.1081 57.7393 64.0188 57.6263 63.9731 57.4939C63.9249 57.3432 63.6634 57.36 63.683 57.5325C63.6893 57.7642 63.7737 57.9869 63.9224 58.1646C64.0711 58.3424 64.2754 58.4648 64.5023 58.512C64.738 58.5589 64.9827 58.5254 65.1972 58.4169C65.4118 58.3084 65.5837 58.1311 65.6855 57.9133C65.7271 58.0246 65.7903 58.1266 65.8716 58.2132C65.9529 58.2998 66.0506 58.3694 66.1591 58.4179C66.2675 58.4665 66.3845 58.4929 66.5033 58.4958C66.6221 58.4987 66.7402 58.4779 66.8509 58.4347C67.091 58.3349 67.2908 58.1575 67.4181 57.9308C67.5454 57.7041 67.593 57.4412 67.5531 57.1842C71.6215 56.9255 77.0071 55.8889 80.3385 53.5095C81.4859 52.6913 82.7851 51.4207 82.3175 49.8628C82.2032 49.5344 82.0252 49.2318 81.7937 48.9723C81.5622 48.7128 81.2818 48.5016 80.9685 48.3508C80.1692 48.0167 79.2948 47.9034 78.4367 48.0226C78.1159 48.0293 78.0111 48.5518 78.3539 48.6022Z" fill="#191919"/>
<path d="M63.0839 57.3C62.8011 57.468 62.7804 57.8472 62.3895 57.8791C62.0177 57.9088 61.7909 57.5812 61.5999 57.3191C61.5579 57.2631 61.4879 57.2681 61.4207 57.3191C61.0761 57.5361 60.6777 57.6525 60.2705 57.6551C60.0986 57.6275 59.9353 57.5614 59.7926 57.4617C59.6499 57.362 59.5317 57.2313 59.4467 57.0794C59.3655 56.9204 59.1488 57.0391 59.1762 57.1914C59.2001 57.439 59.2968 57.6739 59.4541 57.8665C59.6115 58.0591 59.8224 58.2007 60.0602 58.2735C60.298 58.3462 60.5521 58.3468 60.7902 58.2753C61.0284 58.2037 61.24 58.0631 61.3983 57.8712C61.475 58.0519 61.598 58.2091 61.7548 58.3271C61.9116 58.445 62.0967 58.5196 62.2915 58.5432C62.8375 58.5942 63.7817 58.0392 63.4675 57.3992C63.4287 57.3363 63.3671 57.291 63.2956 57.2725C63.2241 57.254 63.1483 57.2639 63.0839 57.3Z" fill="#191919"/>
<path d="M71.5899 57.6417C70.1474 57.141 69.0778 57.9631 67.8895 58.5545C66.941 59.0021 65.9079 59.2419 64.8593 59.2579C63.8106 59.2739 62.7707 59.0658 61.809 58.6474C61.6499 58.5814 61.5475 58.8401 61.6931 58.9224C64.0014 60.2306 66.5242 59.9674 68.8051 58.7617C69.5123 58.3887 70.3691 57.929 71.1946 58.1888C71.6202 58.3226 72.0396 58.6928 72.5016 58.4218C73.2856 57.9665 72.7015 56.8487 71.9887 56.7255C71.942 56.7144 71.8932 56.717 71.848 56.733C71.8028 56.749 71.7632 56.7778 71.734 56.8158C71.7048 56.8538 71.6872 56.8994 71.6832 56.9471C71.6793 56.9949 71.6893 57.0428 71.712 57.085C71.81 57.1922 71.9023 57.3043 71.9887 57.421C72.2401 58.0729 71.838 57.7274 71.5899 57.6417Z" fill="#191919"/>
<path d="M99.0761 73.504C99.028 71.5552 97.6565 69.9357 96.2448 68.6953C94.4388 67.1077 82.8221 58.0553 78.2884 56.2409C77.8208 56.0544 77.5441 56.7897 77.9524 57.035C81.4664 59.135 96.1451 69.8847 97.1733 71.483C98.3224 73.2677 97.9013 75.1381 96.4453 76.5907C95.0453 77.9812 83.2853 83.4575 79.2533 85.399C71.3063 89.2255 47.695 100.54 43.8758 102.45C42.1813 103.297 40.4867 104.466 38.5049 103.944C36.6749 103.378 34.9777 102.45 33.5141 101.214C29.7857 98.3227 18.3174 89.5368 16.3821 87.9565C14.874 86.7245 12.984 84.3507 14.7704 82.4982C14.776 82.492 18.8405 79.9631 19.7113 79.4355C26.1389 75.5363 30.6929 73.6877 35.4333 70.8586C35.5232 70.8061 35.5886 70.72 35.615 70.6193C35.6415 70.5186 35.6269 70.4115 35.5744 70.3215C35.5219 70.2316 35.4358 70.1662 35.3351 70.1397C35.2344 70.1133 35.1273 70.1279 35.0373 70.1804C31.4757 72.0043 27.9477 73.9324 24.4326 75.8493C22.7095 76.7873 15.0806 81.7058 14.4646 82.1963C14.1917 82.4171 13.9687 82.6933 13.8103 83.0067C13.652 83.32 13.562 83.6634 13.5462 84.0141C13.2545 86.6741 13.6997 91.3501 14.9294 92.9243C15.8714 93.997 16.9379 94.9537 18.1063 95.7741C19.4145 96.8112 26.9481 102.702 29.4306 104.574C31.7748 106.341 34.2617 108.049 37.1217 108.851C40.0281 109.666 42.7945 108.963 45.4657 107.714C46.9217 107.031 89.8434 85.665 91.6886 84.6833C93.2432 83.8545 98.3073 81.339 98.6847 80.4155C98.9048 79.8746 99.1949 74.218 99.0761 73.504Z" fill="#191919"/>
<path d="M82.4134 64.5888C82.6934 63.923 82.5658 63.4565 81.8663 62.8691C81.0347 62.1696 79.2724 62.6703 79.4023 64.1139C79.5362 65.5856 81.7644 66.1361 82.4134 64.5888Z" fill="#191919"/>
<path d="M26.0197 89.5288C25.3069 89.0223 24.5391 88.5981 23.7309 88.2643C23.4649 88.1758 23.3126 88.5197 23.475 88.7033C24.0898 89.3077 24.7588 89.8544 25.4737 90.3363C26.0449 90.7843 30.8373 94.692 31.5558 94.5643C31.6364 94.5411 31.7073 94.4924 31.7578 94.4254C31.8083 94.3584 31.8357 94.2769 31.8358 94.193C31.7955 93.2505 26.7404 89.9717 26.0197 89.5288Z" fill="#191919"/>
<path d="M66.7617 62.0293C66.7187 62.0294 66.6764 62.0394 66.6379 62.0586C66.5995 62.0777 66.5659 62.1054 66.5399 62.1396C66.5138 62.1737 66.496 62.2134 66.4878 62.2556C66.4795 62.2977 66.4811 62.3412 66.4923 62.3827C66.7841 63.1409 67.5563 63.5945 68.1763 64.0727C72.0078 67.0183 78.7496 71.8035 80.2779 72.8765C81.6875 73.9568 83.1572 74.9564 84.68 75.8703C84.2802 76.0069 78.7922 78.8579 77.456 79.5332C63.7147 86.4772 57.4993 89.0706 43.7927 96.6339C43.7927 96.6339 27.3007 84.3699 24.0757 81.7643C26.1735 80.7512 36.3397 75.3047 36.5934 74.8718C36.6149 74.8345 36.6275 74.7928 36.6305 74.7499C36.6334 74.707 36.6265 74.664 36.6103 74.6241C36.5941 74.5842 36.569 74.5486 36.537 74.5199C36.5049 74.4912 36.4668 74.4702 36.4254 74.4585C35.4734 74.2905 24.9543 80.0641 23.0492 81.7799C22.8387 81.9692 23.1287 82.2839 23.3063 82.429C28.9987 87.0299 43.599 97.3491 43.7149 97.3031C46.4757 96.2207 49.2667 94.7798 51.9234 93.4671C76.1428 81.5039 86.5011 76.6727 85.8034 75.9459C84.4835 74.5683 67.6476 62.1452 66.7617 62.0293Z" fill="#191919"/>
<path d="M64.7501 6.08864C63.989 5.77899 63.1664 5.65023 62.3471 5.71252C61.5278 5.77481 60.7342 6.02644 60.0287 6.4476C59.8384 5.63725 59.4234 4.89698 58.8314 4.31176C58.3721 3.8143 57.8108 3.42186 57.1859 3.16125C56.561 2.90064 55.8872 2.778 55.2106 2.80171C54.5339 2.82543 53.8703 2.99493 53.2652 3.29865C52.6601 3.60236 52.1277 4.03313 51.7043 4.56152C50.7489 3.76146 49.5533 3.30411 48.3079 3.26232C45.1993 3.12568 42.2666 5.85456 43.4857 8.54144C44.1017 9.89216 45.4525 10.642 46.8116 11.0799C46.7309 12.5415 47.9153 19.8355 47.9517 19.8596C47.697 20.0705 47.478 20.3213 47.3033 20.6022C46.9247 21.179 46.4801 21.8795 46.8827 22.5678C46.961 22.7082 47.0744 22.826 47.2118 22.9095C47.3492 22.993 47.506 23.0395 47.6667 23.0443C47.5398 23.3264 47.4639 23.6289 47.4427 23.9375C47.3456 23.8744 47.2335 23.8381 47.1179 23.8323C47.0022 23.8265 46.8871 23.8514 46.7841 23.9045C45.8489 24.3777 46.0645 26.0958 47.5558 26.1495C47.6046 26.4773 47.6883 26.7989 47.8056 27.1088C47.5398 27.8947 47.4389 28.7271 47.5093 29.5538C47.4786 30.3518 47.6336 31.1461 47.962 31.874C48.2905 32.602 48.7835 33.2437 49.4021 33.7487C51.8398 35.8767 56.9022 34.5652 57.7713 30.6782C57.995 29.7952 58.0007 28.871 57.7881 27.9852C57.8775 27.7219 57.9339 27.4486 57.9561 27.1715C58.3312 27.2393 58.7178 27.1566 59.0323 26.9413C59.3467 26.726 59.5637 26.3954 59.6361 26.0213C59.8921 24.9209 58.6606 24.3614 58.6606 24.3614C58.7086 24.0409 58.7328 23.7173 58.7329 23.3932C58.8683 23.3417 58.9878 23.2556 59.0795 23.1434C59.2973 22.7267 59.3907 22.256 59.3484 21.7876C59.3061 21.3193 59.1299 20.8729 58.8409 20.5019C58.7251 20.3803 58.5975 20.2704 58.4601 20.1738C58.4601 20.1738 60.9628 14.1258 61.1101 13.7069C63.5455 14.2389 66.4581 12.8316 66.8495 10.1419C66.9834 9.33026 66.8513 8.49707 66.4729 7.76661C66.0946 7.03615 65.4903 6.44757 64.7501 6.08864ZM47.0613 24.8486C47.0509 24.7238 47.0806 24.5989 47.146 24.4922C47.2115 24.3854 47.3094 24.3023 47.4253 24.255C47.413 24.7137 47.4578 25.1841 47.4629 25.2821C47.2736 25.1964 47.1045 25.1152 47.0613 24.8475V24.8486ZM55.0531 28.9462C54.9825 29.9598 53.7332 30.5388 52.8187 30.4845C52.3524 30.4661 51.9053 30.2943 51.5466 29.9958C51.188 29.6973 50.9379 29.2888 50.8352 28.8336C50.8145 28.6656 51.0474 28.6018 51.1527 28.7042C51.6864 29.2082 52.1573 29.6876 52.9649 29.6002C53.6817 29.5218 53.96 28.9893 54.5015 28.6314C54.5571 28.5996 54.62 28.5828 54.6841 28.5827C54.7481 28.5826 54.8111 28.5992 54.8668 28.6308C54.9225 28.6625 54.9689 28.7081 55.0016 28.7632C55.0343 28.8183 55.052 28.881 55.0531 28.945V28.9462ZM58.594 24.7361C58.779 25.0607 58.8658 25.4321 58.8437 25.8051C58.8057 25.9499 58.7297 26.0819 58.6236 26.1874C58.5175 26.293 58.385 26.3682 58.2401 26.4054C58.4461 25.3353 58.4523 25.4702 58.594 24.735V24.7361ZM65.6881 9.85576C65.5945 10.4773 65.3216 11.058 64.9028 11.5267C64.484 11.9955 63.9376 12.3318 63.3305 12.4945C61.8151 12.9475 60.54 12.257 59.2273 11.5985C58.8947 11.4305 58.3873 11.8062 58.6589 12.1669C59.0637 12.7062 59.5985 13.1341 60.2135 13.4106C59.6946 14.3359 59.2781 15.3149 58.9714 16.3305C58.5332 17.5086 58.2428 18.7365 58.1068 19.9862C58.0166 19.947 55.8231 19.3287 55.8231 19.3287C56.578 16.2202 56.6816 15.9687 56.6155 15.3158C56.6139 15.2717 56.5983 15.2293 56.5709 15.1948C56.5435 15.1602 56.5058 15.1353 56.4632 15.1238C56.4207 15.1122 56.3756 15.1145 56.3345 15.1304C56.2933 15.1463 56.2584 15.175 56.2347 15.2122C55.4507 16.2706 55.3897 17.9276 55.3219 19.2671C54.8878 19.2244 54.4503 19.233 54.0182 19.2929C53.8172 19.3618 53.8289 19.4715 53.9118 19.5729C53.9751 19.6507 55.6876 20.8642 56.0437 21.1638C56.5942 21.627 58.0961 23.2073 58.4013 23.3478C58.0575 24.0557 57.4589 27.5786 57.2813 27.6302C57.0241 27.6966 56.7552 27.7043 56.4945 27.6526C55.2032 27.2538 54.0305 25.8135 53.7074 26.1837C53.5433 26.3713 53.5299 26.5622 53.3809 26.7487C52.817 27.4526 52.3853 26.1747 52.3298 25.8018C52.2111 25.0228 52.4978 24.3564 52.5661 23.6032C52.5807 23.4453 52.3735 23.3898 52.2727 23.4817C51.9983 23.7913 51.7934 24.1562 51.6718 24.5516C51.5502 24.9471 51.5147 25.364 51.5677 25.7743C51.3285 25.8555 49.9677 26.91 49.2862 27.045C49.002 27.1007 48.7099 27.1028 48.4249 27.0511C47.8761 25.0603 48.0985 23.6693 47.9288 23.0382C48.6471 22.8892 49.331 22.6066 49.9448 22.2049C50.2365 22.0369 52.6619 20.2247 52.9688 19.9901C53.1368 19.8624 53.7528 19.4547 53.2589 19.3388C52.4268 19.2551 51.5887 19.2502 50.7557 19.3242C50.9658 18.6099 51.0181 17.8583 50.9091 17.1217C50.8 16.3851 50.5321 15.681 50.124 15.0582C50.0944 15.0115 50.0492 14.9768 49.9964 14.9602C49.9436 14.9437 49.8867 14.9463 49.8357 14.9677C49.7847 14.9891 49.743 15.0279 49.7178 15.0771C49.6927 15.1264 49.6858 15.183 49.6984 15.2368C49.9851 16.6026 50.1867 17.9849 50.3021 19.3758C49.8087 19.4357 48.5773 19.5499 48.4641 19.5846C48.5935 18.9395 48.1321 16.0225 48.0341 15.2497C47.8537 13.8122 47.8073 12.2139 47.3531 10.8318C47.2853 10.6274 45.0812 9.87536 44.3325 8.45464C43.1699 6.27064 45.8669 4.08664 48.3141 4.28656C49.7365 4.40248 50.9136 5.66528 51.4551 5.79464C52.2951 5.99624 54.6398 3.57088 56.0919 3.96344C56.8951 4.19237 57.6086 4.6625 58.1359 5.31024C58.6287 5.91224 58.7116 6.76008 59.2273 7.30888C59.4424 7.53904 62.4361 6.4728 63.7908 6.92416C64.3982 7.11654 64.9197 7.5143 65.2659 8.04921C65.6121 8.58412 65.7614 9.22283 65.6881 9.85576Z" fill="#191919"/>
<path d="M76.9276 45.9196C76.8386 42.5556 73.3688 39.708 70.1225 39.526C68.1212 39.3831 66.1165 39.7536 64.2985 40.6024C63.4991 40.997 62.7419 41.4717 62.0383 42.0192C63.7676 42.6587 66.3218 44.1908 66.9954 45.9089C67.0068 45.9499 67.0092 45.9928 67.0024 46.0347C66.9956 46.0766 66.9799 46.1166 66.9562 46.1518C66.9325 46.1871 66.9015 46.2168 66.8653 46.239C66.829 46.2612 66.7884 46.2752 66.7462 46.2802C66.3806 45.7555 64.2654 42.9348 60.8926 42.354C59.1829 42.0595 56.8342 42.9073 56.1438 44.6696C55.8031 45.5776 55.7834 46.5747 56.0878 47.4954C56.444 48.3854 57.0834 49.1332 57.9072 49.6234C59.2002 48.6042 61.34 48.5096 62.3385 48.7319C63.1986 48.9504 64.0137 49.3183 64.7465 49.8188C64.9089 49.8356 65.2785 49.568 65.4442 49.5349C67.3102 49.1648 68.0348 50.3676 68.4828 50.744C68.699 50.4995 68.9692 50.3088 69.2721 50.187C69.5749 50.0653 69.9019 50.016 70.2272 50.0428C70.9722 50.0091 71.7044 50.2444 72.2902 50.7059C72.2342 50.6566 72.5702 49.0925 75.6609 48.2161C75.9924 48.1246 76.3416 48.1185 76.6762 48.1982C76.8182 47.4462 76.9023 46.6844 76.9276 45.9196ZM73.8241 43.0507C73.282 42.9476 72.8839 42.1586 72.0231 41.3634C71.8243 41.1803 72.0791 40.8896 72.2998 41.0056C72.955 41.3477 74.1769 42.0063 74.2138 42.7544C74.2129 42.8015 74.2013 42.8477 74.1799 42.8897C74.1586 42.9316 74.128 42.9682 74.0905 42.9967C74.053 43.0252 74.0096 43.0448 73.9635 43.0542C73.9173 43.0635 73.8697 43.0623 73.8241 43.0507ZM74.8618 44.8427C74.6232 44.78 74.5336 44.6344 74.4289 44.4109C74.3699 44.3035 74.3497 44.179 74.3717 44.0585C74.3938 43.9379 74.4567 43.8286 74.5498 43.749C74.6498 43.6831 74.7693 43.6535 74.8885 43.6651C75.0076 43.6768 75.1192 43.7289 75.2045 43.8128C75.7483 44.3611 75.3759 44.9754 74.8618 44.8399V44.8427Z" fill="#E54A2B"/>
<path d="M65.6809 63.0449C65.6809 66.6474 64.8 69.4636 65.4328 72.9569C65.7996 74.9869 68.4008 81.5171 69.4279 82.5049C69.8428 82.1129 80.8586 77.0729 82.6344 76.0196C82.7021 75.9776 66.7908 63.5545 65.6809 63.0449Z" fill="#E54A2B"/>
<path d="M53.3018 90.6743C53.3018 87.3093 53.3578 85.7575 53.2822 82.5039C54.8205 84.2959 57.5164 88.0899 57.9465 88.5166C57.1692 89.0486 54.0791 90.5511 53.3018 90.6743Z" fill="#E54A2B"/>
<path d="M38.0273 82.347C37.381 80.35 36.3473 75.8633 36.3473 75.8633L24.9199 81.8866C24.9199 81.8866 42.7318 95.3474 43.3602 95.3474C43.9885 95.3474 40.7847 90.8606 38.0273 82.347Z" fill="#E54A2B"/>
<path d="M67.1406 50.4365C66.764 50.2616 66.3442 50.2017 65.9337 50.2642C65.5232 50.3268 65.1403 50.509 64.8328 50.7882C64.5734 50.3195 64.1546 49.9593 63.6524 49.7729C62.3655 49.2214 60.9167 49.1813 59.6013 49.6609C58.6348 50.0126 57.2286 50.488 57.3703 51.781C57.6156 54.021 60.9352 53.671 62.4209 53.293C63.18 53.1717 63.8965 52.8617 64.5047 52.3914C64.6039 52.6559 64.7632 52.8936 64.97 53.086C65.1768 53.2783 65.4255 53.4199 65.6965 53.4996C65.9674 53.5793 66.2532 53.595 66.5312 53.5453C66.8092 53.4957 67.0719 53.3821 67.2985 53.2135C67.5342 53.0589 67.7251 52.845 67.8519 52.5933C67.9787 52.3415 68.0371 52.0608 68.0211 51.7794C68.0051 51.498 67.9153 51.2257 67.7607 50.99C67.6062 50.7543 67.3923 50.5634 67.1406 50.4365ZM62.669 52.2212C61.5669 52.5572 59.8046 52.9744 58.7865 52.2122C58.25 51.809 58.3161 50.9836 59.1326 50.5126C60.0768 49.9689 63.3712 50.0422 63.9979 51.0032C64.4868 51.7536 63.1008 52.089 62.669 52.2212ZM67.0745 52.4917C66.0105 53.283 64.8877 51.8986 65.6146 51.379C65.7435 51.2561 65.8965 51.1614 66.064 51.1009C66.2315 51.0404 66.4097 51.0153 66.5873 51.0273C67.3388 51.1449 67.76 51.9804 67.0745 52.4917Z" fill="#191919"/>
<path d="M71.2597 50.8078C70.9076 50.711 70.5385 50.6928 70.1785 50.7547C69.8186 50.8165 69.4767 50.9568 69.1771 51.1657C68.9332 51.3689 68.7352 51.6216 68.5964 51.9071C68.3948 52.2168 68.0924 52.415 67.9518 52.7729C67.863 52.9429 67.8309 53.1369 67.8601 53.3265C67.8893 53.5161 67.9784 53.6914 68.1142 53.8268C68.5169 54.1846 69.1922 53.9998 69.6626 53.9293C70.489 53.8696 71.2934 53.6364 72.0236 53.245C73.1766 52.466 72.3299 51.0828 71.2597 50.8078ZM68.9005 53.2769C68.5544 52.9409 69.1457 52.2857 69.3636 52.0555C69.5421 51.8523 69.7643 51.6921 70.0136 51.587C70.2628 51.4818 70.5326 51.4345 70.8028 51.4485C71.1568 51.4701 71.4927 51.6121 71.7548 51.8511C72.2627 52.564 69.0601 53.4303 68.9005 53.2769Z" fill="#191919"/>
<path d="M74.1505 49.6617C73.5984 50.1034 73.1573 50.6682 72.8625 51.3109C72.7421 51.5919 72.725 51.9065 72.8141 52.199C72.9033 52.4915 73.093 52.743 73.3497 52.9091C73.987 53.3095 74.8651 52.9528 75.4878 52.7126C76.3288 52.4629 77.1006 52.0221 77.7429 51.4246C79.1726 49.7765 76.3625 47.7364 74.1505 49.6617ZM74.2065 52.213C72.4761 52.5048 74.6668 50.3382 75.3825 50.029C75.7717 49.861 76.8032 49.469 77.3072 50.2066C77.5004 50.4944 76.2539 51.8686 74.2043 52.213H74.2065Z" fill="#191919"/>
</svg>
