
<svg width="24" height="26" viewBox="0 0 24 26" fill="none" xmlns="http://www.w3.org/2000/svg">
<path d="M16.8228 7.00143L6.39267 17.5889C6.04737 17.9694 5.86184 18.4678 5.8745 18.9811C5.88715 19.4943 6.09703 19.983 6.46067 20.346C6.8243 20.7091 7.31386 20.9186 7.82796 20.9312C8.34207 20.9439 8.84135 20.7587 9.22245 20.4139L21.656 7.82643C22.3466 7.06553 22.7176 6.06865 22.6923 5.04217C22.667 4.0157 22.2472 3.03825 21.52 2.3122C20.7927 1.58615 19.8136 1.16711 18.7854 1.14184C17.7572 1.11657 16.7586 1.48699 15.9964 2.17643L3.56289 14.7639C2.43713 15.8878 1.80469 17.4121 1.80469 19.0014C1.80469 20.5908 2.43713 22.1151 3.56289 23.2389C4.68864 24.3628 6.2155 24.9942 7.80756 24.9942C9.39962 24.9942 10.9265 24.3628 12.0522 23.2389L22.3321 13.0014" stroke="#9CA3AF" stroke-width="2" stroke-linecap="round" stroke-linejoin="round"/>
</svg>
