<svg width="24" height="25" viewBox="0 0 24 25" fill="none" xmlns="http://www.w3.org/2000/svg">
<path d="M12 9.00977V12.0098V9.00977ZM12 12.0098V15.0098V12.0098ZM12 12.0098H15H12ZM12 12.0098H9H12ZM21 12.0098C21 13.1917 20.7672 14.362 20.3149 15.4539C19.8626 16.5458 19.1997 17.538 18.364 18.3737C17.5282 19.2095 16.5361 19.8724 15.4442 20.3247C14.3522 20.777 13.1819 21.0098 12 21.0098C10.8181 21.0098 9.64778 20.777 8.55585 20.3247C7.46392 19.8724 6.47177 19.2095 5.63604 18.3737C4.80031 17.538 4.13738 16.5458 3.68508 15.4539C3.23279 14.362 3 13.1917 3 12.0098C3 9.62282 3.94821 7.33363 5.63604 5.6458C7.32387 3.95798 9.61305 3.00977 12 3.00977C14.3869 3.00977 16.6761 3.95798 18.364 5.6458C20.0518 7.33363 21 9.62282 21 12.0098Z" stroke="currentColor" stroke-width="2" stroke-linecap="round" stroke-linejoin="round"/>
</svg>
