<svg width="24" height="25" viewBox="0 0 24 25" fill="none" xmlns="http://www.w3.org/2000/svg">
<path d="M8.228 9.7041C8.777 8.5391 10.258 7.7041 12 7.7041C14.21 7.7041 16 9.0471 16 10.7041C16 12.1041 14.722 13.2791 12.994 13.6111C12.452 13.7151 12 14.1511 12 14.7041M12 17.7041H12.01M21 12.7041C21 13.886 20.7672 15.0563 20.3149 16.1483C19.8626 17.2402 19.1997 18.2323 18.364 19.0681C17.5282 19.9038 16.5361 20.5667 15.4442 21.019C14.3522 21.4713 13.1819 21.7041 12 21.7041C10.8181 21.7041 9.64778 21.4713 8.55585 21.019C7.46392 20.5667 6.47177 19.9038 5.63604 19.0681C4.80031 18.2323 4.13738 17.2402 3.68508 16.1483C3.23279 15.0563 3 13.886 3 12.7041C3 10.3172 3.94821 8.02797 5.63604 6.34014C7.32387 4.65231 9.61305 3.7041 12 3.7041C14.3869 3.7041 16.6761 4.65231 18.364 6.34014C20.0518 8.02797 21 10.3172 21 12.7041Z" stroke="#111827" stroke-width="2" stroke-linecap="round" stroke-linejoin="round"/>
</svg>
