<svg width="32" height="32" viewBox="0 0 32 32" fill="none" xmlns="http://www.w3.org/2000/svg">
<path fill-rule="evenodd" clip-rule="evenodd" d="M28.7992 15.9992C28.7992 19.394 27.4507 22.6497 25.0502 25.0502C22.6497 27.4507 19.394 28.7992 15.9992 28.7992C12.6044 28.7992 9.34872 27.4507 6.94825 25.0502C4.54779 22.6497 3.19922 19.394 3.19922 15.9992C3.19922 12.6044 4.54779 9.34872 6.94825 6.94825C9.34872 4.54779 12.6044 3.19922 15.9992 3.19922C19.394 3.19922 22.6497 4.54779 25.0502 6.94825C27.4507 9.34872 28.7992 12.6044 28.7992 15.9992ZM15.9992 11.1992C15.7181 11.1989 15.4419 11.2727 15.1983 11.4132C14.9548 11.5536 14.7526 11.7558 14.612 11.9992C14.5105 12.1878 14.3722 12.3541 14.2052 12.4883C14.0383 12.6224 13.8461 12.7217 13.64 12.7802C13.434 12.8387 13.2183 12.8552 13.0058 12.8288C12.7932 12.8024 12.5882 12.7336 12.4027 12.6264C12.2173 12.5193 12.0552 12.376 11.9261 12.2051C11.7971 12.0342 11.7037 11.8391 11.6514 11.6314C11.5992 11.4236 11.5892 11.2076 11.622 10.9959C11.6548 10.7843 11.7297 10.5814 11.8424 10.3992C12.3708 9.4842 13.1863 8.76908 14.1625 8.36476C15.1386 7.96044 16.221 7.88952 17.2416 8.16299C18.2622 8.43646 19.164 9.03905 19.8073 9.8773C20.4505 10.7155 20.7992 11.7426 20.7992 12.7992C20.7995 13.7922 20.4919 14.7609 19.9188 15.5718C19.3457 16.3827 18.5353 16.996 17.5992 17.3272V17.5992C17.5992 18.0236 17.4306 18.4305 17.1306 18.7306C16.8305 19.0306 16.4236 19.1992 15.9992 19.1992C15.5749 19.1992 15.1679 19.0306 14.8678 18.7306C14.5678 18.4305 14.3992 18.0236 14.3992 17.5992V15.9992C14.3992 15.5749 14.5678 15.1679 14.8678 14.8678C15.1679 14.5678 15.5749 14.3992 15.9992 14.3992C16.4236 14.3992 16.8305 14.2306 17.1306 13.9306C17.4306 13.6305 17.5992 13.2236 17.5992 12.7992C17.5992 12.3749 17.4306 11.9679 17.1306 11.6678C16.8305 11.3678 16.4236 11.1992 15.9992 11.1992ZM15.9992 23.9992C16.4236 23.9992 16.8305 23.8306 17.1306 23.5306C17.4306 23.2305 17.5992 22.8236 17.5992 22.3992C17.5992 21.9749 17.4306 21.5679 17.1306 21.2678C16.8305 20.9678 16.4236 20.7992 15.9992 20.7992C15.5749 20.7992 15.1679 20.9678 14.8678 21.2678C14.5678 21.5679 14.3992 21.9749 14.3992 22.3992C14.3992 22.8236 14.5678 23.2305 14.8678 23.5306C15.1679 23.8306 15.5749 23.9992 15.9992 23.9992Z" fill="#E54A2B"/>
</svg>
