<svg width="20" height="20" viewBox="0 0 20 20" fill="none" xmlns="http://www.w3.org/2000/svg">
<path d="M11.4696 3.11625L11.4697 3.11633L14.8837 6.53033L14.8837 6.53041C15.1181 6.76474 15.2499 7.08256 15.25 7.414C15.25 7.41405 15.25 7.41411 15.25 7.41416V16C15.25 16.3315 15.1183 16.6495 14.8839 16.8839C14.6495 17.1183 14.3315 17.25 14 17.25H13.9155C14.4886 16.2062 14.7799 15.0209 14.7461 13.8125C14.6978 12.0883 13.9913 10.448 12.7717 9.22831C11.552 8.00866 9.91173 7.30218 8.18755 7.25393C6.97912 7.22011 5.79376 7.51142 4.75 8.08448V4C4.75 3.66848 4.8817 3.35054 5.11612 3.11612C5.35054 2.8817 5.66848 2.75 6 2.75H10.5858C10.5859 2.75 10.5859 2.75 10.586 2.75C10.9174 2.75011 11.2353 2.88185 11.4696 3.11625Z" fill="#E54A2B" stroke="#E54A2B" stroke-width="1.5"/>
<path fill-rule="evenodd" clip-rule="evenodd" d="M8.0002 10C7.29487 9.9999 6.60204 10.1863 5.99199 10.5403C5.38193 10.8943 4.87633 11.4034 4.52645 12.0158C4.17657 12.6283 3.99485 13.3223 3.99973 14.0276C4.0046 14.733 4.19589 15.4245 4.5542 16.032L3.2932 17.292C3.20029 17.3848 3.12658 17.4951 3.07627 17.6164C3.02596 17.7377 3.00005 17.8678 3 17.9991C2.99995 18.1305 3.02578 18.2606 3.076 18.3819C3.12622 18.5033 3.19986 18.6136 3.2927 18.7065C3.38555 18.7994 3.49578 18.8731 3.61712 18.9234C3.73845 18.9737 3.8685 18.9997 3.99985 18.9997C4.1312 18.9997 4.26127 18.9739 4.38264 18.9237C4.50401 18.8735 4.61429 18.7998 4.7072 18.707L5.9682 17.446C6.49805 17.7583 7.09277 17.9442 7.70614 17.9892C8.31951 18.0343 8.93502 17.9373 9.50482 17.7058C10.0746 17.4743 10.5834 17.1146 10.9915 16.6545C11.3996 16.1944 11.6962 15.6464 11.8581 15.0531C12.02 14.4598 12.043 13.8371 11.9251 13.2335C11.8072 12.6298 11.5518 12.0615 11.1785 11.5727C10.8053 11.0838 10.3244 10.6876 9.77317 10.4149C9.22194 10.1421 8.61523 10.0001 8.0002 10ZM6.0002 14C6.0002 13.4696 6.21092 12.9609 6.58599 12.5858C6.96106 12.2107 7.46977 12 8.0002 12C8.53064 12 9.03934 12.2107 9.41442 12.5858C9.78949 12.9609 10.0002 13.4696 10.0002 14C10.0002 14.5304 9.78949 15.0391 9.41442 15.4142C9.03934 15.7893 8.53064 16 8.0002 16C7.46977 16 6.96106 15.7893 6.58599 15.4142C6.21092 15.0391 6.0002 14.5304 6.0002 14Z" fill="#E54A2B"/>
</svg>
