<svg width="32" height="32" viewBox="0 0 32 32" fill="none" xmlns="http://www.w3.org/2000/svg">
<path d="M16.0003 2.66602C17.7513 2.66602 19.4851 3.01089 21.1028 3.68096C22.7204 4.35102 24.1903 5.33314 25.4284 6.57126C26.6665 7.80937 27.6487 9.27923 28.3187 10.8969C28.9888 12.5146 29.3337 14.2484 29.3337 15.9993C29.3337 19.5356 27.9289 22.927 25.4284 25.4274C22.9279 27.9279 19.5365 29.3327 16.0003 29.3327C14.2494 29.3327 12.5156 28.9878 10.8979 28.3177C9.2802 27.6477 7.81035 26.6656 6.57223 25.4274C4.07175 22.927 2.66699 19.5356 2.66699 15.9993C2.66699 12.4631 4.07175 9.07174 6.57223 6.57126C9.07272 4.07077 12.4641 2.66602 16.0003 2.66602ZM10.667 10.2793V14.7327L15.5199 15.9993L10.667 17.266V21.7193L24.0003 15.9993L10.667 10.2793Z" fill="#E54A2B"/>
</svg>
