<svg width="28" height="27" viewBox="0 0 28 27" fill="none" xmlns="http://www.w3.org/2000/svg">
<path d="M12.0458 4.74078C12.5428 2.81232 15.4572 2.81232 15.9542 4.74078C16.0287 5.03049 16.1749 5.29953 16.3808 5.526C16.5867 5.75248 16.8465 5.92999 17.1391 6.04408C17.4317 6.15818 17.7487 6.20564 18.0644 6.18259C18.3801 6.15955 18.6856 6.06666 18.956 5.91148C20.7562 4.87916 22.8177 6.8186 21.721 8.51425C21.5564 8.76865 21.4579 9.05604 21.4334 9.35303C21.409 9.65003 21.4594 9.94826 21.5804 10.2235C21.7015 10.4987 21.8899 10.7432 22.1302 10.937C22.3705 11.1308 22.656 11.2685 22.9635 11.3389C25.0122 11.8067 25.0122 14.55 22.9635 15.0179C22.6557 15.0881 22.3699 15.2257 22.1293 15.4195C21.8887 15.6133 21.7002 15.8579 21.579 16.1333C21.4578 16.4087 21.4073 16.7071 21.4318 17.0043C21.4563 17.3015 21.555 17.5891 21.7198 17.8436C22.8165 19.5381 20.7562 21.4787 18.9548 20.4463C18.6846 20.2914 18.3793 20.1986 18.0638 20.1757C17.7483 20.1527 17.4314 20.2001 17.1391 20.314C16.8467 20.428 16.587 20.6053 16.3811 20.8315C16.1752 21.0577 16.0289 21.3265 15.9542 21.6159C15.4572 23.5444 12.5428 23.5444 12.0458 21.6159C11.9713 21.3262 11.8251 21.0572 11.6192 20.8307C11.4133 20.6042 11.1535 20.4267 10.8609 20.3126C10.5683 20.1985 10.2513 20.1511 9.93558 20.1741C9.61986 20.1972 9.31438 20.2901 9.044 20.4452C7.24383 21.4776 5.18233 19.5381 6.279 17.8425C6.44362 17.5881 6.54214 17.3007 6.56656 17.0037C6.59099 16.7067 6.54062 16.4085 6.41955 16.1332C6.29848 15.858 6.11014 15.6136 5.86982 15.4198C5.6295 15.226 5.34399 15.0883 5.0365 15.0179C2.98783 14.55 2.98783 11.8067 5.0365 11.3389C5.34427 11.2687 5.63008 11.131 5.87067 10.9372C6.11126 10.7434 6.29983 10.4988 6.42104 10.2234C6.54224 9.94806 6.59266 9.64962 6.56818 9.35242C6.5437 9.05522 6.44502 8.76766 6.28017 8.51315C5.1835 6.8186 7.24383 4.87806 9.04517 5.91038C10.2072 6.57809 11.7238 5.98726 12.0458 4.74078Z" stroke="#111827" stroke-width="2" stroke-linecap="round" stroke-linejoin="round"/>
<path d="M17.5 13.1784C17.5 14.0522 17.1313 14.8902 16.4749 15.5081C15.8185 16.126 14.9283 16.4731 14 16.4731C13.0717 16.4731 12.1815 16.126 11.5251 15.5081C10.8687 14.8902 10.5 14.0522 10.5 13.1784C10.5 12.3046 10.8687 11.4666 11.5251 10.8488C12.1815 10.2309 13.0717 9.88379 14 9.88379C14.9283 9.88379 15.8185 10.2309 16.4749 10.8488C17.1313 11.4666 17.5 12.3046 17.5 13.1784V13.1784Z" stroke="#111827" stroke-width="2" stroke-linecap="round" stroke-linejoin="round"/>
</svg>
