<svg width="172" height="171" viewBox="0 0 172 171" fill="none" xmlns="http://www.w3.org/2000/svg">
<path d="M40.6441 131.083C42.5906 131.491 44.5811 131.649 46.5675 131.554C48.0408 131.51 49.5106 131.388 50.9708 131.187C51.4389 131.177 51.894 131.032 52.2806 130.767C52.3108 130.718 52.3221 130.658 52.3126 130.601C52.303 130.543 52.2732 130.491 52.2285 130.454C51.7155 130.161 51.6078 130.55 46.5154 130.82C44.3967 130.932 43.9111 130.767 40.6441 130.767C40.4868 130.767 40.4346 131.083 40.6441 131.083Z" fill="#191919"/>
<path d="M39.0197 133.55C41.798 134.327 44.6812 134.663 47.5638 134.545C48.5171 134.574 49.4698 134.468 50.3938 134.232C50.4533 134.214 50.5046 134.176 50.5391 134.124C50.5736 134.072 50.5891 134.01 50.583 133.948C50.5768 133.886 50.5494 133.829 50.5054 133.785C50.4614 133.741 50.4035 133.714 50.3416 133.708C48.6941 133.523 47.769 134.516 39.1771 133.289C38.9146 133.179 38.8103 133.493 39.0197 133.55Z" fill="#191919"/>
<path d="M40.5917 136.481C42.2445 137.048 43.9812 137.332 45.7285 137.32C46.5849 137.339 47.4416 137.303 48.2935 137.215C49.1411 137.204 49.9781 137.026 50.7568 136.691C50.9141 136.587 50.8098 136.377 50.6525 136.324C49.8107 136.299 48.9683 136.351 48.1362 136.481C45.6127 136.577 43.0858 136.437 40.5883 136.062C40.4344 136.116 40.3822 136.429 40.5917 136.481Z" fill="#191919"/>
<path d="M96.7303 130.717C96.4603 133.065 96.3902 135.432 96.5208 137.793C96.5421 140.141 96.6997 142.486 96.9928 144.816C97.0449 145.235 97.6768 145.131 97.6768 144.711C97.6768 143.559 97.5194 142.352 97.4143 141.2C97.1732 138.542 97.1527 135.333 97.0996 134.176C97.0996 133.023 96.9953 131.817 96.9423 130.664C96.915 130.487 96.7303 130.558 96.7303 130.717Z" fill="#191919"/>
<path d="M32.0499 137.583C31.7352 136.85 31.3659 136.064 31.0538 135.33C30.9495 135.068 30.5827 135.12 30.4254 135.33C29.9393 135.997 29.5013 136.698 29.1147 137.427C28.6944 138.148 28.3778 138.925 28.1742 139.735C28.1211 139.998 28.4879 140.155 28.5931 139.945C29.2169 138.697 29.917 137.489 30.6896 136.328C30.8888 136.767 32.1798 139.788 32.4192 140.206C32.6296 140.574 33.258 140.312 33.1032 139.945C32.8123 139.132 32.4601 138.343 32.0499 137.583Z" fill="#191919"/>
<path d="M30.5804 139.156C30.5644 139.101 30.5298 139.054 30.4827 139.023C30.4355 138.991 30.3788 138.978 30.3225 138.984C30.2662 138.99 30.2139 139.016 30.1747 139.057C30.1356 139.098 30.1121 139.151 30.1084 139.208C30.1084 140.257 29.9878 138.73 30.3179 144.345C30.3709 144.817 31.1045 144.817 31.1045 144.345C31.0523 143.454 30.9993 142.615 30.895 141.724C30.8662 140.86 30.7609 140.001 30.5804 139.156Z" fill="#191919"/>
<path d="M76.8118 137.057C76.7528 136.801 76.2877 136.848 76.2877 137.11C76.3399 137.529 76.8118 141.513 76.9161 141.827C76.445 141.933 40.4342 151.368 39.2286 151.786C38.914 149.221 38.495 146.65 38.0752 144.03C37.6563 141.251 33.666 110.58 33.5617 109.899C43.8217 110.623 58.7337 108.617 69.1066 106.028C70.5737 105.66 73.6902 104.812 73.6902 104.76C73.6902 106.47 74.0245 116.64 74.6102 118.397C74.6345 118.442 74.6715 118.478 74.7166 118.502C74.7617 118.525 74.8128 118.535 74.8634 118.53C74.914 118.524 74.9618 118.504 75.0008 118.471C75.0397 118.438 75.0681 118.395 75.0822 118.346C75.1557 118.122 74.4435 106.706 74.3982 106.236C74.3452 105.608 74.2408 105.031 74.1878 104.402C74.1878 104.193 73.821 104.14 73.821 104.402C72.6112 104.156 71.385 103.999 70.1522 103.931C68.9988 103.825 67.8437 103.773 66.7451 103.669C52.6829 102.386 42.1031 98.8584 38.9114 98.0599C38.7541 98.0069 38.7019 98.0599 38.5976 98.165C21.7105 102.923 9.02658 102.162 4.94566 102.673C4.35657 102.673 5.38 104.815 6.72748 110.43C8.63329 118.109 9.5493 126.001 9.45322 133.913C9.40107 136.743 9.13858 139.574 8.92911 142.351C8.93199 142.405 8.9485 142.458 8.97709 142.503C9.00568 142.549 9.0454 142.587 9.09256 142.613C9.13971 142.639 9.19275 142.653 9.24671 142.653C9.30066 142.653 9.35377 142.64 9.40107 142.614C12.8681 143.902 19.7218 145.194 32.3595 150.11C33.4078 150.529 38.0205 152.418 38.4924 152.468C38.6498 152.625 39.0166 152.573 39.0687 152.363C40.1169 152.206 41.166 151.892 42.2143 151.63C43.4198 151.315 77.4907 142.299 77.4907 142.299C77.9122 142.144 76.9067 137.485 76.8118 137.057ZM18.6257 102.622C25.5696 102.046 32.4368 100.763 39.1209 98.7952C39.1604 98.7897 39.1971 98.7714 39.2252 98.743C44.3603 100.587 54.905 103.161 65.9055 104.301C66.1346 104.319 70.3703 104.72 71.6186 104.72C67.2581 105.723 67.1606 105.78 65.643 106.082C57.831 107.78 49.8865 108.798 41.8988 109.123C39.9545 109.194 38.0111 109.241 36.0668 109.279C31.4042 109.25 26.7559 108.759 22.1902 107.813C16.6951 106.615 11.2787 105.081 5.97166 103.22C9.45322 103.31 15.4288 102.919 18.6257 102.622ZM9.93715 141.952C10.7964 137.562 10.6682 131.6 10.3963 127.152C9.94317 120.317 8.74797 113.551 6.83179 106.974C6.64113 106.355 5.98791 104.324 5.73141 103.725C7.14701 104.398 8.62045 104.942 10.1338 105.35C15.6896 107.176 21.3908 108.525 27.1757 109.383C29.0771 109.729 31.0067 109.895 32.9392 109.879C32.9914 110.455 33.0982 110.905 33.1513 111.48C33.8729 120.87 35.7684 133.55 37.1869 143.035C37.6067 145.865 37.9735 148.749 38.5497 151.579C36.909 150.76 15.1646 142.717 9.94057 141.953L9.93715 141.952Z" fill="#191919"/>
<path d="M52.6477 90.4585C52.5956 90.8775 52.4382 91.2964 52.3861 91.6641C52.308 92.0621 52.2555 92.4648 52.2288 92.8696C52.0676 94.5067 52.0324 96.1537 52.1236 97.7961C52.1267 98.6135 52.2506 99.426 52.4913 100.207C52.5956 100.418 53.0154 100.418 53.0675 100.155C53.1022 99.77 53.0847 99.382 53.0154 99.0017C52.7881 96.5795 52.753 94.1431 52.9102 91.7153C52.9015 91.2957 52.919 90.876 52.9624 90.4585C52.9119 90.3029 52.6477 90.3029 52.6477 90.4585Z" fill="#191919"/>
<path d="M105.066 111.479C112.039 112.367 126.307 112.547 149.201 117.507C149.725 117.612 149.935 116.823 149.411 116.721C143.697 115.516 137.984 114.467 132.218 113.629C125.386 112.634 111.869 111 105.013 111.217C104.907 111.27 104.907 111.479 105.066 111.479Z" fill="#191919"/>
<path d="M110.463 113.891C109.166 115.039 107.957 116.283 106.846 117.613C105.906 118.713 104.538 119.972 103.911 121.283C103.899 121.312 103.896 121.344 103.903 121.375C103.909 121.406 103.924 121.434 103.946 121.457C103.969 121.479 103.997 121.494 104.028 121.501C104.059 121.507 104.091 121.504 104.121 121.492C105.4 120.544 106.516 119.393 107.423 118.085C108.612 116.818 109.732 115.488 110.778 114.101C110.88 113.944 110.624 113.787 110.463 113.891Z" fill="#191919"/>
<path d="M138.454 117.875C137.727 118.539 137.093 119.297 136.567 120.129C130.697 127.653 123.415 140.649 121.549 144.79C120.744 146.577 121.13 146.671 122.106 145.322C123.022 143.826 123.843 142.275 124.564 140.677C128.785 132.829 133.512 125.265 138.716 118.032C138.724 118.011 138.728 117.989 138.728 117.967C138.727 117.945 138.722 117.923 138.712 117.903C138.702 117.883 138.688 117.866 138.67 117.852C138.653 117.838 138.633 117.828 138.611 117.822C138.558 117.82 138.506 117.875 138.454 117.875Z" fill="#191919"/>
<path d="M109.782 119.187C111.366 120.258 113.283 120.723 115.181 120.497C118.295 120.011 119.939 117.091 119.322 114.994C119.217 114.574 118.638 114.783 118.693 115.151C118.821 116.046 118.649 116.959 118.204 117.746C117.758 118.534 117.064 119.151 116.23 119.501C114.185 120.442 111.879 119.711 109.939 118.817C109.73 118.765 109.573 119.08 109.782 119.187Z" fill="#191919"/>
<path d="M128.862 121.124C125.925 120.284 122.31 120.127 120.055 122.539C119.602 123.01 119.252 123.57 119.026 124.183C118.801 124.797 118.705 125.451 118.745 126.103C118.931 127.35 119.564 128.486 120.527 129.3C121.105 129.767 121.718 130.187 122.362 130.558C123.037 130.929 123.793 131.126 124.563 131.135C124.598 131.131 124.631 131.117 124.658 131.095C124.685 131.073 124.705 131.044 124.716 131.011C124.727 130.978 124.728 130.942 124.719 130.908C124.711 130.875 124.693 130.844 124.668 130.82C124.145 130.298 123.514 130.502 121.47 129.143C120.538 128.487 119.84 127.551 119.479 126.47C118.795 123.905 121.103 121.7 123.462 121.228C125.244 120.948 127.063 121.038 128.809 121.49C129.019 121.595 129.123 121.176 128.862 121.124Z" fill="#191919"/>
<path d="M106.48 123.954C108.334 123.965 110.149 124.491 111.722 125.474C114.182 127.245 114.116 130.384 112.455 131.659C112.193 131.869 112.56 132.393 112.822 132.183C115.267 130.371 114.69 125.456 109.939 124.061C108.792 123.772 107.607 123.666 106.428 123.747C106.253 123.778 106.27 123.901 106.48 123.954Z" fill="#191919"/>
<path d="M109.521 134.438C104.116 131.799 100.469 135.854 102.077 138.789C102.262 139.217 102.571 139.579 102.963 139.831C103.355 140.083 103.813 140.213 104.279 140.204C104.318 140.187 104.351 140.16 104.377 140.126C104.402 140.091 104.418 140.051 104.424 140.009C104.429 139.967 104.423 139.924 104.407 139.885C104.391 139.845 104.365 139.811 104.332 139.784C103.918 139.657 103.528 139.462 103.178 139.208C100.816 137.241 103.22 132.377 109.42 134.7C109.521 134.748 109.626 134.492 109.521 134.438Z" fill="#191919"/>
<path d="M120.842 136.483C119.412 136.187 117.947 136.099 116.491 136.221C115.351 136.276 114.232 136.543 113.189 137.007C110.02 138.593 110.795 143.258 116.177 144.293C116.246 144.312 116.32 144.302 116.382 144.268C116.444 144.233 116.49 144.175 116.51 144.107C116.531 144.039 116.524 143.965 116.491 143.902C116.458 143.839 116.402 143.791 116.334 143.769C114.395 143.14 111.932 142.145 111.932 139.733C111.932 137.479 114.605 136.903 116.387 136.692C117.85 136.535 119.326 136.535 120.789 136.692C120.947 136.745 120.947 136.483 120.842 136.483Z" fill="#191919"/>
<path d="M125.244 116.563C126.409 117.92 127.997 118.844 129.753 119.184C131.463 119.503 133.887 119.419 134.942 118.607C135.204 118.398 134.89 118.083 134.627 118.083C134.103 118.188 133.631 118.398 133.16 118.502C131.267 118.898 129.294 118.601 127.602 117.663C126.89 117.265 126.222 116.791 125.611 116.248C125.402 116.039 125.088 116.248 125.244 116.563Z" fill="#191919"/>
<path d="M132.164 37.2576C131.901 37.2576 124.878 37.3098 124.825 37.3098C124.825 37.5192 124.773 37.7287 124.773 37.939C124.878 37.939 132.896 38.0434 133.684 38.0434C133.614 38.6698 133.597 39.301 133.631 39.9303C133.631 40.7691 133.58 46.4831 133.684 47.321C133.317 47.321 124.664 47.9862 124.249 48.0554C124.258 48.2663 124.24 48.4774 124.196 48.6838C124.825 48.7368 127.97 48.5274 128.862 48.4222C129.753 48.37 133.631 48.1076 134.051 48.0554C134.208 48.1597 136.253 49.1558 136.306 49.1558C134.418 49.261 125.087 49.8398 124.145 49.9945V50.5708C125.14 50.6238 134.995 50.0467 137.196 49.8868C137.143 50.3579 137.143 55.2853 137.143 56.3848C137.091 58.5864 136.934 65.8753 136.987 66.3447C136.881 66.3447 124.825 67.8119 123.935 67.9692V68.5985C124.875 68.5985 137.143 67.0783 137.301 66.974C137.355 66.9704 137.407 66.9472 137.445 66.9087C137.484 66.8702 137.507 66.819 137.511 66.7645C137.609 65.9292 137.661 65.0892 137.668 64.2483C139.378 64.45 149.561 63.2043 149.672 63.0957C150.038 62.8332 150.247 58.43 150.247 57.4348C150.275 55.4728 150.17 53.5113 149.933 51.5635C149.927 51.5299 149.914 51.4982 149.893 51.4708C149.873 51.4435 149.846 51.4213 149.815 51.4061C149.785 51.3908 149.751 51.3829 149.717 51.3829C149.683 51.3829 149.649 51.3909 149.619 51.4062C149.567 51.4062 147.574 50.6726 147.155 50.5152C146.316 50.2006 139.869 47.3175 139.712 47.3706C138.186 47.391 136.662 47.5135 135.152 47.7373C135.047 47.6852 134.468 47.3706 134.418 47.3175C134.418 46.9533 134.523 38.853 134.155 37.5705C134.155 37.4132 134.104 37.3081 133.894 37.2559C133.643 36.8387 125.173 33.7213 125.087 33.6914C125.087 33.953 125.035 34.2155 125.035 34.4772C126.45 35.0551 131.954 37.1524 132.164 37.2576ZM137.615 63.7276C137.615 63.6421 137.878 52.4056 137.878 52.4056C138.766 52.5019 139.66 52.5197 140.551 52.4587C141.731 52.4587 147.966 52.2877 149.357 52.144C149.352 52.2295 149.043 62.4895 149.043 62.575C142.826 63.3556 138.35 63.5549 137.615 63.7276ZM139.555 48.2127C141.792 49.2567 146.829 51.3549 147.627 51.5147C147.541 51.5147 140.585 51.7712 140.498 51.7772C139.606 51.7334 138.711 51.7683 137.825 51.8815C137.825 50.7786 137.878 50.3613 137.825 49.7329C137.907 49.7034 137.976 49.6465 138.021 49.5718C138.066 49.4971 138.084 49.4091 138.072 49.3228C138.059 49.2365 138.017 49.1572 137.953 49.0981C137.889 49.039 137.807 49.0038 137.72 48.9985H137.354C137.354 48.7804 136.288 48.2649 136.2 48.2649C136.701 48.2649 136.053 48.2127 139.555 48.2127Z" fill="#191919"/>
<path d="M97.0449 65.7199C96.5208 66.4039 96.1044 67.1349 95.629 67.8685C93.848 67.5017 88.5009 66.3492 87.5578 66.1389L84.7269 65.6643C84.5696 65.6643 84.5166 65.8738 84.6739 65.8738C86.4836 66.4382 88.3208 66.9105 90.1784 67.2888C92.0132 67.7078 93.8993 68.0754 95.7359 68.5465C95.8131 68.5734 95.8973 68.5724 95.9738 68.5437C96.0503 68.5149 96.1144 68.4603 96.1548 68.3892C97.2039 66.6595 98.3051 64.9299 100.139 63.9868C103.236 62.476 107.373 65.1188 107.373 70.2283C107.378 70.3224 107.418 70.4112 107.487 70.4762C107.555 70.5412 107.645 70.5774 107.74 70.5774C107.834 70.5774 107.924 70.5412 107.993 70.4762C108.061 70.4112 108.101 70.3224 108.106 70.2283C108.428 64.5229 101.908 59.4297 97.0449 65.7199Z" fill="#E54A2B"/>
<path d="M111.041 91.3514C110.877 89.6414 111.086 86.3342 110.1 84.537C109.472 83.488 108.213 82.9638 107.218 83.8026C105.854 84.9038 105.802 87.0003 105.749 88.5726C105.749 89.0968 105.749 89.6739 105.802 90.1971C105.749 90.1971 102.08 90.2493 101.347 90.4066C101.136 90.4596 101.189 90.8264 101.399 90.8264C102.083 90.7734 105.435 90.7734 105.802 90.7734C105.854 91.088 105.854 91.6122 105.907 92.0841C105.854 92.0841 102.08 92.3988 101.713 92.4509C101.671 92.4642 101.634 92.4923 101.61 92.5302C101.587 92.568 101.577 92.6131 101.583 92.6573C101.59 92.7016 101.612 92.7421 101.645 92.7717C101.679 92.8012 101.722 92.8179 101.766 92.8186C102.133 92.8186 105.907 92.7125 105.956 92.6612C106.008 93.4017 106.608 101.779 106.794 103.092C106.637 103.04 102.654 103.354 102.444 103.407C102.401 103.42 102.363 103.448 102.339 103.485C102.315 103.523 102.305 103.569 102.311 103.613C102.318 103.658 102.34 103.698 102.374 103.728C102.408 103.757 102.452 103.774 102.497 103.774C102.706 103.774 106.686 103.722 106.847 103.669C106.854 103.755 107.064 105.938 107.109 106.028C106.425 106.08 103.23 106.499 103.021 106.552C102.811 106.605 102.863 106.866 103.073 106.866C103.23 106.866 107.162 106.657 107.162 106.657C107.267 107.548 107.371 108.491 107.476 109.382C107.476 109.593 107.843 109.593 107.791 109.382C107.633 107.338 106.69 93.028 106.585 90.9846C106.509 89.5533 106.357 86.813 107.004 85.4271C107.603 83.924 108.725 83.8428 109.363 84.7978C110.299 86.2462 110.145 88.783 110.254 90.8264C111.221 102.748 111.185 107.283 111.722 109.539C111.774 109.801 112.141 109.748 112.194 109.486C112.255 108.438 112.237 107.387 112.141 106.341C112.097 105.463 111.048 91.4395 111.041 91.3514Z" fill="#E54A2B"/>
<path d="M166.028 89.4646C165.856 89.0989 165.609 88.774 165.301 88.512C164.994 88.2499 164.634 88.0567 164.246 87.9453C162.359 87.4212 161.206 89.5176 160.368 90.8284C159.147 92.8062 158.078 94.8738 157.17 97.0134C156.698 96.8031 151.613 95.1264 151.089 94.9691C151.142 94.7596 152.348 88.6789 151.457 86.1105C151.089 85.0622 150.356 83.7515 148.993 84.0662C147.735 84.3808 147.054 86.0583 146.582 87.1065C145.718 89.2158 145.017 91.3882 144.485 93.6045C143.991 93.3777 143.456 93.2527 142.913 93.2369C143.122 91.8219 143.804 88.8867 143.853 87.8906C143.908 87.8485 143.947 87.7903 143.966 87.7244C143.985 87.6584 143.982 87.5882 143.959 87.5238C143.56 85.341 141.864 83.0196 140.29 81.4439C134.4 75.7316 125.623 75.7804 118.487 79.8707C117.149 80.5624 115.885 81.388 114.713 82.3348C113.948 82.9397 113.307 83.6874 112.826 84.5364C112.301 85.5846 112.564 86.685 112.669 87.7854C113.392 94.7679 113.742 101.784 113.717 108.804H113.665C113.62 108.817 113.58 108.845 113.552 108.883C113.523 108.921 113.508 108.967 113.508 109.014C113.508 109.061 113.523 109.107 113.552 109.145C113.58 109.183 113.62 109.21 113.665 109.224C114.907 109.469 116.175 109.557 117.439 109.485C122.21 109.737 127.973 110.237 133.269 111.006C135.101 111.201 136.921 111.498 138.72 111.896C139.296 112.055 139.507 109.485 139.454 109.485C140.063 109.687 140.7 109.794 141.341 109.8C141.236 110.484 140.975 112.264 140.975 112.264C140.975 112.264 141.659 112.948 141.708 112.421C142.401 107.868 145.295 88.2249 148.627 85.0614C149.728 84.0653 150.462 85.6377 150.723 86.5286C151.754 90.3051 150.218 95.2581 148.889 100.472C147.934 104.077 146.675 108.19 144.956 113.681C144.949 113.715 144.957 113.752 144.976 113.781C144.996 113.81 145.026 113.831 145.061 113.838C145.096 113.845 145.132 113.837 145.161 113.818C145.191 113.798 145.211 113.768 145.218 113.733L146.319 110.588C146.266 110.693 152.032 112.213 151.98 112.37C151.793 113.059 151.652 113.759 151.56 114.467C151.508 114.677 151.823 114.729 151.875 114.572C153.251 110.561 155.251 100.84 159.685 93.0813C160.363 91.7192 161.189 90.4361 162.149 89.2552C162.302 89.0449 162.498 88.8703 162.725 88.7434C162.952 88.6166 163.204 88.5406 163.463 88.5206C163.722 88.5006 163.983 88.5371 164.226 88.6276C164.47 88.7181 164.691 88.8605 164.874 89.0448C166.372 90.6488 165.085 93.5156 164.665 94.7058C164.402 95.5967 164.089 96.4876 163.826 97.3794C161.715 103.545 161.689 103.676 159.319 109.75C158.847 110.85 158.427 111.951 157.956 112.999C157.485 114.046 157.015 115.095 156.592 116.196C156.488 116.511 156.96 116.72 157.169 116.406C159.063 112.499 160.743 108.492 162.202 104.402C162.57 103.376 165.385 95.5753 165.871 93.814C166.235 92.558 166.717 90.8754 166.028 89.4646ZM119.217 108.964C119.131 108.964 115.567 108.754 114.971 108.754H114.394C114.709 108.754 113.87 94.3903 113.766 93.1343C113.661 91.7714 113.503 90.3564 113.346 88.9935C113.294 88.4164 113.032 85.3769 113.084 85.2717C113.498 84.3796 114.129 83.605 114.918 83.0179C115.859 82.2843 116.911 81.6551 117.911 81.0258C125.937 75.9813 136.134 76.5216 141.603 84.3278C142.291 85.4064 142.837 86.5695 143.228 87.788C143.362 88.2924 142.703 91.8766 142.39 93.3959C142.19 93.4445 142.002 93.5351 141.84 93.6617C141.678 93.7884 141.545 93.9481 141.449 94.1304C141.317 94.3353 141.25 94.5762 141.26 94.8202C141.269 95.0641 141.354 95.2992 141.502 95.4932C141.616 95.642 141.758 95.7666 141.92 95.86C141.345 97.5897 139.405 106.658 139.405 106.71C139.21 106.802 139.033 106.926 138.881 107.078C138.705 107.273 138.583 107.512 138.528 107.769C138.473 108.027 138.486 108.294 138.566 108.545C138.656 108.784 138.8 108.999 138.986 109.174C138.986 109.226 138.619 111.009 138.566 111.113C132.163 110.026 125.702 109.309 119.217 108.964ZM141.494 109.069C141.441 109.278 140.498 109.069 140.393 109.069C140.13 109.042 139.88 108.939 139.675 108.772C139.47 108.605 139.319 108.381 139.24 108.128C138.821 106.504 141.756 107.444 141.756 107.394C141.651 107.969 141.547 108.493 141.494 109.069ZM141.808 106.867C141.558 106.674 141.27 106.537 140.963 106.465C140.655 106.392 140.336 106.387 140.026 106.448C140.445 104.351 141.861 98.6909 142.28 96.0174C142.385 96.0704 143.747 96.4885 143.695 96.4885C143.902 96.4885 143.905 95.3393 141.808 106.867ZM143.958 95.86C144.01 95.7549 142.228 95.3881 142.019 95.0221C141.72 94.4989 142.222 93.814 143.486 93.973C143.591 93.973 144.325 94.1825 144.325 94.1825C144.22 94.7066 144.063 95.2838 143.958 95.86ZM152.239 111.743C151.299 111.375 146.682 110.169 146.526 110.169C146.736 109.593 146.945 108.964 147.155 108.388C147.574 108.545 151.715 109.856 152.606 110.222C152.54 110.741 152.417 111.251 152.239 111.743ZM155.332 101.521C154.459 103.945 153.109 108.51 152.816 109.593C151.043 108.887 149.221 108.31 147.365 107.864C148.545 104.554 149.544 101.183 150.357 97.7641C152.062 98.4366 153.81 98.9914 155.591 99.4245C155.905 99.4775 156.167 99.0047 155.852 98.8474C155.067 98.4806 154.123 98.2711 153.287 97.9565C152.36 97.667 151.415 97.4385 150.457 97.2725C150.615 96.6432 150.772 95.9618 150.929 95.3334C151.497 95.5899 156.446 97.4563 156.8 97.535C156.328 98.9004 155.805 100.211 155.332 101.521Z" fill="#E54A2B"/>
<path d="M121.629 82.8068C121.524 82.4392 121.261 82.3349 120.633 82.5443C119.747 82.8387 118.901 83.2438 118.117 83.7499C117.593 84.0645 116.02 84.7981 115.915 85.4796C115.915 90.2043 116.803 105.758 116.856 106.289C116.854 106.331 116.861 106.373 116.876 106.412C116.891 106.451 116.915 106.486 116.944 106.516C116.974 106.546 117.009 106.569 117.048 106.584C117.087 106.599 117.129 106.606 117.171 106.604C118.393 106.875 119.656 106.911 120.892 106.708C121.679 106.447 121.416 104.821 121.416 104.143C121.587 101.578 121.853 87.8607 121.679 85.064C121.82 84.3164 121.803 83.5475 121.629 82.8068ZM121.055 87.1049V91.7698C121.003 94.8623 120.636 105.188 120.688 105.975C119.692 105.941 118.695 105.958 117.701 106.028C117.701 104.769 117.386 99.4759 117.281 98.1122C117.072 94.0236 117.177 89.7785 116.443 85.742C117.798 84.5129 119.409 83.5998 121.16 83.0685C121.047 84.4108 121.012 85.7585 121.055 87.1049Z" fill="#E54A2B"/>
<path d="M132.006 81.4977C132.006 81.4977 130.697 81.0257 130.591 80.9735C129.228 80.546 126.718 80.5631 125.611 81.3925C125.589 81.4148 125.573 81.4419 125.564 81.4715C125.555 81.5012 125.553 81.5326 125.558 81.5632C125.563 81.5938 125.576 81.6228 125.594 81.6478C125.612 81.6728 125.636 81.6931 125.664 81.7071C125.436 96.0258 125.533 89.8698 125.507 91.4541C125.507 98.1 125.14 101.853 125.14 103.772C125.027 104.694 124.992 105.623 125.036 106.551C125.087 107.075 128.285 106.97 129.175 106.97C129.542 106.97 130.066 99.893 130.434 96.9056C131.127 90.6761 132.374 83.3359 132.374 81.6011C132.373 81.5582 132.359 81.5166 132.333 81.4826C132.307 81.4485 132.27 81.4239 132.229 81.4122C132.187 81.4006 132.143 81.4026 132.103 81.418C132.063 81.4334 132.029 81.4614 132.006 81.4977ZM131.429 83.9609C129.89 92.6879 128.704 104.737 128.704 106.238C128.494 106.238 125.821 106.186 125.664 106.186C126.083 103.671 126.644 87.9358 125.926 81.655C126.733 81.655 127.696 81.1061 129.7 81.3925C129.91 81.4455 131.797 81.8645 131.745 82.1269C131.64 82.8084 131.532 83.3829 131.429 83.9609Z" fill="#E54A2B"/>
<path d="M139.921 87.6298C139.921 87.5777 139.921 87.5777 139.974 87.5247C140.184 86.8407 139.083 85.795 138.611 85.3761C138.072 84.8082 137.38 84.4077 136.619 84.2227C136.306 84.2227 136.41 84.2748 136.306 84.4843C135.844 85.8661 135.51 87.2874 135.309 88.7302C134.641 91.8518 132.889 102.32 132.531 104.561C132.426 105.245 131.847 106.869 132.636 107.338C132.95 107.548 135.885 108.387 136.043 107.757C136.63 105.92 137.701 101.247 137.982 99.8914C138.558 97.2742 139.764 88.3113 139.921 87.6298ZM136.462 103.145C136.306 103.879 135.623 106.605 135.414 107.233C134.567 107.127 133.727 106.97 132.898 106.762C133.039 105.459 133.249 104.164 133.527 102.883C133.788 101.415 136.462 85.5334 136.619 84.7989C137.353 85.3099 138.022 85.9085 138.611 86.5816C138.768 86.7389 139.345 87.3673 139.295 87.6298C138.807 90.5445 138.131 96.3372 136.462 103.145Z" fill="#E54A2B"/>
<path d="M69.735 36.4711C69.4646 36.2808 69.1632 36.139 68.8441 36.0521C67.365 35.5424 65.836 35.1908 64.2827 35.0031C63.1815 34.8988 61.9238 34.8988 61.2902 35.9436C60.7035 37.1722 60.3002 38.4804 60.0932 39.8261C59.7786 41.0838 59.5691 42.3911 59.3596 43.6522C59.2023 44.7005 58.8877 45.8539 59.3596 46.8499C59.6743 47.4784 60.2505 47.4784 60.8798 47.5339C64.517 47.8246 68.3183 47.4108 68.3183 47.6383C68.3322 47.6873 68.3603 47.7311 68.3992 47.764C68.4381 47.797 68.4858 47.8176 68.5365 47.8233C68.5871 47.829 68.6383 47.8195 68.6835 47.7959C68.7287 47.7724 68.7659 47.736 68.7903 47.6913C69.1341 46.8918 69.3466 46.0421 69.4195 45.175C69.7333 43.4453 69.9437 41.6627 70.1035 39.8808C70.207 39.0917 70.6191 37.1619 69.735 36.4711ZM68.3722 39.302C68.4099 39.2994 68.4475 39.3094 68.4789 39.3305C68.5104 39.3515 68.534 39.3824 68.546 39.4183C68.558 39.4541 68.5578 39.493 68.5454 39.5287C68.533 39.5645 68.509 39.5951 68.4773 39.6158C67.6948 40.1692 66.8289 40.5941 65.9123 40.8743L61.5057 42.9212C61.3483 42.9734 61.244 42.8161 61.4014 42.7109C62.4708 41.9838 63.5918 41.3357 64.7555 40.7717C65.7875 40.1502 67.2333 39.302 68.3722 39.302ZM66.0637 42.7613C65.7051 42.9882 65.317 43.1646 64.9103 43.2854C64.0194 43.7044 63.1285 44.1242 62.1845 44.5432C62.1429 44.5656 62.0944 44.5717 62.0485 44.5603C62.0026 44.5488 61.9626 44.5207 61.9364 44.4813C61.9102 44.4419 61.8996 44.3942 61.9068 44.3474C61.9139 44.3007 61.9383 44.2583 61.9751 44.2285C62.5966 43.7752 63.2644 43.3888 63.9672 43.076C64.5423 42.7105 65.1834 42.461 65.8542 42.3415C66.2791 42.2817 66.3159 42.5117 66.0662 42.7613H66.0637Z" fill="#E54A2B"/>
<path d="M167.074 30.3376C161.884 27.7726 161.069 27.0185 155.437 23.5763C155.406 23.522 155.36 23.478 155.304 23.45C155.248 23.422 155.185 23.4112 155.123 23.419L152.921 23.5763C149.641 23.0291 127.229 19.8998 115.967 18.8062C114.08 18.5703 112.008 18.56 111.04 18.4395C111.019 18.4395 110.999 18.4477 110.984 18.4625C110.969 18.4772 110.961 18.4973 110.961 18.5181C110.961 18.539 110.969 18.559 110.984 18.5737C110.999 18.5885 111.019 18.5968 111.04 18.5968C112.505 18.8097 148.308 23.6832 149.672 23.8901C148.346 23.8901 127.576 26.2097 125.036 26.8826C124.951 26.7971 78.7096 21.4465 78.5839 21.4379C108.319 19.0439 105.773 19.3859 106.428 19.2295C106.795 19.1773 106.69 18.6532 106.323 18.601C105.271 18.592 104.22 18.6621 103.178 18.8105C102.182 18.9148 86.1421 20.2255 82.1057 20.5402C80.9531 20.6445 75.7633 20.9591 75.2392 21.2242C75.0083 21.3396 75.2306 33.3652 75.2392 33.4892C74.8724 33.437 65.8042 32.1271 65.3331 32.0741C64.8082 32.022 64.2841 32.0741 63.8129 32.022C63.7078 32.022 63.6556 32.2315 63.7599 32.2315C64.284 32.3366 64.756 32.4939 65.2801 32.5983C65.7521 32.7034 74.8724 34.1706 75.2922 34.2228C75.3443 36.3714 75.4495 44.1818 75.5017 45.9636C75.5017 46.0609 75.5403 46.1542 75.6091 46.223C75.6779 46.2918 75.7712 46.3304 75.8684 46.3304C75.9657 46.3304 76.059 46.2918 76.1278 46.223C76.1966 46.1542 76.2352 46.0609 76.2352 45.9636C76.3096 41.5031 75.6949 22.8384 75.5512 21.6423C76.0446 21.8073 119.72 27.0288 123.041 27.4563C120.054 28.767 110.776 33.8517 110.619 34.009C110.463 34.1663 110.461 39.7743 110.461 41.875C110.409 50.3669 110.251 76.8377 110.251 81.5547C110.258 81.6361 110.293 81.7125 110.351 81.7702C110.408 81.8279 110.485 81.8631 110.566 81.8693C110.933 81.8693 118.482 75.8937 120.21 74.7404C120.997 74.2162 121.835 73.7451 122.675 73.221C122.707 73.2926 122.762 73.3516 122.831 73.3891C122.9 73.4265 122.979 73.4404 123.057 73.4284C123.134 73.4165 123.206 73.3795 123.26 73.323C123.315 73.2666 123.349 73.1938 123.359 73.1159C123.359 73.1159 133.318 71.5957 135.414 71.334C148.614 69.8104 154.929 69.5873 155.071 69.447C158.374 71.3995 161.405 73.7786 164.086 76.523C164.133 76.5671 164.19 76.5974 164.253 76.6105C164.315 76.6236 164.38 76.6191 164.44 76.5973C164.5 76.5755 164.552 76.5374 164.592 76.4872C164.631 76.4371 164.656 76.3769 164.663 76.3135C165.082 70.3901 166.917 34.1697 167.178 30.6061C167.283 30.5471 167.179 30.3898 167.074 30.3376ZM129.967 71.3776C128.814 71.5375 123.572 72.3737 123.415 72.4259C123.073 57.3621 123.633 42.2915 125.093 27.2947C126.221 27.2947 129.363 26.8065 130.7 26.6663C135.567 26.0259 147.672 24.7972 152.873 24.4125C153.502 24.5168 154.132 24.5689 154.76 24.6741C155.449 49.635 154.875 56.8443 154.498 68.9135C146.369 69.3881 138.142 70.2456 129.963 71.3802L129.967 71.3776Z" fill="#E54A2B"/>
<path d="M56.1609 46.1707C56.5175 42.1213 57.5266 38.1562 59.1492 34.4289C60.5505 31.7665 61.2448 31.427 64.0226 30.655C67.818 29.7923 68.2976 29.6597 70.8892 29.1878C72.0425 28.9775 73.2481 28.8201 74.4015 28.5038C74.45 28.4891 74.4917 28.4577 74.5193 28.4152C74.5469 28.3727 74.5586 28.3218 74.5522 28.2715C74.5459 28.2212 74.5219 28.1748 74.4846 28.1405C74.4474 28.1062 74.3991 28.0862 74.3485 28.084C73.2741 28.1464 72.2057 28.2867 71.1516 28.5038C69.1971 28.8945 63.7183 29.8829 61.8732 30.6003C60.6701 31.1156 59.6739 32.0185 59.0431 33.1653C57.1014 36.3638 55.9737 41.6879 55.4769 45.4354C55.3196 46.9547 55.2674 48.5279 55.1623 50.1002C55.058 51.9872 55.1101 53.9264 54.9528 55.8133C54.6202 59.9686 56.2233 59.7617 60.0896 60.0593C60.3335 60.0331 60.5794 60.0331 60.8232 60.0593C61.243 60.1114 61.243 59.43 60.8232 59.43C60.6138 59.43 60.3521 59.3257 60.1392 59.3257C59.6553 59.3257 57.9701 59.1709 57.3092 59.1154C57.0088 59.1078 56.7157 59.0218 56.4589 58.8658C56.2021 58.7098 55.9906 58.4892 55.8454 58.2262C55.6357 57.6023 55.5817 56.9366 55.6881 56.287C55.8984 52.8781 55.895 49.5231 56.1609 46.1707Z" fill="#E54A2B"/>
<path d="M144.324 77.1986C144.904 76.9211 145.408 76.5074 145.792 75.993C146.998 74.525 147.837 71.2752 147.941 70.4355C147.522 70.4886 142.123 71.1196 139.921 71.3761C139.345 71.4282 138.981 71.5855 138.926 72.2148C138.805 73.2528 139.006 74.3029 139.503 75.2221C140 76.1413 140.769 76.8849 141.704 77.3516C142.564 77.6467 143.505 77.5918 144.324 77.1986Z" fill="#191919"/>
<path d="M150.724 70.2266C150.04 70.2266 148.679 70.3317 148.312 70.3839C148.679 71.2226 148.207 72.4282 147.945 73.3191C147.741 74.2394 147.353 75.1088 146.803 75.8746C146.254 76.6404 145.555 77.2868 144.748 77.7745C144.996 77.7653 145.241 77.7304 145.482 77.6702C148.676 76.9888 151.349 73.5294 150.724 70.2266Z" fill="#191919"/>
<path d="M105.432 75.9935C106.051 74.8124 106.4 73.5087 106.455 72.1762C106.509 70.8438 106.267 69.5159 105.746 68.2882C102.625 60.6582 94.3312 67.6111 96.4687 75.2599C97.9701 80.4421 102.635 80.5113 105.432 75.9935ZM102.286 68.7072C101.4 68.2797 100.504 69.0748 100.137 69.8606C99.6319 71.0359 99.5394 72.3478 99.875 73.5824C99.9306 73.9035 100.065 74.2058 100.266 74.462C100.468 74.7183 100.73 74.9205 101.028 75.0504C101.448 75.1547 101.238 75.7344 100.871 75.6788C99.0756 75.4796 98.7481 72.6787 99.1414 70.9088C99.6459 68.3874 101.36 67.6778 102.39 68.5507C102.496 68.6567 102.392 68.7585 102.286 68.7072Z" fill="#191919"/>
<path d="M107.109 71.3802C107.214 72.4764 107.101 73.5825 106.777 74.635C106.453 75.6875 105.925 76.6656 105.221 77.5131C104.286 78.5191 103.141 79.3072 101.867 79.8216C102.305 79.8302 102.742 79.8128 103.178 79.7694C104.957 79.4652 106.552 78.4895 107.633 77.0437C108.819 75.4858 109.496 73.6006 109.572 71.6444C109.625 71.328 107.791 71.3802 107.109 71.3802Z" fill="#191919"/>
<path d="M68.1627 69.7565C68.4187 69.8373 68.6933 69.8373 68.9493 69.7565C69.5371 69.7292 70.111 69.5678 70.6268 69.2845C70.7066 69.2364 70.766 69.1606 70.7934 69.0715C70.8209 68.9825 70.8145 68.8864 70.7756 68.8017C70.7366 68.717 70.6678 68.6497 70.5823 68.6126C70.4968 68.5754 70.4006 68.5711 70.3121 68.6005C69.9975 68.7048 68.6876 69.0195 68.6346 69.0195C68.792 67.8669 69.4734 62.9917 69.5255 61.734C69.5255 61.689 69.5093 61.6455 69.4798 61.6115C69.4504 61.5775 69.4096 61.5552 69.3651 61.5488C69.3205 61.5424 69.2752 61.5522 69.2373 61.5765C69.1994 61.6007 69.1715 61.6378 69.1588 61.681C68.7124 63.3183 68.1729 67.0188 67.9532 68.7048C67.848 69.022 67.6873 69.5555 68.1627 69.7565Z" fill="#191919"/>
<path d="M72.6184 62.836C72.2516 62.7839 72.0943 63.2558 72.1465 63.52C72.232 64.1237 73.2639 63.9475 73.087 63.2584C73.0686 63.1452 73.0122 63.0416 72.927 62.9648C72.8418 62.888 72.7329 62.8425 72.6184 62.836Z" fill="#191919"/>
<path d="M66.8522 63.3612C66.9263 63.2985 66.9806 63.2155 67.0085 63.1225C67.0365 63.0295 67.0368 62.9303 67.0095 62.8371C66.9826 62.7278 66.9232 62.6292 66.8391 62.5544C66.755 62.4796 66.6501 62.4321 66.5384 62.4182C66.1707 62.3652 66.0143 62.8371 66.0664 63.1022C66.0877 63.1814 66.1284 63.2541 66.1848 63.3137C66.2412 63.3733 66.3115 63.4179 66.3894 63.4436C66.4673 63.4693 66.5504 63.4752 66.6312 63.4608C66.712 63.4465 66.7879 63.4122 66.8522 63.3612Z" fill="#191919"/>
<path d="M71.5178 71.8004C70.6874 72.2858 69.7392 72.5329 68.7774 72.5145C67.8157 72.4961 66.8776 72.2129 66.0664 71.6961C65.8569 71.5909 65.6465 71.8534 65.8039 72.0107C66.1916 72.3862 66.6568 72.6725 67.1667 72.8495C67.939 73.1252 68.7629 73.2259 69.5788 73.1443C70.3947 73.0627 71.1823 72.8008 71.8846 72.3775C72.3036 72.2202 71.9368 71.5909 71.5178 71.8004Z" fill="#191919"/>
<path d="M101.29 103.094C101.052 98.9476 100.691 91.227 99.3517 87.3675C97.6665 82.6787 94.5432 79.882 89.6047 79.7674C85.9162 79.6887 82.0217 81.0499 78.4982 81.9519C78.417 81.5125 78.2699 80.6694 78.2366 80.3274C77.9527 77.4093 78.5931 74.4322 79.2267 71.5346C80.5081 71.4951 81.7488 71.0755 82.7912 70.3291C83.1122 70.003 83.3626 69.6143 83.5269 69.1873C83.6912 68.7602 83.7658 68.3039 83.7462 67.8468C83.7265 67.3896 83.613 66.9414 83.4127 66.53C83.2123 66.1187 82.9295 65.7529 82.5817 65.4556C84.7303 64.722 85.3066 62.2579 83.1571 60.7898C85.4118 59.5843 84.3635 55.7582 82.3714 55.706C82.6497 55.2022 82.775 54.6282 82.7318 54.0543C82.6886 53.4804 82.4789 52.9315 82.1283 52.4751C81.7777 52.0187 81.3015 51.6745 80.7582 51.4848C80.2148 51.295 79.6279 51.268 79.0694 51.4071C78.8069 48.3145 74.9277 48.0007 72.9364 49.1541C71.8352 47.4766 67.6944 47.5296 66.5941 50.7786C64.0778 49.992 62.0865 52.5083 62.7149 55.181C62.3051 55.2494 61.9328 55.4607 61.6641 55.7775C61.3953 56.0943 61.2475 56.4961 61.2469 56.9116C61.1434 58.5668 62.797 59.9041 63.1869 61.367C63.8008 63.413 62.5029 65.2025 62.5029 72.5837C62.4285 73.4602 62.5725 74.3414 62.9218 75.1487C63.6563 76.5637 67.4277 77.7137 67.4302 77.8744C67.4368 78.5842 67.3027 79.2882 67.0356 79.9458C66.7685 80.6034 66.3738 81.2015 65.8741 81.7057C62.6303 80.7652 60.6698 79.7161 56.6325 78.7654C55.6567 78.5095 54.6364 78.4736 53.6451 78.6602C49.8036 79.469 46.7384 83.4379 45.467 87.1529C44.27 90.4378 43.999 94.5734 43.999 98.055C43.999 98.1072 44.229 98.1405 44.282 98.0883C44.8574 93.4714 44.9959 88.5123 47.5113 84.5306C48.5285 82.8164 49.9506 81.3779 51.6529 80.3411C53.5869 79.1809 55.1926 79.1809 57.366 79.817C62.0036 81.1739 66.4872 83.3285 71.4137 83.6431C78.7581 84.1074 86.6566 79.0261 92.6955 81.232C94.6779 81.9801 96.3431 83.3864 97.4125 85.2155C98.5403 87.2803 99.2695 89.5389 99.562 91.8734C100.88 101.107 100.962 117.74 100.246 123.48C100.123 124.59 99.7266 125.653 99.0926 126.573C98.5087 127.367 97.7793 128.043 96.9431 128.565C95.0392 129.718 93.0187 130.666 90.9154 131.395C82.8978 134.512 74.4774 136.472 65.9075 137.217C64.9935 127.812 65.1534 126.485 64.336 125.055C68.4075 123.742 75.793 119.916 90.1254 117.979C90.5443 117.927 90.44 117.193 90.0202 117.245C88.3957 117.455 86.7173 117.664 85.0937 117.979C84.1476 112.491 83.8155 106.915 84.1036 101.354C84.1616 99.9611 84.3107 98.5739 84.5499 97.2009C84.6132 96.8195 84.225 96.5314 84.0874 97.1085C82.6339 103.212 83.1511 111.909 84.2532 118.084C79.157 119.05 74.1576 120.471 69.3155 122.33C67.4853 122.982 65.7139 123.789 64.0205 124.741C63.9162 124.637 63.6024 124.741 63.7067 124.899C63.8893 125.39 64.0228 125.898 64.1052 126.415C62.2301 127.168 60.621 128.461 58.3604 127.519C57.7787 127.227 57.2182 126.894 56.6829 126.523C54.5423 125.169 52.0285 124.527 49.5009 124.688C48.0803 124.701 46.6819 125.042 45.4149 125.685C45.1524 125.843 45.3097 126.314 45.6243 126.21C46.8352 125.834 48.0825 125.588 49.3453 125.476C55.8621 125.205 56.8642 128.879 60.2482 128.568C61.003 128.468 61.7425 128.274 62.4499 127.992C63.0596 127.707 63.6403 127.363 64.1838 126.966C64.2138 127.221 64.2298 127.478 64.2317 127.735C64.3351 128.767 64.2496 128.242 64.7934 134.224C59.3888 137.46 53.3162 139.418 47.0394 139.948C45.2567 140.101 43.4749 140.158 41.6409 140.211C41.6079 140.208 41.5749 140.217 41.5483 140.237C41.5217 140.256 41.5034 140.285 41.4968 140.318C41.4902 140.35 41.4959 140.384 41.5127 140.413C41.5295 140.441 41.5563 140.462 41.5879 140.472C49.2829 141.466 58.2245 139.063 64.8439 135.061C64.827 135.912 64.9198 136.762 65.12 137.589C65.1022 137.638 65.0968 137.691 65.1044 137.743C65.112 137.794 65.1323 137.843 65.1636 137.885C65.1948 137.927 65.2359 137.96 65.2833 137.982C65.3306 138.004 65.3826 138.013 65.4347 138.01C75.5971 137.273 85.5505 134.753 94.8398 130.566C96.7707 129.814 98.4569 128.545 99.7133 126.897C101.129 124.852 101.024 122.127 101.181 119.769C101.585 114.219 101.621 108.648 101.29 103.094ZM74.8705 82.6496C72.1228 82.9711 69.3385 82.7326 66.6855 81.9485C67.1705 81.4461 67.5473 80.8495 67.7924 80.1957C68.0376 79.5418 68.146 78.8446 68.1108 78.1472C69.2666 78.5391 70.4619 78.8026 71.6753 78.9329C71.8318 78.9329 72.0943 78.9851 72.1994 78.8286C72.2351 78.7808 72.2607 78.7262 72.2747 78.6682C72.2887 78.6102 72.2909 78.55 72.2811 78.4912C72.2713 78.4323 72.2497 78.376 72.2176 78.3257C72.1855 78.2755 72.1435 78.2322 72.0943 78.1985C71.6129 77.8385 69.7456 78.0497 65.9083 76.4697C64.9865 76.1587 64.194 75.5503 63.6554 74.74C62.9005 73.4575 63.2852 72.9676 64.6515 57.5998C66.9044 58.0709 69.2112 57.5998 71.518 57.7041C75.1868 57.8093 78.0699 59.9058 78.0699 63.7327C77.8501 64.6987 77.5521 65.6451 77.179 66.5628C77.1268 66.8766 77.4414 67.2468 77.7022 67.0869C78.0699 65.724 79.8517 65.1999 81.2154 65.5667C82.5791 65.9335 85.0458 70.5719 79.1703 70.7036C78.9836 70.7013 78.8007 70.7562 78.6461 70.8609C77.9221 73.9657 77.5855 77.1483 77.6441 80.336C77.698 80.9281 77.7836 81.5169 77.9006 82.0999C76.905 82.3513 75.8935 82.5349 74.873 82.6496H74.8705Z" fill="#191919"/>
</svg>
