<svg width="100" height="100" viewBox="0 0 100 100" fill="none" xmlns="http://www.w3.org/2000/svg">
<path d="M67.4497 17.0625C65.8538 15.4666 63.2768 15.4312 61.6372 16.9833L39.583 37.8791V47.5291H89.583V39.1958L67.4497 17.0625Z" fill="url(#paint0_linear_19515_80644)"/>
<path d="M39.583 37.8792V43.3625H72.9163V35.0292L58.1643 20.2771L39.583 37.8792Z" fill="url(#paint1_linear_19515_80644)"/>
<path d="M46.6167 12.8959C45.0208 11.3 42.4438 11.2646 40.8042 12.8167L18.75 33.7125V43.3625H68.75V35.0292L46.6167 12.8959Z" fill="url(#paint2_linear_19515_80644)"/>
<path d="M46.6167 12.8959C45.0208 11.3 42.4438 11.2646 40.8042 12.8167L18.75 33.7125V43.3625H68.75V35.0292L46.6167 12.8959Z" fill="url(#paint3_linear_19515_80644)"/>
<path d="M19.7205 51.8271C18.7518 51.8271 17.8851 51.148 17.6809 50.1646L11.8997 22.0771C11.5018 20.148 9.78717 18.75 7.81842 18.75H4.16634C3.01634 18.75 2.08301 17.8167 2.08301 16.6667C2.08301 15.5167 3.01634 14.5834 4.16634 14.5834H7.81842C11.7538 14.5834 15.1872 17.3813 15.9809 21.2355L21.7622 49.323C21.9934 50.45 21.2684 51.5521 20.1413 51.7834C20.0018 51.8146 19.8601 51.8271 19.7205 51.8271Z" fill="url(#paint4_linear_19515_80644)"/>
<path d="M77.083 91.6666C80.5348 91.6666 83.333 88.8684 83.333 85.4166C83.333 81.9648 80.5348 79.1666 77.083 79.1666C73.6312 79.1666 70.833 81.9648 70.833 85.4166C70.833 88.8684 73.6312 91.6666 77.083 91.6666Z" fill="#5C5F61"/>
<path opacity="0.15" d="M77.0833 87.5C78.2339 87.5 79.1667 86.5673 79.1667 85.4167C79.1667 84.2661 78.2339 83.3334 77.0833 83.3334C75.9327 83.3334 75 84.2661 75 85.4167C75 86.5673 75.9327 87.5 77.0833 87.5Z" fill="black"/>
<path d="M31.25 91.6666C34.7018 91.6666 37.5 88.8684 37.5 85.4166C37.5 81.9648 34.7018 79.1666 31.25 79.1666C27.7982 79.1666 25 81.9648 25 85.4166C25 88.8684 27.7982 91.6666 31.25 91.6666Z" fill="#5C5F61"/>
<path opacity="0.15" d="M31.2503 87.5C32.4009 87.5 33.3337 86.5673 33.3337 85.4167C33.3337 84.2661 32.4009 83.3334 31.2503 83.3334C30.0997 83.3334 29.167 84.2661 29.167 85.4167C29.167 86.5673 30.0997 87.5 31.2503 87.5Z" fill="black"/>
<path d="M85.4167 81.25H27.0833C22.4875 81.25 18.75 77.5125 18.75 72.9167C18.75 68.3209 22.4875 64.5834 27.0833 64.5834H79.1667C80.3167 64.5834 81.25 65.5167 81.25 66.6667C81.25 67.8167 80.3167 68.75 79.1667 68.75H27.0833C24.7854 68.75 22.9167 70.6188 22.9167 72.9167C22.9167 75.2146 24.7854 77.0834 27.0833 77.0834H85.4167C86.5667 77.0834 87.5 78.0167 87.5 79.1667C87.5 80.3167 86.5667 81.25 85.4167 81.25Z" fill="url(#paint5_linear_19515_80644)"/>
<path d="M8.33333 16.6667C8.33333 18.9667 6.46667 20.8333 4.16667 20.8333C1.86667 20.8333 0 18.9667 0 16.6667C0 14.3667 1.86667 12.5 4.16667 12.5C6.46667 12.5 8.33333 14.3667 8.33333 16.6667Z" fill="url(#paint6_linear_19515_80644)"/>
<path d="M20.1874 65.3625C20.5624 67.3292 22.2812 68.75 24.2812 68.75H83.9708C86.0083 68.75 87.7458 67.2771 88.0812 65.2688L92.3791 39.4792L14.1104 33.4584L20.1874 65.3625Z" fill="url(#paint7_linear_19515_80644)"/>
<path d="M91.4812 31.075L12.5 25L14.1104 33.4583L92.3771 39.4792L93.375 33.4958C93.5771 32.2896 92.7 31.1688 91.4812 31.075Z" fill="url(#paint8_linear_19515_80644)"/>
<defs>
<linearGradient id="paint0_linear_19515_80644" x1="39.583" y1="31.6854" x2="89.583" y2="31.6854" gradientUnits="userSpaceOnUse">
<stop stop-color="#EBA600"/>
<stop offset="1" stop-color="#C28200"/>
</linearGradient>
<linearGradient id="paint1_linear_19515_80644" x1="67.3351" y1="29.5354" x2="58.0601" y2="38.8125" gradientUnits="userSpaceOnUse">
<stop stop-opacity="0"/>
<stop offset="1"/>
</linearGradient>
<linearGradient id="paint2_linear_19515_80644" x1="18.75" y1="27.5188" x2="68.75" y2="27.5188" gradientUnits="userSpaceOnUse">
<stop stop-color="#FFCF54"/>
<stop offset="0.261" stop-color="#FDCB4D"/>
<stop offset="0.639" stop-color="#F7C13A"/>
<stop offset="1" stop-color="#F0B421"/>
</linearGradient>
<linearGradient id="paint3_linear_19515_80644" x1="18.75" y1="27.5188" x2="68.75" y2="27.5188" gradientUnits="userSpaceOnUse">
<stop stop-color="#FFCF54"/>
<stop offset="0.261" stop-color="#FDCB4D"/>
<stop offset="0.639" stop-color="#F7C13A"/>
<stop offset="1" stop-color="#F0B421"/>
</linearGradient>
<linearGradient id="paint4_linear_19515_80644" x1="11.9455" y1="51.8271" x2="11.9455" y2="14.5834" gradientUnits="userSpaceOnUse">
<stop stop-color="#92A3B0"/>
<stop offset="0.015" stop-color="#A3B5C4"/>
<stop offset="0.032" stop-color="#AEC2D1"/>
<stop offset="0.046" stop-color="#B2C6D6"/>
</linearGradient>
<linearGradient id="paint5_linear_19515_80644" x1="53.125" y1="81.25" x2="53.125" y2="64.5834" gradientUnits="userSpaceOnUse">
<stop stop-color="#92A3B0"/>
<stop offset="0.015" stop-color="#A3B5C4"/>
<stop offset="0.032" stop-color="#AEC2D1"/>
<stop offset="0.046" stop-color="#B2C6D6"/>
</linearGradient>
<linearGradient id="paint6_linear_19515_80644" x1="1.575" y1="14.075" x2="7.05" y2="19.55" gradientUnits="userSpaceOnUse">
<stop stop-color="#199AE0"/>
<stop offset="1" stop-color="#0782D8"/>
</linearGradient>
<linearGradient id="paint7_linear_19515_80644" x1="14.1104" y1="51.1042" x2="92.3791" y2="51.1042" gradientUnits="userSpaceOnUse">
<stop stop-color="#3079D6"/>
<stop offset="1" stop-color="#297CD2"/>
</linearGradient>
<linearGradient id="paint8_linear_19515_80644" x1="12.5" y1="32.2396" x2="93.4042" y2="32.2396" gradientUnits="userSpaceOnUse">
<stop stop-color="#42A3F2"/>
<stop offset="1" stop-color="#42A4EB"/>
</linearGradient>
</defs>
</svg>
