<svg width="27" height="26" viewBox="0 0 27 26" fill="none" xmlns="http://www.w3.org/2000/svg">
<path d="M13.0828 25C19.7214 25 25.1031 19.6274 25.1031 13C25.1031 6.37258 19.7214 1 13.0828 1C6.44417 1 1.0625 6.37258 1.0625 13C1.0625 19.6274 6.44417 25 13.0828 25Z" stroke="#9CA3AF" stroke-width="2" stroke-linecap="round" stroke-linejoin="round"/>
<path d="M8.57285 12C9.40268 12 10.0754 11.3284 10.0754 10.5C10.0754 9.67157 9.40268 9 8.57285 9C7.74302 9 7.07031 9.67157 7.07031 10.5C7.07031 11.3284 7.74302 12 8.57285 12Z" fill="#7C7878"/>
<path d="M17.5885 12C18.4183 12 19.091 11.3284 19.091 10.5C19.091 9.67157 18.4183 9 17.5885 9C16.7586 9 16.0859 9.67157 16.0859 10.5C16.0859 11.3284 16.7586 12 17.5885 12Z" fill="#7C7878"/>
<path d="M18.2926 16C17.7631 16.9107 17.0032 17.6667 16.0891 18.1922C15.175 18.7176 14.1386 18.9942 13.0838 18.9942C12.029 18.9942 10.9926 18.7176 10.0785 18.1922C9.16438 17.6667 8.40453 16.9107 7.875 16" stroke="#9CA3AF" stroke-width="2" stroke-linecap="round" stroke-linejoin="round"/>
</svg>
