<svg width="27" height="26" viewBox="0 0 27 26" fill="none" xmlns="http://www.w3.org/2000/svg">
<path fill-rule="evenodd" clip-rule="evenodd" d="M3.89922 0.199219C3.05053 0.199219 2.23659 0.53636 1.63648 1.13648C1.03636 1.73659 0.699219 2.55053 0.699219 3.39922V20.9992C0.699219 22.2723 1.20493 23.4932 2.10511 24.3933C3.00528 25.2935 4.22618 25.7992 5.49922 25.7992C6.77226 25.7992 7.99316 25.2935 8.89333 24.3933C9.79351 23.4932 10.2992 22.2723 10.2992 20.9992V3.39922C10.2992 2.55053 9.96208 1.73659 9.36196 1.13648C8.76184 0.53636 7.94791 0.199219 7.09922 0.199219H3.89922ZM5.49922 22.5992C5.92356 22.5992 6.33053 22.4306 6.63059 22.1306C6.93065 21.8305 7.09922 21.4236 7.09922 20.9992C7.09922 20.5749 6.93065 20.1679 6.63059 19.8678C6.33053 19.5678 5.92356 19.3992 5.49922 19.3992C5.07487 19.3992 4.66791 19.5678 4.36785 19.8678C4.06779 20.1679 3.89922 20.5749 3.89922 20.9992C3.89922 21.4236 4.06779 21.8305 4.36785 22.1306C4.66791 22.4306 5.07487 22.5992 5.49922 22.5992ZM13.4992 19.788L21.3392 11.948C21.9391 11.3479 22.2761 10.5341 22.2761 9.68562C22.2761 8.83709 21.9391 8.02331 21.3392 7.42322L19.0752 5.15922C18.4751 4.55931 17.6613 4.2223 16.8128 4.2223C15.9643 4.2223 15.1505 4.55931 14.5504 5.15922L13.4992 6.21042V19.788ZM23.0992 25.7992H12.0128L21.6128 16.1992H23.0992C23.9479 16.1992 24.7618 16.5364 25.362 17.1365C25.9621 17.7366 26.2992 18.5505 26.2992 19.3992V22.5992C26.2992 23.4479 25.9621 24.2618 25.362 24.862C24.7618 25.4621 23.9479 25.7992 23.0992 25.7992Z" fill="#E54A2B"/>
</svg>
