<svg width="87" height="84" viewBox="0 0 87 84" fill="none" xmlns="http://www.w3.org/2000/svg">
<path d="M19.2098 70.5491C20.2523 70.8044 21.3183 70.9036 22.3822 70.8442C23.1712 70.8168 23.9584 70.7402 24.7404 70.6145C24.9911 70.6083 25.2348 70.517 25.4419 70.3515C25.458 70.3203 25.4641 70.2833 25.459 70.2472C25.4539 70.2112 25.4379 70.1785 25.414 70.155C25.1392 69.9719 25.0815 70.2155 22.3542 70.3847C21.2195 70.4549 20.9594 70.3515 19.2098 70.3515C19.1255 70.3515 19.0976 70.5491 19.2098 70.5491Z" fill="#191919"/>
<path d="M18.339 72.0943C19.827 72.581 21.3711 72.7913 22.9149 72.7176C23.4255 72.7354 23.9357 72.6692 24.4306 72.5211C24.4624 72.5098 24.4899 72.4859 24.5084 72.4535C24.5269 72.4211 24.5352 72.3823 24.5319 72.3435C24.5286 72.3048 24.5139 72.2686 24.4903 72.2411C24.4668 72.2136 24.4358 72.1966 24.4026 72.1928C23.5202 72.0771 23.0248 72.6988 18.4233 71.9304C18.2827 71.8619 18.2268 72.0584 18.339 72.0943Z" fill="#191919"/>
<path d="M19.1816 73.9323C20.0668 74.2874 20.997 74.465 21.9327 74.4576C22.3914 74.4692 22.8502 74.4472 23.3065 74.3918C23.7604 74.3846 24.2086 74.2731 24.6257 74.0635C24.7099 73.9982 24.6541 73.867 24.5698 73.8338C24.119 73.8177 23.6678 73.8507 23.2222 73.9323C21.8707 73.9921 20.5174 73.9043 19.1798 73.6699C19.0974 73.7031 19.0695 73.8997 19.1816 73.9323Z" fill="#191919"/>
<path d="M49.2469 70.3204C49.1023 71.7913 49.0648 73.2739 49.1347 74.7522C49.1461 76.223 49.2305 77.6918 49.3875 79.1513C49.4154 79.4136 49.7538 79.3483 49.7538 79.0854C49.7538 78.3635 49.6696 77.608 49.6133 76.8861C49.4841 75.2212 49.4731 73.2115 49.4447 72.487C49.4447 71.7646 49.3889 71.0096 49.3605 70.2872C49.3458 70.1769 49.2469 70.2213 49.2469 70.3204Z" fill="#191919"/>
<path d="M14.6058 74.6201C14.4373 74.1606 14.2395 73.6685 14.0724 73.209C14.0165 73.0446 13.8201 73.0773 13.7358 73.209C13.4755 73.6267 13.2409 74.0655 13.0338 74.5221C12.8087 74.974 12.6392 75.4607 12.5301 75.9679C12.5017 76.1323 12.6982 76.2308 12.7545 76.0991C13.0886 75.3178 13.4636 74.5613 13.8773 73.834C13.984 74.1087 14.6754 76.0011 14.8036 76.263C14.9163 76.4932 15.2528 76.3294 15.17 76.0991C15.0141 75.5901 14.8255 75.0957 14.6058 74.6201Z" fill="#191919"/>
<path d="M13.8199 75.6046C13.8114 75.5706 13.7929 75.5411 13.7676 75.5214C13.7424 75.5018 13.712 75.4931 13.6818 75.497C13.6517 75.5009 13.6237 75.5171 13.6027 75.5427C13.5817 75.5684 13.5691 75.6019 13.5672 75.6373C13.5672 76.2943 13.5026 75.3379 13.6794 78.8545C13.7077 79.1501 14.1006 79.1501 14.1006 78.8545C14.0727 78.2965 14.0443 77.7712 13.9884 77.2132C13.973 76.6723 13.9166 76.1339 13.8199 75.6046Z" fill="#191919"/>
<path d="M38.5801 74.291C38.5485 74.1304 38.2994 74.1598 38.2994 74.3242C38.3273 74.5866 38.5801 77.0815 38.6359 77.2785C38.3836 77.3449 19.0975 83.2541 18.4519 83.516C18.2834 81.9095 18.059 80.2993 17.8342 78.658C17.6098 76.9176 15.4727 57.7078 15.4169 57.2815C20.9118 57.7351 28.8981 56.4783 34.4534 54.8568C35.2392 54.6266 36.9083 54.0954 36.9083 54.0627C36.9083 55.1337 37.0873 61.5034 37.401 62.6038C37.414 62.6319 37.4338 62.6547 37.458 62.6695C37.4821 62.6843 37.5095 62.6904 37.5366 62.687C37.5637 62.6835 37.5893 62.6707 37.6102 62.6502C37.631 62.6297 37.6462 62.6023 37.6537 62.5717C37.6931 62.4314 37.3117 55.282 37.2874 54.9875C37.259 54.5939 37.2032 54.2324 37.1748 53.8389C37.1748 53.7077 36.9783 53.6745 36.9783 53.8389C36.3304 53.6847 35.6737 53.5861 35.0134 53.5438C34.3957 53.4774 33.7771 53.4447 33.1887 53.3794C25.6575 52.5762 19.9914 50.3667 18.282 49.8666C18.1977 49.8334 18.1698 49.8665 18.1139 49.9324C9.06983 52.9124 2.27678 52.4359 0.0911914 52.7555C-0.224306 52.7555 0.323808 54.0975 1.04547 57.6141C2.06615 62.4237 2.55673 67.3663 2.50528 72.3215C2.47734 74.0945 2.33677 75.8675 2.22458 77.6068C2.22612 77.6406 2.23497 77.6733 2.25028 77.7019C2.26559 77.7306 2.28686 77.7543 2.31212 77.7707C2.33737 77.7871 2.36578 77.7958 2.39467 77.7959C2.42357 77.7959 2.45201 77.7875 2.47734 77.7712C4.33416 78.5777 8.00474 79.3873 14.7731 82.4659C15.3344 82.7283 17.8049 83.9117 18.0576 83.9428C18.1419 84.0413 18.3383 84.0086 18.3662 83.8774C18.9276 83.7789 19.4895 83.5824 20.0509 83.418C20.6965 83.2209 38.9437 77.5741 38.9437 77.5741C39.1694 77.4767 38.6309 74.5588 38.5801 74.291ZM7.4177 52.724C11.1366 52.3629 14.8144 51.5598 18.3942 50.3271C18.4154 50.3236 18.435 50.3122 18.45 50.2944C21.2002 51.4495 26.8476 53.0613 32.739 53.7751C32.8617 53.7869 35.1302 54.0381 35.7988 54.0381C33.4634 54.6662 33.4112 54.7015 32.5984 54.8911C28.4146 55.9545 24.1599 56.5917 19.8819 56.7953C18.8406 56.8398 17.7998 56.8692 16.7585 56.8933C14.2614 56.8749 11.772 56.5673 9.32671 55.9749C6.38376 55.2248 3.48296 54.2641 0.64068 53.0983C2.50528 53.155 5.70559 52.9098 7.4177 52.724ZM2.76445 77.3567C3.22465 74.607 3.15596 70.873 3.01035 68.0873C2.76767 63.8063 2.12757 59.5688 1.10133 55.4496C0.999221 55.0619 0.64938 53.7896 0.512008 53.4147C1.27015 53.8362 2.05927 54.1767 2.86977 54.4322C5.84523 55.5759 8.8986 56.4211 11.9968 56.9586C13.0151 57.1751 14.0486 57.2791 15.0835 57.2692C15.1114 57.6296 15.1687 57.9118 15.1971 58.2717C15.5835 64.153 16.5987 72.0944 17.3584 78.0347C17.5832 79.8077 17.7797 81.6134 18.0883 83.3859C17.2096 82.8729 5.56409 77.836 2.76628 77.3573L2.76445 77.3567Z" fill="#191919"/>
<path d="M25.6382 45.1043C25.6103 45.3667 25.526 45.6291 25.4981 45.8594C25.4563 46.1087 25.4281 46.3609 25.4138 46.6144C25.3275 47.6397 25.3087 48.6713 25.3575 49.7C25.3592 50.2119 25.4255 50.7208 25.5544 51.2101C25.6103 51.3418 25.8351 51.3418 25.863 51.1774C25.8816 50.9362 25.8722 50.6932 25.8351 50.455C25.7134 48.938 25.6946 47.412 25.7788 45.8915C25.7741 45.6287 25.7835 45.3658 25.8067 45.1043C25.7797 45.0069 25.6382 45.0069 25.6382 45.1043Z" fill="#191919"/>
<path d="M53.7115 58.2704C57.4457 58.8263 65.0873 58.9393 77.3482 62.0457C77.6289 62.1115 77.7415 61.6173 77.4608 61.5536C74.4007 60.7985 71.3409 60.1415 68.2528 59.6167C64.5941 58.9939 57.3546 57.97 53.6831 58.106C53.6263 58.1392 53.6263 58.2704 53.7115 58.2704Z" fill="#191919"/>
<path d="M56.6022 59.7809C55.9076 60.5 55.2601 61.2792 54.6653 62.1119C54.1616 62.801 53.4289 63.5893 53.0933 64.4102C53.0869 64.4286 53.0853 64.4487 53.0886 64.4681C53.092 64.4875 53.1002 64.5053 53.1121 64.5193C53.1241 64.5333 53.1393 64.5429 53.1559 64.5468C53.1725 64.5508 53.1898 64.5489 53.2055 64.5414C53.8907 63.9479 54.4881 63.227 54.9739 62.4075C55.6109 61.6142 56.2107 60.7812 56.7707 59.912C56.8257 59.814 56.6883 59.7155 56.6022 59.7809Z" fill="#191919"/>
<path d="M71.5932 62.2754C71.2039 62.6911 70.8641 63.1659 70.5826 63.687C67.4386 68.3994 63.5386 76.5389 62.5394 79.1323C62.1085 80.2515 62.315 80.3104 62.838 79.4654C63.3284 78.5288 63.768 77.5571 64.154 76.556C66.4146 71.6412 68.9464 66.9036 71.7333 62.3734C71.7379 62.3606 71.7402 62.3468 71.7398 62.3328C71.7394 62.3189 71.7365 62.3053 71.7312 62.2928C71.7259 62.2803 71.7183 62.2693 71.709 62.2606C71.6997 62.2519 71.689 62.2456 71.6774 62.2422C71.649 62.2406 71.6211 62.2754 71.5932 62.2754Z" fill="#191919"/>
<path d="M56.2373 63.0975C57.0856 63.7685 58.1121 64.0599 59.129 63.9184C60.7967 63.6137 61.6768 61.785 61.3466 60.4715C61.2903 60.2085 60.9803 60.3397 61.0096 60.57C61.0785 61.1308 60.9863 61.7025 60.7476 62.1956C60.5088 62.6886 60.137 63.0751 59.6904 63.2946C58.5955 63.8836 57.3601 63.4258 56.3216 62.8662C56.2094 62.8335 56.1256 63.0306 56.2373 63.0975Z" fill="#191919"/>
<path d="M66.4559 64.313C64.8835 63.7872 62.947 63.6892 61.7395 65.1993C61.4969 65.4944 61.3093 65.8452 61.1886 66.2295C61.0678 66.6138 61.0165 67.0231 61.038 67.4318C61.1373 68.2127 61.4766 68.9245 61.9922 69.434C62.3017 69.7263 62.6302 69.9899 62.9749 70.2222C63.3366 70.454 63.7416 70.578 64.154 70.5831C64.1725 70.5806 64.19 70.5719 64.2045 70.5582C64.2189 70.5444 64.2297 70.5261 64.2355 70.5054C64.2414 70.4847 64.2421 70.4625 64.2376 70.4414C64.233 70.4202 64.2234 70.4011 64.2099 70.3861C63.9301 70.0589 63.5922 70.1869 62.4973 69.3354C61.998 68.9251 61.6242 68.3384 61.4308 67.6615C61.0645 66.055 62.3009 64.674 63.5642 64.3784C64.5182 64.2033 65.4928 64.2593 66.4275 64.5428C66.5402 64.6081 66.596 64.3457 66.4559 64.313Z" fill="#191919"/>
<path d="M54.4686 66.0834C55.4618 66.0906 56.4337 66.4202 57.2761 67.0355C58.5935 68.1445 58.5582 70.1109 57.669 70.9093C57.5284 71.041 57.7248 71.3693 57.8654 71.2375C59.175 70.1028 58.8659 67.0243 56.3213 66.1503C55.7072 65.9698 55.0725 65.9035 54.4407 65.9538C54.3473 65.9731 54.3565 66.0502 54.4686 66.0834Z" fill="#191919"/>
<path d="M56.0968 72.6501C53.2023 70.997 51.2489 73.5368 52.1102 75.3752C52.2095 75.643 52.3745 75.8703 52.5845 76.0281C52.7945 76.1859 53.0398 76.2671 53.2893 76.2614C53.3102 76.2506 53.3283 76.2337 53.3419 76.2123C53.3555 76.1909 53.3641 76.1658 53.367 76.1393C53.3699 76.1129 53.3668 76.086 53.3582 76.0614C53.3496 76.0367 53.3356 76.015 53.3177 75.9985C53.0962 75.9189 52.8875 75.7969 52.7 75.6376C51.4348 74.4059 52.7225 71.359 56.0427 72.8145C56.0968 72.8444 56.1531 72.6838 56.0968 72.6501Z" fill="#191919"/>
<path d="M62.1612 73.9316C61.3952 73.7465 60.6104 73.6913 59.8309 73.7677C59.2205 73.8022 58.6208 73.9691 58.0625 74.2598C56.365 75.2532 56.7803 78.1748 59.6629 78.8233C59.6997 78.8348 59.7389 78.8291 59.7722 78.8073C59.8055 78.7856 59.8302 78.7495 59.8411 78.7068C59.852 78.6641 59.8483 78.618 59.8306 78.5785C59.813 78.539 59.7829 78.509 59.7467 78.495C58.7081 78.1009 57.3889 77.4776 57.3889 75.967C57.3889 74.5554 58.8208 74.1945 59.775 74.0628C60.5587 73.9642 61.3491 73.9642 62.1328 74.0628C62.2171 74.096 62.2171 73.9316 62.1612 73.9316Z" fill="#191919"/>
<path d="M64.5177 61.4549C65.1412 62.3049 65.9921 62.8833 66.9323 63.0962C67.8481 63.2965 69.1462 63.2435 69.7113 62.7353C69.8519 62.6041 69.6834 62.4071 69.5428 62.4071C69.2621 62.4724 69.0093 62.6041 68.757 62.6694C67.7431 62.9175 66.6868 62.7311 65.7806 62.1441C65.3988 61.8946 65.0412 61.5975 64.7142 61.2579C64.602 61.1267 64.4339 61.2579 64.5177 61.4549Z" fill="#191919"/>
<path d="M68.2238 11.7843C68.0832 11.7843 64.3215 11.817 64.2935 11.817C64.2935 11.9482 64.2656 12.0794 64.2656 12.2111C64.3215 12.2111 68.6157 12.2765 69.0379 12.2765C69.0006 12.6688 68.9911 13.0641 69.0095 13.4583C69.0095 13.9836 68.9821 17.5623 69.0379 18.0871C68.8415 18.0871 64.207 18.5037 63.9849 18.5471C63.9896 18.6792 63.98 18.8114 63.9565 18.9407C64.2935 18.9739 65.9777 18.8427 66.4553 18.7768C66.9325 18.7442 69.0095 18.5798 69.2344 18.5471C69.3186 18.6124 70.4135 19.2363 70.4419 19.2363C69.4308 19.3021 64.4337 19.6647 63.9291 19.7616V20.1225C64.4621 20.1557 69.7399 19.7943 70.9185 19.6941C70.8906 19.9892 70.8906 23.0752 70.8906 23.7639C70.8627 25.1428 70.7784 29.7079 70.8068 30.0019C70.75 30.0019 64.2935 30.9208 63.8164 31.0193V31.4134C64.3201 31.4134 70.8906 30.4613 70.9749 30.396C71.004 30.3938 71.0315 30.3792 71.0522 30.3551C71.0729 30.331 71.0855 30.2989 71.0875 30.2648C71.1399 29.7417 71.1678 29.2156 71.1713 28.6888C72.0871 28.8152 77.5412 28.035 77.6003 27.967C77.7963 27.8026 77.9085 25.0448 77.9085 24.4215C77.9234 23.1927 77.8672 21.9642 77.7404 20.7442C77.7372 20.7232 77.7298 20.7033 77.7188 20.6862C77.7078 20.6691 77.6936 20.6552 77.6773 20.6457C77.6609 20.6361 77.6429 20.6311 77.6246 20.6311C77.6063 20.6311 77.5883 20.6361 77.5719 20.6457C77.544 20.6457 76.4771 20.1863 76.2522 20.0877C75.803 19.8907 72.3504 18.085 72.2662 18.1182C71.4487 18.131 70.6329 18.2077 69.8241 18.3479C69.7678 18.3152 69.4578 18.1182 69.4308 18.085C69.4308 17.8568 69.4871 12.7836 69.2902 11.9803C69.2902 11.8818 69.2628 11.8159 69.1501 11.7833C69.0159 11.5219 64.4795 9.56952 64.4337 9.55078C64.4337 9.71464 64.4057 9.87904 64.4057 10.0429C65.1636 10.4049 68.1116 11.7185 68.2238 11.7843ZM71.1434 28.3627C71.1434 28.3092 71.2839 21.2717 71.2839 21.2717C71.7593 21.332 72.2383 21.3431 72.7154 21.3049C73.3477 21.3049 76.6868 21.1978 77.4318 21.1078C77.4291 21.1614 77.2638 27.5873 77.2638 27.6409C73.9339 28.1298 71.5367 28.2546 71.1434 28.3627ZM72.1819 18.6456C73.3802 19.2995 76.0778 20.6136 76.505 20.7137C76.4592 20.7137 72.7337 20.8744 72.6874 20.8781C72.2094 20.8507 71.7303 20.8725 71.2556 20.9434C71.2556 20.2527 71.284 19.9913 71.2556 19.5977C71.2995 19.5793 71.3366 19.5436 71.3607 19.4968C71.3848 19.45 71.3943 19.395 71.3877 19.3409C71.3811 19.2869 71.3587 19.2371 71.3244 19.2001C71.29 19.1631 71.2458 19.1411 71.1992 19.1378H71.0033C71.0033 19.0012 70.4322 18.6783 70.3855 18.6783C70.6539 18.6783 70.3068 18.6456 72.1819 18.6456Z" fill="#191919"/>
<path d="M49.4155 29.6124C49.1348 30.0408 48.9118 30.4987 48.6572 30.9581C47.7034 30.7284 44.8396 30.0065 44.3345 29.8748L42.8184 29.5776C42.7342 29.5776 42.7058 29.7088 42.79 29.7088C43.7592 30.0623 44.7432 30.3581 45.738 30.5951C46.7207 30.8574 47.7308 31.0877 48.7144 31.3828C48.7558 31.3996 48.8008 31.399 48.8418 31.381C48.8828 31.363 48.9171 31.3287 48.9388 31.2842C49.5006 30.2009 50.0904 29.1176 51.0726 28.527C52.7312 27.5808 54.947 29.236 54.947 32.4361C54.9494 32.495 54.9712 32.5506 55.0077 32.5913C55.0442 32.632 55.0927 32.6547 55.1432 32.6547C55.1937 32.6547 55.2422 32.632 55.2787 32.5913C55.3152 32.5506 55.337 32.495 55.3394 32.4361C55.512 28.8627 52.02 25.6728 49.4155 29.6124Z" fill="#E54A2B"/>
<path d="M56.9118 45.6661C56.8244 44.5951 56.9361 42.5238 56.4081 41.3982C56.0716 40.7411 55.3975 40.4129 54.8645 40.9382C54.1342 41.6279 54.1062 42.941 54.0779 43.9257C54.0779 44.254 54.0779 44.6154 54.1062 44.9432C54.0779 44.9432 52.113 44.9758 51.7201 45.0744C51.6074 45.1076 51.6358 45.3373 51.748 45.3373C52.1144 45.3041 53.9098 45.3041 54.1062 45.3041C54.1342 45.5012 54.1342 45.8294 54.1626 46.125C54.1342 46.125 52.113 46.3221 51.9165 46.3547C51.8937 46.3631 51.8741 46.3807 51.8613 46.4044C51.8485 46.4281 51.8434 46.4563 51.8468 46.484C51.8502 46.5117 51.862 46.5371 51.88 46.5556C51.8979 46.5741 51.921 46.5846 51.9449 46.585C52.1414 46.585 54.1626 46.5186 54.1887 46.4865C54.2166 46.9502 54.5381 52.197 54.6374 53.0195C54.5536 52.9868 52.4202 53.1834 52.3076 53.2166C52.2845 53.2246 52.2646 53.242 52.2516 53.2658C52.2386 53.2895 52.2333 53.3179 52.2368 53.3458C52.2402 53.3737 52.2522 53.3992 52.2704 53.4177C52.2886 53.4361 52.3119 53.4463 52.336 53.4463C52.4482 53.4463 54.5797 53.4136 54.6658 53.381C54.6695 53.4345 54.7821 54.8016 54.8064 54.8584C54.4401 54.8905 52.7289 55.1535 52.6167 55.1867C52.5045 55.2199 52.532 55.3832 52.6446 55.3832C52.7289 55.3832 54.8343 55.252 54.8343 55.252C54.8906 55.81 54.9465 56.4006 55.0028 56.9591C55.0028 57.0909 55.1993 57.0909 55.1713 56.9591C55.0871 55.6788 54.5815 46.7162 54.5257 45.4364C54.4849 44.5399 54.4034 42.8237 54.7501 41.9556C55.0706 41.0142 55.6718 40.9634 56.0134 41.5615C56.5148 42.4686 56.4324 44.0575 56.4906 45.3373C57.0085 52.8037 56.9892 55.6445 57.2768 57.0571C57.3047 57.221 57.5012 57.1883 57.5296 57.0239C57.5622 56.3675 57.5527 55.7092 57.5012 55.0544C57.4778 54.5044 56.9155 45.7212 56.9118 45.6661Z" fill="#E54A2B"/>
<path d="M86.3596 44.4828C86.2678 44.2537 86.1352 44.0503 85.9706 43.8861C85.806 43.722 85.6132 43.601 85.4053 43.5312C84.3947 43.203 83.7774 44.516 83.3282 45.3369C82.6744 46.5757 82.1019 47.8706 81.6157 49.2107C81.3629 49.079 78.6393 48.0289 78.359 47.9303C78.3874 47.7991 79.0331 43.9907 78.5559 42.3821C78.359 41.7255 77.9661 40.9046 77.2362 41.1017C76.5627 41.2988 76.1977 42.3494 75.945 43.0059C75.4823 44.327 75.107 45.6875 74.8222 47.0757C74.5575 46.9336 74.2711 46.8553 73.9801 46.8454C74.0923 45.9592 74.4572 44.1208 74.4838 43.497C74.5128 43.4706 74.5339 43.4342 74.544 43.3929C74.5541 43.3516 74.5528 43.3076 74.5401 43.2672C74.3267 41.9001 73.4182 40.4462 72.5752 39.4593C69.4207 35.8817 64.7203 35.9122 60.8986 38.474C60.182 38.9073 59.5048 39.4243 58.8774 40.0173C58.4674 40.3962 58.1242 40.8644 57.8668 41.3962C57.5856 42.0527 57.7262 42.7419 57.7825 43.4311C58.1699 47.8043 58.3573 52.1986 58.3439 56.5952H58.316C58.2917 56.6036 58.2705 56.6209 58.2553 56.6446C58.2402 56.6683 58.232 56.6971 58.232 56.7266C58.232 56.7562 58.2402 56.785 58.2553 56.8087C58.2705 56.8324 58.2917 56.8497 58.316 56.8581C58.9811 57.012 59.6603 57.067 60.3372 57.022C62.8923 57.1794 65.9791 57.4927 68.8149 57.9746C69.7962 58.0964 70.771 58.2825 71.7345 58.5321C72.0431 58.6311 72.1558 57.022 72.1278 57.022C72.4539 57.1486 72.7949 57.215 73.1384 57.219C73.0821 57.6474 72.942 58.7623 72.942 58.7623C72.942 58.7623 73.3083 59.1907 73.3349 58.8608C73.7058 56.0093 75.2558 43.7063 77.0403 41.725C77.63 41.1012 78.0229 42.0859 78.163 42.6439C78.7148 45.0092 77.8924 48.1113 77.1808 51.3768C76.6694 53.6344 75.9949 56.2107 75.0745 59.6496C75.0708 59.6714 75.0746 59.6939 75.0851 59.7124C75.0956 59.7308 75.112 59.7436 75.1306 59.7479C75.1491 59.7522 75.1684 59.7477 75.1842 59.7354C75.2 59.7231 75.2109 59.704 75.2146 59.6823L75.8044 57.7127C75.776 57.7781 78.8641 58.7302 78.8362 58.8287C78.7357 59.2599 78.6606 59.6986 78.6113 60.1418C78.5834 60.2735 78.7519 60.3062 78.7799 60.2076C79.5166 57.6956 80.5881 51.6076 82.9628 46.7479C83.3259 45.8949 83.7683 45.0912 84.2821 44.3516C84.3639 44.2199 84.4692 44.1106 84.5908 44.0311C84.7123 43.9517 84.8471 43.904 84.9859 43.8915C85.1248 43.879 85.2642 43.9019 85.3948 43.9586C85.5253 44.0153 85.6437 44.1044 85.7419 44.2199C86.5437 45.2245 85.8545 47.02 85.6297 47.7654C85.4891 48.3234 85.321 48.8814 85.1805 49.4399C84.0499 53.3013 84.0357 53.3838 82.7664 57.1874C82.5136 57.8766 82.2888 58.5663 82.0365 59.2223C81.7842 59.8783 81.5328 60.5353 81.3061 61.2251C81.2503 61.4221 81.503 61.5533 81.6152 61.3563C82.6297 58.9094 83.5295 56.3998 84.3104 53.8384C84.5078 53.1958 86.0152 48.31 86.2753 47.2069C86.4704 46.4202 86.7287 45.3664 86.3596 44.4828ZM61.2892 56.6953C61.2434 56.6953 59.3348 56.5641 59.0157 56.5641H58.7066C58.8751 56.5641 58.4259 47.5678 58.37 46.7812C58.3137 45.9276 58.2295 45.0413 58.1452 44.1877C58.1173 43.8263 57.9767 41.9226 58.0046 41.8567C58.2268 41.298 58.5645 40.8129 58.9873 40.4452C59.491 39.9857 60.0542 39.5916 60.59 39.1975C64.8883 36.038 70.3498 36.3765 73.2786 41.2656C73.6471 41.9411 73.9396 42.6695 74.1486 43.4327C74.2205 43.7486 73.8679 45.9934 73.6998 46.945C73.5927 46.9754 73.4924 47.0322 73.4056 47.1115C73.3187 47.1908 73.2473 47.2909 73.1961 47.405C73.1251 47.5334 73.0897 47.6843 73.0948 47.837C73.0999 47.9898 73.1452 48.137 73.2245 48.2586C73.2854 48.3517 73.3615 48.4298 73.4484 48.4883C73.1403 49.5716 72.1013 55.2511 72.1013 55.2837C71.9971 55.3411 71.9022 55.419 71.8206 55.514C71.7263 55.6366 71.6611 55.7859 71.6315 55.9472C71.602 56.1084 71.6091 56.2759 71.6521 56.4329C71.7002 56.5827 71.7771 56.7176 71.8769 56.827C71.8769 56.8597 71.6805 57.9762 71.6521 58.0415C68.2227 57.3608 64.7627 56.9113 61.2892 56.6953ZM73.2204 56.7612C73.192 56.8924 72.6869 56.7612 72.6306 56.7612C72.4897 56.7444 72.356 56.6797 72.2462 56.575C72.1364 56.4703 72.0553 56.3302 72.0129 56.1721C71.7885 55.1547 73.3605 55.7437 73.3605 55.7121C73.3042 56.072 73.2483 56.4003 73.2204 56.7612ZM73.3885 55.3823C73.2546 55.2614 73.1002 55.1754 72.9356 55.1301C72.771 55.0849 72.6 55.0814 72.4342 55.1199C72.6586 53.8063 73.4168 50.2613 73.6412 48.5868C73.6975 48.62 74.427 48.8819 74.3991 48.8819C74.5099 48.8819 74.5112 48.1622 73.3885 55.3823ZM74.5396 48.4883C74.5676 48.4224 73.6133 48.1927 73.5011 47.9635C73.3413 47.6358 73.6101 47.2069 74.2869 47.3065C74.3432 47.3065 74.7361 47.4377 74.7361 47.4377C74.6802 47.7659 74.596 48.1274 74.5396 48.4883ZM78.9749 58.4357C78.4712 58.2054 75.9985 57.4504 75.9152 57.4504C76.0274 57.0894 76.1396 56.6953 76.2517 56.3349C76.4766 56.4329 78.6942 57.2538 79.1714 57.4836C79.1359 57.8084 79.07 58.1277 78.9749 58.4357ZM80.6312 52.0338C80.1636 53.552 79.4406 56.411 79.284 57.0894C78.3341 56.6475 77.3584 56.2856 76.3644 56.0067C76.9967 53.9337 77.5317 51.822 77.9671 49.6809C78.8799 50.1021 79.8164 50.4495 80.7699 50.7208C80.9384 50.754 81.0785 50.4579 80.91 50.3593C80.4892 50.1296 79.9837 49.9984 79.5363 49.8013C79.0396 49.62 78.5333 49.4769 78.0206 49.3729C78.1049 48.9788 78.1891 48.552 78.2734 48.1584C78.5775 48.3191 81.2278 49.4881 81.4174 49.5373C81.1646 50.3925 80.8844 51.2134 80.6312 52.0338Z" fill="#E54A2B"/>
<path d="M62.5817 40.3133C62.5254 40.0831 62.3848 40.0177 62.0482 40.1489C61.5736 40.3333 61.1209 40.587 60.7006 40.904C60.4199 41.1011 59.5778 41.5605 59.5215 41.9873C59.5215 44.9464 59.9972 54.6882 60.0252 55.0207C60.0243 55.0469 60.028 55.0731 60.0362 55.0975C60.0444 55.1219 60.0568 55.1441 60.0727 55.1626C60.0886 55.1811 60.1076 55.1956 60.1285 55.2051C60.1494 55.2146 60.1717 55.2189 60.1941 55.2178C60.8488 55.3877 61.5252 55.4099 62.187 55.2831C62.6082 55.1192 62.4677 54.1013 62.4677 53.6766C62.5592 52.0701 62.7016 43.4787 62.6082 41.727C62.6841 41.2588 62.675 40.7772 62.5817 40.3133ZM62.2744 43.0053V45.9269C62.2465 47.8638 62.05 54.331 62.078 54.8237C61.5445 54.8023 61.0105 54.8134 60.478 54.8569C60.478 54.0686 60.3095 50.7534 60.2532 49.8992C60.141 47.3385 60.1973 44.6798 59.804 42.1517C60.53 41.3819 61.393 40.81 62.3307 40.4772C62.2702 41.3179 62.2514 42.162 62.2744 43.0053Z" fill="#E54A2B"/>
<path d="M68.1404 39.4935C68.1404 39.4935 67.4389 39.1979 67.3826 39.1652C66.6527 38.8975 65.3083 38.9082 64.7153 39.4276C64.7037 39.4416 64.6952 39.4586 64.6902 39.4771C64.6853 39.4957 64.6842 39.5154 64.687 39.5345C64.6897 39.5537 64.6963 39.5718 64.7061 39.5875C64.716 39.6031 64.7288 39.6159 64.7437 39.6247C64.6214 48.5926 64.6736 44.737 64.6594 45.7293C64.6594 49.8917 64.463 52.242 64.463 53.4442C64.4026 54.0215 64.3839 54.6036 64.4071 55.1846C64.4346 55.5128 66.1471 55.447 66.6243 55.447C66.8207 55.447 67.1014 51.0147 67.2983 49.1436C67.6692 45.242 68.3373 40.6448 68.3373 39.5583C68.337 39.5314 68.3292 39.5053 68.3152 39.484C68.3012 39.4627 68.2817 39.4473 68.2595 39.44C68.2374 39.4327 68.2138 39.434 68.1924 39.4436C68.1709 39.4532 68.1527 39.4707 68.1404 39.4935ZM67.8313 41.0362C67.0071 46.502 66.372 54.0488 66.372 54.9886C66.2593 54.9886 64.8279 54.9559 64.7437 54.9559C64.968 53.381 65.2684 43.5258 64.8838 39.592C65.316 39.592 65.8321 39.2482 66.905 39.4276C67.0176 39.4608 68.0282 39.7232 68.0003 39.8876C67.944 40.3144 67.8863 40.6742 67.8313 41.0362Z" fill="#E54A2B"/>
<path d="M72.3783 43.3332C72.3783 43.3005 72.3783 43.3005 72.4067 43.2673C72.5189 42.8389 71.9291 42.184 71.6768 41.9216C71.3879 41.5659 71.0175 41.3151 70.6099 41.1992C70.4418 41.1992 70.4977 41.2319 70.4419 41.3631C70.1947 42.2286 70.016 43.1187 69.9079 44.0224C69.5503 45.9774 68.6121 52.534 68.4202 53.937C68.3639 54.3654 68.0539 55.3829 68.4765 55.6769C68.6446 55.8081 70.2166 56.3334 70.3013 55.9393C70.6159 54.7885 71.1892 51.8615 71.3398 51.0127C71.6484 49.3736 72.2941 43.76 72.3783 43.3332ZM70.5256 53.0503C70.4419 53.5103 70.0764 55.2174 69.9643 55.611C69.5105 55.5446 69.0606 55.4461 68.6171 55.3159C68.6923 54.4997 68.8047 53.6887 68.9537 52.8864C69.0938 51.967 70.5256 42.0201 70.6099 41.5601C71.0031 41.8802 71.3614 42.2551 71.6768 42.6767C71.7606 42.7752 72.0697 43.1688 72.0431 43.3332C71.7817 45.1587 71.4195 48.7867 70.5256 53.0503Z" fill="#E54A2B"/>
<path d="M34.7898 11.2928C34.645 11.1736 34.4835 11.0848 34.3127 11.0304C33.5205 10.7111 32.7016 10.4909 31.8697 10.3733C31.2799 10.308 30.6064 10.308 30.2671 10.9624C29.9528 11.7319 29.7368 12.5512 29.626 13.394C29.4575 14.1818 29.3453 15.0005 29.2331 15.7904C29.1489 16.4469 28.9803 17.1693 29.2331 17.7931C29.4016 18.1867 29.7102 18.1867 30.0473 18.2215C31.9952 18.4036 34.0311 18.1444 34.0311 18.2869C34.0385 18.3176 34.0536 18.345 34.0744 18.3656C34.0952 18.3863 34.1208 18.3992 34.1479 18.4027C34.175 18.4063 34.2024 18.4003 34.2266 18.3856C34.2508 18.3709 34.2707 18.3481 34.2838 18.3201C34.4679 17.8194 34.5817 17.2872 34.6208 16.7441C34.7889 15.6608 34.9015 14.5443 34.9872 13.4283C35.0426 12.934 35.2633 11.7254 34.7898 11.2928ZM34.0599 13.0658C34.0801 13.0642 34.1002 13.0704 34.1171 13.0836C34.1339 13.0968 34.1466 13.1161 34.153 13.1386C34.1594 13.1611 34.1593 13.1854 34.1527 13.2078C34.146 13.2302 34.1332 13.2493 34.1162 13.2623C33.6971 13.6089 33.2334 13.875 32.7425 14.0506L30.3825 15.3325C30.2982 15.3652 30.2423 15.2667 30.3266 15.2008C30.8993 14.7454 31.4997 14.3395 32.123 13.9863C32.6756 13.597 33.45 13.0658 34.0599 13.0658ZM32.8236 15.2324C32.6315 15.3745 32.4237 15.4849 32.2058 15.5607C31.7287 15.823 31.2516 16.086 30.746 16.3484C30.7237 16.3624 30.6978 16.3663 30.6732 16.3591C30.6486 16.3519 30.6272 16.3343 30.6131 16.3096C30.5991 16.285 30.5934 16.2551 30.5973 16.2258C30.6011 16.1965 30.6141 16.1699 30.6338 16.1513C30.9667 15.8674 31.3244 15.6254 31.7008 15.4295C32.0088 15.2006 32.3521 15.0443 32.7114 14.9695C32.9389 14.932 32.9586 15.076 32.8249 15.2324H32.8236Z" fill="#E54A2B"/>
<path d="M86.9212 7.45195C84.1417 5.84547 83.7053 5.37316 80.689 3.21726C80.6724 3.18322 80.6475 3.1557 80.6175 3.13817C80.5875 3.12064 80.5538 3.11387 80.5205 3.11872L79.3414 3.21726C77.5849 2.87454 65.5818 0.914626 59.5502 0.229728C58.5396 0.0819312 57.4301 0.0755048 56.9113 0C56.9001 0 56.8894 0.00519092 56.8815 0.01443C56.8736 0.0236691 56.8692 0.0362 56.8692 0.0492661C56.8692 0.0623321 56.8736 0.0748631 56.8815 0.0841021C56.8894 0.0933412 56.9001 0.0985311 56.9113 0.0985311C57.6962 0.231869 76.871 3.28419 77.6014 3.41378C76.8912 3.41378 65.7677 4.86658 64.4073 5.28802C64.3615 5.23447 39.5965 1.88334 39.5292 1.87798C55.4543 0.378595 54.0906 0.592793 54.4414 0.494797C54.6378 0.462132 54.5819 0.133874 54.385 0.101209C53.8216 0.0955647 53.2587 0.13942 52.7009 0.232405C52.1674 0.297735 43.5771 1.11865 41.4153 1.31571C40.798 1.38104 38.0185 1.5781 37.7379 1.74411C37.6142 1.8164 37.7333 9.34814 37.7379 9.42579C37.5414 9.39312 32.6849 8.57274 32.4325 8.53954C32.1514 8.50688 31.8707 8.53954 31.6184 8.50688C31.5621 8.50688 31.5341 8.63807 31.59 8.63807C31.8707 8.70394 32.1235 8.80247 32.4042 8.8678C32.6569 8.93367 37.5414 9.85258 37.7662 9.88524C37.7942 11.2309 37.8505 16.1227 37.8784 17.2387C37.8784 17.2996 37.8991 17.358 37.936 17.4011C37.9728 17.4442 38.0228 17.4684 38.0749 17.4684C38.127 17.4684 38.1769 17.4442 38.2138 17.4011C38.2506 17.358 38.2713 17.2996 38.2713 17.2387C38.3112 14.445 37.9819 2.75512 37.905 2.00597C38.1692 2.10932 61.56 5.37958 63.339 5.64733C61.739 6.46825 56.7698 9.65284 56.686 9.75137C56.6022 9.8499 56.6013 13.3622 56.6013 14.6779C56.5734 19.9965 56.4891 36.5754 56.4891 39.5297C56.4925 39.5807 56.5113 39.6285 56.5422 39.6647C56.5731 39.7008 56.6141 39.7228 56.6576 39.7268C56.8541 39.7268 60.8969 35.9842 61.8228 35.2618C62.2441 34.9336 62.6928 34.6385 63.1425 34.3102C63.1598 34.3551 63.1891 34.3921 63.2261 34.4155C63.263 34.439 63.3055 34.4476 63.3471 34.4402C63.3886 34.4327 63.427 34.4095 63.4562 34.3741C63.4854 34.3388 63.5039 34.2932 63.5088 34.2444C63.5088 34.2444 68.843 33.2923 69.9653 33.1284C77.035 32.1742 80.417 32.0344 80.4926 31.9466C82.2616 33.1694 83.8851 34.6595 85.3212 36.3783C85.3459 36.4059 85.3767 36.4249 85.4101 36.4331C85.4436 36.4413 85.4783 36.4385 85.5104 36.4248C85.5425 36.4112 85.5707 36.3873 85.5918 36.3559C85.6129 36.3245 85.6261 36.2868 85.6299 36.2471C85.8542 32.5372 86.8369 9.85204 86.977 7.6201C87.0333 7.58315 86.9775 7.48462 86.9212 7.45195ZM67.048 33.1557C66.4307 33.2559 63.6233 33.7796 63.5391 33.8122C63.356 24.3777 63.656 14.9388 64.4375 5.54612C65.0419 5.54612 66.7247 5.24036 67.4409 5.15253C70.0473 4.75145 76.5303 3.98194 79.3158 3.74097C79.6523 3.8063 79.9898 3.83897 80.3264 3.90483C80.6955 19.5381 80.3877 24.0534 80.1858 31.6124C75.8325 31.9096 71.4265 32.4467 67.0457 33.1573L67.048 33.1557Z" fill="#E54A2B"/>
<path d="M27.5195 17.3669C27.7105 14.8307 28.2509 12.3474 29.1199 10.013C29.8704 8.34544 30.2422 8.13285 31.7299 7.6493C33.7626 7.10898 34.0195 7.02598 35.4074 6.73039C36.0251 6.59866 36.6707 6.50012 37.2885 6.30199C37.3144 6.29279 37.3368 6.27314 37.3516 6.24651C37.3663 6.21988 37.3726 6.188 37.3692 6.15651C37.3658 6.12502 37.353 6.09595 37.333 6.07445C37.313 6.05296 37.2872 6.04042 37.2601 6.03906C36.6847 6.07816 36.1125 6.16603 35.548 6.30199C34.5012 6.54671 31.5669 7.16574 30.5787 7.61503C29.9344 7.93779 29.4009 8.50328 29.0631 9.22151C28.0232 11.2248 27.4192 14.5593 27.1532 16.9064C27.0689 17.858 27.041 18.8433 26.9846 19.8281C26.9288 21.0099 26.9567 22.2244 26.8725 23.4062C26.6943 26.0087 27.5529 25.8792 29.6236 26.0655C29.7541 26.0491 29.8859 26.0491 30.0164 26.0655C30.2413 26.0982 30.2413 25.6714 30.0164 25.6714C29.9043 25.6714 29.7641 25.6061 29.6501 25.6061C29.3909 25.6061 28.4884 25.5091 28.1344 25.4743C27.9736 25.4696 27.8166 25.4157 27.679 25.318C27.5415 25.2203 27.4282 25.0822 27.3505 24.9174C27.2382 24.5267 27.2093 24.1097 27.2663 23.7029C27.3789 21.5679 27.3771 19.4666 27.5195 17.3669Z" fill="#E54A2B"/>
<path d="M74.7368 36.8022C75.0471 36.6284 75.3168 36.3693 75.523 36.0471C76.1686 35.1277 76.6178 33.0923 76.6737 32.5664C76.4493 32.5996 73.5577 32.9948 72.3785 33.1555C72.0699 33.1881 71.8748 33.2866 71.8455 33.6808C71.7806 34.3308 71.8886 34.9885 72.1548 35.5643C72.421 36.14 72.8325 36.6057 73.3333 36.898C73.7937 37.0828 74.2979 37.0484 74.7368 36.8022Z" fill="#191919"/>
<path d="M78.1642 32.4355C77.7979 32.4355 77.0693 32.5014 76.8724 32.5341C77.0693 33.0594 76.8161 33.8144 76.676 34.3724C76.5669 34.9488 76.3589 35.4933 76.0646 35.973C75.7703 36.4526 75.3958 36.8574 74.9639 37.1629C75.0964 37.1572 75.2281 37.1353 75.3568 37.0976C77.0675 36.6708 78.4989 34.5042 78.1642 32.4355Z" fill="#191919"/>
<path d="M53.9073 36.0448C54.2389 35.3051 54.4261 34.4885 54.4552 33.654C54.4843 32.8195 54.3548 31.9878 54.0758 31.2189C52.404 26.4401 47.9623 30.7948 49.1071 35.5853C49.9111 38.831 52.4095 38.8743 53.9073 36.0448ZM52.2226 31.4813C51.7483 31.2135 51.2684 31.7116 51.0719 32.2037C50.8012 32.9398 50.7516 33.7614 50.9313 34.5347C50.9611 34.7358 51.0331 34.9251 51.141 35.0856C51.2488 35.2461 51.389 35.3727 51.5491 35.4541C51.7739 35.5195 51.6613 35.8825 51.4648 35.8477C50.5032 35.7229 50.3278 33.9687 50.5385 32.8602C50.8086 31.281 51.7267 30.8366 52.2785 31.3833C52.3353 31.4497 52.2794 31.5134 52.2226 31.4813Z" fill="#191919"/>
<path d="M54.8065 33.1583C54.8626 33.8448 54.8022 34.5376 54.6287 35.1968C54.4552 35.856 54.172 36.4686 53.7954 36.9994C53.2945 37.6295 52.6812 38.1231 51.999 38.4452C52.2334 38.4506 52.4678 38.4397 52.701 38.4125C53.654 38.222 54.5082 37.6109 55.0871 36.7054C55.7221 35.7296 56.0847 34.5489 56.1257 33.3237C56.1536 33.1256 55.1714 33.1583 54.8065 33.1583Z" fill="#191919"/>
<path d="M33.9483 32.1378C34.0854 32.1885 34.2325 32.1885 34.3696 32.1378C34.6844 32.1208 34.9917 32.0197 35.268 31.8422C35.3107 31.8121 35.3425 31.7647 35.3572 31.7089C35.3719 31.6531 35.3685 31.5929 35.3477 31.5399C35.3268 31.4868 35.2899 31.4446 35.2442 31.4214C35.1984 31.3981 35.1468 31.3955 35.0995 31.4139C34.931 31.4792 34.2294 31.6762 34.2011 31.6762C34.2853 30.9544 34.6503 27.901 34.6782 27.1133C34.6782 27.0851 34.6695 27.0579 34.6537 27.0366C34.6379 27.0153 34.6161 27.0013 34.5923 26.9973C34.5684 26.9933 34.5441 26.9994 34.5238 27.0146C34.5035 27.0298 34.4886 27.0531 34.4818 27.0801C34.2427 28.1056 33.9538 30.4232 33.8361 31.4792C33.7798 31.6779 33.6937 32.012 33.9483 32.1378Z" fill="#191919"/>
<path d="M36.3342 27.8033C36.1377 27.7706 36.0535 28.0662 36.0814 28.2317C36.1272 28.6097 36.6799 28.4994 36.5851 28.0678C36.5753 27.9969 36.5451 27.932 36.4994 27.8839C36.4538 27.8358 36.3955 27.8074 36.3342 27.8033Z" fill="#191919"/>
<path d="M33.2454 28.1342C33.2851 28.0949 33.3142 28.043 33.3291 27.9847C33.3441 27.9265 33.3443 27.8644 33.3296 27.806C33.3153 27.7375 33.2834 27.6758 33.2384 27.6289C33.1933 27.582 33.1372 27.5523 33.0773 27.5436C32.8804 27.5104 32.7966 27.806 32.8246 27.972C32.836 28.0216 32.8578 28.0671 32.888 28.1045C32.9182 28.1418 32.9558 28.1697 32.9976 28.1858C33.0393 28.2019 33.0838 28.2056 33.127 28.1966C33.1703 28.1876 33.211 28.1662 33.2454 28.1342Z" fill="#191919"/>
<path d="M35.7448 33.4203C35.3001 33.7244 34.7923 33.8791 34.2772 33.8676C33.7621 33.8561 33.2597 33.6787 32.8252 33.355C32.713 33.2891 32.6004 33.4535 32.6846 33.5521C32.8923 33.7872 33.1414 33.9665 33.4146 34.0774C33.8281 34.2501 34.2694 34.3132 34.7064 34.262C35.1433 34.2109 35.5651 34.0469 35.9413 33.7818C36.1657 33.6832 35.9692 33.2891 35.7448 33.4203Z" fill="#191919"/>
<path d="M51.6895 53.02C51.5622 50.4233 51.369 45.5878 50.6514 43.1706C49.7489 40.2339 48.0762 38.4823 45.4313 38.4106C43.4559 38.3613 41.3701 39.2138 39.4831 39.7788C39.4396 39.5035 39.3608 38.9755 39.343 38.7613C39.1909 36.9337 39.5339 35.0691 39.8732 33.2543C40.5595 33.2295 41.224 32.9667 41.7822 32.4992C41.9541 32.295 42.0882 32.0516 42.1762 31.7841C42.2642 31.5166 42.3042 31.2309 42.2937 30.9445C42.2832 30.6582 42.2224 30.3775 42.1151 30.1199C42.0078 29.8622 41.8563 29.6332 41.67 29.4469C42.8208 28.9875 43.1294 27.4442 41.9782 26.5247C43.1857 25.7697 42.6243 23.3733 41.5574 23.3407C41.7065 23.0252 41.7736 22.6656 41.7504 22.3062C41.7273 21.9467 41.615 21.603 41.4272 21.3171C41.2395 21.0312 40.9844 20.8157 40.6934 20.6969C40.4024 20.578 40.0881 20.5611 39.789 20.6482C39.6484 18.7113 37.5709 18.5148 36.5044 19.2372C35.9146 18.1865 33.697 18.2197 33.1076 20.2546C31.76 19.762 30.6936 21.3379 31.0301 23.0119C30.8106 23.0547 30.6112 23.187 30.4673 23.3854C30.3234 23.5839 30.2442 23.8355 30.2439 24.0957C30.1885 25.1324 31.0741 25.9699 31.2829 26.8862C31.6117 28.1676 30.9166 29.2884 30.9166 33.9113C30.8767 34.4603 30.9538 35.0122 31.1409 35.5178C31.5343 36.4041 33.5541 37.1243 33.5555 37.225C33.559 37.6695 33.4872 38.1104 33.3441 38.5223C33.2011 38.9342 32.9897 39.3088 32.7221 39.6245C30.9848 39.0355 29.9348 38.3784 27.7726 37.783C27.25 37.6227 26.7035 37.6002 26.1726 37.7171C24.1153 38.2237 22.4737 40.7094 21.7928 43.0362C21.1517 45.0935 21.0065 47.6837 21.0065 49.8643C21.0065 49.8969 21.1297 49.9178 21.1581 49.8852C21.4663 46.9935 21.5405 43.8876 22.8876 41.3938C23.4324 40.3202 24.194 39.4192 25.1057 38.7699C26.1415 38.0432 27.0015 38.0432 28.1655 38.4416C30.6491 39.2915 33.0504 40.6409 35.6889 40.838C39.6223 41.1287 43.8524 37.9463 47.0866 39.3279C48.1483 39.7964 49.0401 40.6772 49.6129 41.8227C50.2169 43.116 50.6074 44.5305 50.7641 45.9926C51.4702 51.776 51.5141 62.193 51.1304 65.7883C51.0645 66.4837 50.8522 67.1491 50.5127 67.7252C50.1999 68.2225 49.8093 68.6459 49.3615 68.9729C48.3418 69.695 47.2597 70.2891 46.1333 70.7454C41.8393 72.6975 37.3297 73.9252 32.7399 74.3916C32.2504 68.5011 32.3361 67.6706 31.8983 66.7747C34.0789 65.9522 38.0343 63.5558 45.7101 62.3429C45.9345 62.3103 45.8787 61.8508 45.6538 61.8829C44.7838 62.0147 43.8849 62.1459 43.0154 62.3429C42.5087 58.9058 42.3308 55.4134 42.4851 51.9302C42.5162 51.0581 42.596 50.1893 42.7241 49.3293C42.758 49.0905 42.5501 48.91 42.4764 49.2715C41.698 53.0938 41.975 58.5409 42.5652 62.4088C39.8359 63.0134 37.1584 63.9034 34.5652 65.0681C33.585 65.4765 32.6363 65.9816 31.7293 66.5781C31.6735 66.5128 31.5054 66.5782 31.5613 66.6767C31.6591 66.9843 31.7306 67.3025 31.7747 67.6267C30.7705 68.0979 29.9087 68.9076 28.698 68.318C28.3865 68.1348 28.0863 67.9263 27.7996 67.6941C26.6532 66.8463 25.3069 66.4441 23.9532 66.5449C23.1923 66.5531 22.4434 66.7668 21.7648 67.1693C21.6243 67.2679 21.7085 67.5635 21.877 67.4981C22.5255 67.2628 23.1935 67.1086 23.8698 67.0381C27.36 66.8684 27.8967 69.1699 29.7091 68.975C30.1133 68.9119 30.5093 68.7907 30.8882 68.6141C31.2147 68.4355 31.5257 68.2203 31.8168 67.9715C31.8329 68.1315 31.8414 68.2924 31.8424 68.4534C31.8978 69.0993 31.8521 68.7705 32.1433 72.5173C29.2488 74.5439 25.9965 75.7701 22.6349 76.1025C21.6801 76.1983 20.7258 76.2337 19.7436 76.2669C19.726 76.2649 19.7083 76.2707 19.6941 76.2831C19.6798 76.2954 19.67 76.3135 19.6665 76.3339C19.6629 76.3542 19.666 76.3753 19.675 76.3932C19.684 76.4111 19.6983 76.4245 19.7152 76.4307C23.8364 77.053 28.6252 75.5477 32.1703 73.0416C32.1613 73.5746 32.211 74.1068 32.3182 74.625C32.3086 74.6557 32.3058 74.6887 32.3098 74.721C32.3139 74.7533 32.3248 74.7839 32.3415 74.8101C32.3582 74.8362 32.3803 74.8571 32.4056 74.8708C32.431 74.8845 32.4588 74.8906 32.4867 74.8885C37.9293 74.4266 43.26 72.8485 48.235 70.2265C49.2691 69.7554 50.1722 68.9602 50.8451 67.9281C51.6034 66.6478 51.5471 64.9406 51.6313 63.4637C51.8474 59.9878 51.8669 56.4989 51.6895 53.02ZM37.5402 40.2157C36.0686 40.4171 34.5775 40.2677 33.1566 39.7766C33.4164 39.462 33.6181 39.0883 33.7494 38.6788C33.8807 38.2693 33.9388 37.8326 33.92 37.3958C34.5389 37.6413 35.1791 37.8063 35.829 37.8879C35.9128 37.8879 36.0534 37.9206 36.1097 37.8226C36.1288 37.7926 36.1425 37.7585 36.15 37.7221C36.1575 37.6858 36.1587 37.6481 36.1534 37.6112C36.1482 37.5744 36.1366 37.5391 36.1194 37.5076C36.1022 37.4761 36.0797 37.449 36.0534 37.4279C35.7956 37.2025 34.7955 37.3348 32.7404 36.3452C32.2467 36.1504 31.8223 35.7693 31.5338 35.2619C31.1295 34.4586 31.3355 34.1518 32.0673 24.5268C33.2739 24.8218 34.5093 24.5268 35.7447 24.5921C37.7096 24.658 39.2537 25.971 39.2537 28.3679C39.1359 28.9729 38.9764 29.5656 38.7765 30.1404C38.7486 30.3369 38.9171 30.5688 39.0568 30.4686C39.2537 29.6151 40.2079 29.2868 40.9383 29.5165C41.6687 29.7463 42.9897 32.6513 39.843 32.7338C39.743 32.7324 39.6451 32.7668 39.5623 32.8323C39.1745 34.7769 38.9942 36.7702 39.0256 38.7667C39.0545 39.1375 39.1004 39.5063 39.163 39.8714C38.6298 40.0289 38.0881 40.1439 37.5416 40.2157H37.5402Z" fill="#191919"/>
</svg>
