<svg width="27" height="26" viewBox="0 0 27 26" fill="none" xmlns="http://www.w3.org/2000/svg">
<path d="M20.632 11.242C20.632 11.242 20.6321 11.2419 20.6321 11.2419C21.0445 10.8293 21.2761 10.2699 21.2761 9.68659C21.2761 9.10328 21.0445 8.54385 20.6321 8.1313L20.632 11.242ZM20.632 11.242L14.4992 17.3748V6.62561L15.2574 5.86741C15.2575 5.86737 15.2575 5.86734 15.2575 5.8673C15.6701 5.45493 16.2295 5.22328 16.8128 5.22328C17.3961 5.22328 17.9556 5.45493 18.3681 5.8673C18.3681 5.86734 18.3682 5.86737 18.3682 5.86741L20.632 8.1312V11.242ZM2.81221 23.6872L2.11305 24.3864L2.81221 23.6872C2.09957 22.9746 1.69922 22.008 1.69922 21.0002V3.4002C1.69922 2.81672 1.931 2.25714 2.34358 1.84456C2.75616 1.43198 3.31574 1.2002 3.89922 1.2002H7.09922C7.68269 1.2002 8.24227 1.43198 8.65485 1.84456C9.06743 2.25714 9.29922 2.81672 9.29922 3.4002V21.0002C9.29922 22.008 8.89886 22.9746 8.18622 23.6872C7.47359 24.3998 6.50704 24.8002 5.49922 24.8002C4.4914 24.8002 3.52485 24.3998 2.81221 23.6872ZM7.3377 22.8387L6.63059 22.1316L7.3377 22.8387C7.82529 22.3511 8.09922 21.6898 8.09922 21.0002C8.09922 20.3106 7.82529 19.6493 7.3377 19.1617L6.63059 19.8688L7.3377 19.1617C6.8501 18.6741 6.18878 18.4002 5.49922 18.4002C4.80965 18.4002 4.14833 18.6741 3.66074 19.1617C3.17315 19.6493 2.89922 20.3106 2.89922 21.0002C2.89922 21.6898 3.17315 22.3511 3.66074 22.8387C4.14834 23.3263 4.80966 23.6002 5.49922 23.6002C6.18878 23.6002 6.8501 23.3263 7.3377 22.8387ZM23.0992 24.8002H14.427L22.027 17.2002H23.0992C23.6827 17.2002 24.2423 17.432 24.6549 17.8446C25.0674 18.2571 25.2992 18.8167 25.2992 19.4002V22.6002C25.2992 23.1837 25.0674 23.7432 24.6549 24.1558C24.2423 24.5684 23.6827 24.8002 23.0992 24.8002Z" stroke="#6B7280" stroke-width="2"/>
</svg>
