<svg width="112" height="112" viewBox="0 0 112 112" fill="none" xmlns="http://www.w3.org/2000/svg">
<path d="M54.648 63.1606C55.1453 60.817 53.8764 58.8486 53.136 54.9068C52.954 53.9413 52.7608 52.8958 52.5581 51.9354C52.4534 51.4387 51.7052 51.5501 51.7876 52.0177C52.2983 57.0527 54.1099 60.0817 54.2913 63.0777C54.2644 63.3527 54.648 63.3527 54.648 63.1606Z" fill="#191919"/>
<path d="M53.9874 51.3584C54.0009 52.0466 54.5833 52.7926 54.8403 53.422C55.2917 54.5291 55.495 55.7634 56.023 56.8335C56.2694 57.3325 56.6284 57.151 56.6284 56.9707C56.6893 56.3988 56.6041 55.8208 56.3809 55.2907C55.9533 53.9042 55.3425 52.581 54.5648 51.3562C54.455 51.1109 53.9779 50.8908 53.9874 51.3584Z" fill="#191919"/>
<path d="M57.2607 51.6321C57.8502 53.0536 58.3368 54.5156 58.7167 56.0068C58.8041 56.3635 59.0174 56.8827 59.4873 56.6671C60.7753 56.0768 58.2279 52.0129 57.8364 51.4395C57.6494 51.1634 57.151 51.2479 57.2607 51.6321Z" fill="#191919"/>
<path d="M81.8847 101.982C81.8891 101.943 81.8794 101.903 81.8573 101.87C80.669 96.2452 77.5615 87.2953 74.9794 82.5291C74.4798 81.5933 73.8395 80.7396 73.081 79.9979C72.3787 79.3259 70.5957 78.9832 70.3023 78.1544C69.5927 76.1535 68.9101 74.1437 68.2112 72.1019C68.0141 71.5257 67.9631 70.5339 67.248 70.4511C66.8079 70.3979 66.3979 70.7311 66.0379 70.9187C63.1516 72.4167 59.0379 72.7325 55.8302 72.7622C55.8742 72.7063 55.9027 72.6399 55.9131 72.5695C55.912 72.0386 55.7783 71.5163 55.524 71.0501C55.2697 70.584 54.903 70.1888 54.4571 69.9006C53.551 69.1278 52.7712 68.2182 52.1459 67.2047C51.1004 65.0863 50.1378 62.8849 49.2569 60.6841C50.7689 61.0761 51.3877 61.0688 52.9988 63.2702C53.3554 63.8981 53.8214 64.4571 54.3747 64.9211C54.6458 65.0924 55.3049 65.1159 55.0899 64.6181C54.6207 63.7565 54.0275 62.9686 53.3292 62.2795C52.7628 61.5206 52.0748 60.8606 51.2931 60.3263C50.4582 59.8546 49.4914 59.671 48.5418 59.8038C48.4272 59.8433 48.3321 59.925 48.2759 60.0324C48.2197 60.1397 48.2066 60.2645 48.2394 60.3811C49.0935 62.7394 50.0857 65.0454 51.2107 67.2871C51.6267 68.1664 52.2163 68.9525 52.9439 69.5982C53.915 70.4415 54.8698 71.3314 55.2551 72.6782C55.2551 72.7863 55.5048 72.7611 54.4845 72.7611C54.3362 72.7758 54.1977 72.8415 54.0923 72.9468C53.987 73.0522 53.9214 73.1907 53.9066 73.339C53.9066 74.795 56.1466 82.5331 55.8324 83.2431C53.4244 88.6953 55.4729 95.0771 59.6567 108.307C59.7619 108.639 60.0487 109.029 60.3175 108.858C60.4855 108.751 60.4821 108.5 60.4821 108.307C59.6057 100.467 55.0137 93.691 56.0251 85.8846C56.1499 84.9198 56.6747 83.9308 56.7133 82.9956C56.8415 79.8596 55.0893 76.8602 55.2013 73.7237C58.9707 74.109 64.5835 73.0634 66.977 71.7155C66.4539 71.9905 69.0658 78.8718 69.838 79.364C70.9272 80.0579 71.9817 79.1159 73.9927 82.7755C77.2535 88.7115 78.5875 95.4875 81.0358 101.787C81.0927 101.975 81.1971 102.146 81.3387 102.282C81.5919 102.498 81.9895 102.295 81.8847 101.982Z" fill="#191919"/>
<path d="M37.1772 32.1535C37.8374 30.8605 37.2332 28.6255 36.2963 27.5867C35.2009 26.3715 33.6783 25.6122 32.3897 24.6154C26.8653 20.342 23.9897 16.7194 21.0267 13.8303C20.4561 13.2703 19.1272 13.9087 18.5236 14.1053C10.5189 16.7126 2.97571 24.276 3.00595 32.6474C3.00595 33.2528 4.62995 34.0766 5.04211 34.3532C8.17425 36.3603 11.5734 37.9163 15.1395 38.9754C19.8995 40.4818 25.0162 40.7635 29.6933 38.7828L34.4808 42.7168C37.4655 41.2301 39.8391 38.7499 41.1935 35.7028L37.1772 32.1535ZM32.4731 37.2434C33.9007 37.8208 35.2576 38.5594 36.5175 39.4447C36.8204 39.83 36.7101 40.0226 36.2425 39.9398C35.8572 39.9398 32.7705 38.1354 32.1159 37.8213C31.5043 37.529 31.7843 36.941 32.472 37.2434H32.4731ZM37.7556 38.2889C37.563 38.4009 34.6756 36.363 34.0966 35.8954C33.8216 35.6205 34.1789 35.0151 34.5642 35.3175C35.7256 36.0243 36.8462 36.7959 37.9208 37.6286C38.2221 37.7115 38.03 38.3718 37.7545 38.2889H37.7556ZM39.2951 36.8586C39.103 36.8586 36.4066 34.6573 35.939 34.272C35.3611 33.8873 35.827 33.227 36.5163 33.6118C37.0943 33.997 39.6804 36.0058 39.873 36.3905C40.1485 36.8586 39.6804 37.2434 39.2951 36.8586Z" fill="#E54A2B"/>
<path d="M46.0361 39.9406C45.2661 39.4456 41.5241 36.1993 41.4138 36.1993C41.3884 36.1987 41.3632 36.2032 41.3396 36.2126C41.316 36.2221 41.2946 36.2362 41.2766 36.2542C41.2587 36.2721 41.2445 36.2935 41.2351 36.3171C41.2257 36.3407 41.2211 36.366 41.2217 36.3914V36.5034C41.4138 36.9984 44.6747 40.2654 45.541 40.8226C46.0288 41.1368 46.7792 40.5477 47.165 40.3276C48.747 39.8527 49.993 40.3091 51.402 41.1805C51.8634 41.4661 52.3646 42.1437 52.9425 42.1437C53.0116 42.1524 53.0813 42.1344 53.1376 42.0934C53.1938 42.0524 53.2322 41.9915 53.2449 41.923C53.2444 40.4883 48.3433 37.7174 46.0361 39.9406Z" fill="#191919"/>
<path d="M48.0442 56.1455C47.4663 55.4847 42.6514 49.4322 42.4588 49.0469C42.0741 48.0843 42.927 47.2314 42.927 46.6535C42.927 46.5706 36.7916 42.2513 36.2137 42.0312C36.021 42.0312 35.9387 42.2239 36.021 42.4165C36.4063 42.9116 41.6059 46.6535 41.6888 46.6535C41.3018 47.1746 41.1092 47.8147 41.1444 48.4629C41.1796 49.1111 41.4403 49.7266 41.8814 50.2028C43.4496 52.4165 45.1881 54.5046 47.081 56.4479C48.0616 57.4766 49.7774 58.759 49.2824 57.4934C48.9142 57.0051 48.4996 56.5537 48.0442 56.1455Z" fill="#191919"/>
<path d="M36.904 65.5555C37.3996 65.2805 37.2915 64.7082 36.792 64.8952C36.4764 65.0048 36.1548 65.0966 35.8288 65.1702C35.6617 64.905 35.532 64.618 35.4435 64.3173C35.2509 63.8497 34.7833 63.932 34.8662 64.4293C34.8662 64.7317 35.3612 66.2448 35.5264 66.2448C35.7465 66.326 36.792 65.6652 36.904 65.5555Z" fill="#E54A2B"/>
<path d="M48.5119 65.6653C48.0443 65.6653 46.3111 65.7773 45.8155 65.7773C44.9817 65.7754 44.1702 66.046 43.5044 66.5478C42.6336 66.9398 39.0541 68.8797 38.965 68.9687C38.7718 68.3885 38.218 67.7098 38.4145 67.4007C38.7339 66.9651 38.9278 66.4503 38.9752 65.9123C39.0227 65.3743 38.9218 64.8335 38.6837 64.3488C38.4455 63.864 38.0791 63.4537 37.6242 63.1625C37.1693 62.8712 36.6434 62.7101 36.1034 62.6967C35.8833 62.4217 35.6358 62.1193 35.3609 61.8164C36.8488 61.0997 38.0371 59.8823 38.7175 58.3774C39.1013 57.3927 39.6505 56.4808 40.3415 55.681C41.1944 54.911 42.3289 54.6982 43.1208 53.8655C43.496 53.4735 43.0088 52.82 42.5429 53.2053C41.69 53.7826 40.7268 54.1679 39.8465 54.8293C37.6445 56.7277 38.3518 57.8751 36.4075 60.0294C35.8907 60.4784 35.3172 60.8576 34.7017 61.1573C34.2137 60.6675 33.6577 60.2505 33.0509 59.9191C32.1705 59.3417 31.6201 59.9191 30.9324 60.4147C30.2447 60.9103 29.5828 61.4585 29.0065 61.9553C28.5927 62.312 28.9242 62.7533 29.3918 63.166C28.5776 63.4779 7.53894 71.7401 3.08974 72.518C2.70446 72.7106 2.70446 73.288 3.08974 73.2057C8.17286 72.6216 25.6577 65.8288 30.4373 63.9612C31.1273 64.5724 31.7796 65.2249 32.3906 65.915C32.1157 67.0703 32.7759 68.2256 34.1238 68.6937C34.5355 69.7712 34.6772 70.933 34.5365 72.0778C33.4087 72.6826 32.2803 73.3434 31.2628 73.9762C29.3369 75.0212 27.5181 76.0891 25.595 77.1397C22.3537 78.9109 12.7587 83.9061 7.24382 86.4665C7.05174 86.4665 7.24382 86.9346 7.51934 86.8517C15.6409 83.4581 23.5347 79.5432 31.1513 75.1315C34.2347 73.3658 34.3691 72.7952 34.1227 73.288C34.0791 73.3742 34.0512 73.4675 34.0404 73.5635C34.0552 73.7116 34.1207 73.85 34.226 73.9553C34.3312 74.0605 34.4696 74.1261 34.6177 74.1409C36.0489 74.0678 37.4516 73.7125 38.7449 73.0953C39.7076 72.8204 39.8089 71.6589 39.5155 70.7019C39.4285 70.4398 39.3548 70.1735 39.2949 69.9039C39.8121 69.6286 40.3086 69.316 40.7805 68.9687C41.7437 68.3908 44.7162 66.6509 45.6783 66.7679C46.5317 66.8715 48.0717 66.6559 48.7583 66.1071C48.7869 65.9688 48.7045 65.6653 48.5119 65.6653ZM36.874 67.4808C35.0585 68.4434 32.8297 66.8205 33.71 64.7844C33.7929 64.2893 35.3429 63.138 36.4887 63.6291C39.1257 64.7597 37.4793 67.0961 36.874 67.4808Z" fill="#191919"/>
<path d="M68.7891 57.7956C67.3692 57.9812 65.9804 58.3548 64.6591 58.9066C64.2112 57.7693 63.6885 56.663 63.0944 55.5948C62.4991 54.4036 61.7798 53.2785 60.9485 52.2382C60.6735 51.9352 60.1253 52.0142 60.3157 52.3205C62.8013 56.2599 64.4413 60.6728 65.1317 65.2794C65.4117 67.5239 65.2588 68.1119 65.517 69.9834C65.629 70.3682 66.1716 70.5597 66.2875 70.0954C66.6706 68.5498 66.3699 67.3246 66.3699 66.3541C66.183 64.054 65.6975 61.7881 64.9256 59.6134C65.8877 59.6358 66.9416 58.9078 69.2589 58.6502C69.9191 58.5382 72.1373 59.223 72.5327 58.4575C73.175 57.2093 69.2572 57.6858 68.7891 57.7956Z" fill="#191919"/>
<path d="M90.854 17.7372C82.1594 28.5228 84.1088 26.3197 80.3993 31.3289C76.6767 29.6907 73.0812 27.7779 69.6423 25.6063L66.4228 23.6524C69.4782 18.9389 76.6641 4.03172 76.7403 3.4034C76.7334 3.33936 76.7082 3.27865 76.6677 3.22852C76.6273 3.17838 76.5733 3.14094 76.5121 3.12064C76.451 3.10033 76.3853 3.09804 76.3229 3.11402C76.2605 3.13 76.204 3.16358 76.1601 3.21076C75.608 3.78252 69.5818 16.0191 68.3761 18.2328C67.4481 19.8724 66.6122 21.5625 65.8724 23.2952C65.3448 22.8447 64.6672 22.609 63.974 22.6349C63.4789 22.7172 63.3137 23.2123 63.1211 23.6804C62.0756 25.4136 61.2658 27.3137 60.1497 29.0727C59.065 30.7818 57.8386 32.4293 56.8754 34.2448V34.4397C56.8754 34.5775 57.4259 35.1828 58.7189 36.2284L57.7283 37.466C56.5976 39.0995 55.4323 38.1632 54.207 38.6767C53.5193 38.9796 52.583 39.5296 52.583 40.3824C52.5903 40.446 52.6156 40.5062 52.6559 40.5559C52.6962 40.6056 52.7499 40.6427 52.8106 40.663C52.8713 40.6832 52.9365 40.6857 52.9986 40.6701C53.0606 40.6545 53.117 40.6216 53.1609 40.5751C53.7749 39.8817 54.6117 39.4243 55.5269 39.282C57.4662 39.0468 57.4393 39.2647 59.186 36.5856C61.5593 38.4885 64.0801 40.1997 66.7247 41.7029C66.6552 41.7436 66.5973 41.8014 66.5567 41.8709C66.2063 42.304 66.0386 42.8567 66.0891 43.4115C66.21 43.8768 66.667 44.3747 66.0891 45.1475C65.9455 45.3065 65.8355 45.4927 65.7654 45.6952C64.715 45.0673 63.5699 44.6134 62.3746 44.3512C60.6414 43.9659 58.9082 44.1585 57.175 44.1585C55.799 44.1448 54.4309 44.3682 53.1307 44.8188C52.9106 44.8188 53.1307 45.204 53.3233 45.204C55.4317 45.204 60.5977 44.3372 63.998 45.9746C64.7713 46.3086 65.4864 46.7636 66.1165 47.3225C66.7189 47.8871 67.3943 48.3684 68.1247 48.7533L73.3248 50.8718C73.8199 51.0639 73.3248 49.6336 73.3248 49.6336C69.9828 48.2969 68.1997 47.8204 66.8848 46.5536C66.7728 46.4461 66.6541 46.3464 66.5343 46.2484C66.904 45.9448 67.1784 45.541 67.3246 45.0854C67.4708 44.6299 67.4826 44.1418 67.3586 43.6797C67.2205 43.3715 67.1188 43.0483 67.0556 42.7165C67.1771 42.5023 67.2874 42.2819 67.386 42.0563C68.954 42.8817 72.7783 44.7801 72.9435 43.4596C72.9435 43.1841 74.3743 42.4141 74.5675 42.1112C76.3942 40.5348 80.7622 36.8892 81.9684 35.0132C82.3532 34.4352 83.206 33.775 83.206 33.0044C83.4995 31.9298 81.6274 31.8374 80.9504 31.5742C82.6052 29.7536 82.7597 29.57 87.3607 23.5953C88.0484 22.7424 90.91 18.3128 91.2124 18.0104C91.8172 17.1598 91.4319 16.8557 90.854 17.7372ZM81.7478 33.392C81.4997 33.392 73.4385 42.1688 72.696 42.5261C72.118 42.8291 71.5362 42.4298 70.9628 42.2512C64.2321 40.1551 59.7454 35.2433 57.7288 34.3837C59.254 32.789 60.5672 31.0044 61.636 29.0738C62.4989 27.6072 63.7572 25.1381 63.9196 24.7545C64.0316 24.4812 64.2304 23.9302 64.3116 23.7465C69.2475 26.523 76.6641 31.726 81.7478 33.392Z" fill="#191919"/>
<path d="M53.4098 47.506C54.4234 47.5262 55.4358 47.0933 56.959 47.0933C57.4357 47.1253 57.9142 47.1161 58.3893 47.0659C58.4808 47.0523 58.5667 47.0135 58.6374 46.9539C58.6918 46.9014 58.7269 46.8321 58.737 46.7572C58.7472 46.6824 58.7318 46.6062 58.6934 46.5412C58.4458 46.2113 57.8405 46.241 57.4826 46.2113C56.265 46.0327 55.0216 46.2143 53.9059 46.7338C53.7122 46.8184 52.7221 47.492 53.4098 47.506Z" fill="#191919"/>
<path d="M53.7398 49.7082C54.1194 50.1528 54.9499 50.0884 55.473 50.066C57.0662 49.9977 59.0256 50.4104 58.8845 49.6807C58.8313 49.4052 58.362 49.2103 58.1414 49.1582C57.0443 48.8973 55.7479 49.0462 54.6201 49.0462C54.3199 49.0479 53.3209 49.2182 53.7398 49.7082Z" fill="#191919"/>
<path d="M49.7778 55.1552C50.1474 55.7533 50.4251 56.3721 50.7404 56.9987C50.9784 57.4713 51.4499 57.2193 51.4012 56.7506C51.292 55.704 49.9749 53.8543 49.2827 53.0642C49.0643 52.815 48.8975 53.2321 48.8975 53.3665C48.8975 53.8896 49.4849 54.6814 49.7778 55.1552Z" fill="#191919"/>
<path d="M57.3164 74.7977C57.3228 75.3074 57.3874 75.8147 57.509 76.3097C57.7543 78.1258 58.2275 79.9682 58.4448 81.8122C58.616 83.7054 58.6895 85.6061 58.6649 87.5069C58.6617 87.7182 58.6709 87.9295 58.6923 88.1397C59.1678 94.923 61.1283 99.9478 63.4792 105.913C63.6744 106.497 63.9624 107.045 64.3321 107.537C64.3872 107.589 64.4561 107.624 64.5306 107.637C64.6051 107.651 64.682 107.643 64.7519 107.614C64.8218 107.584 64.8817 107.536 64.9245 107.473C64.9673 107.411 64.991 107.337 64.9929 107.261C64.9369 106.253 64.6944 106.137 62.8744 101.101C58.54 89.1051 60.2586 86.9631 59.5452 81.5126C59.3656 80.3413 59.1081 79.1833 58.7746 78.0462C58.5498 76.9737 58.2558 75.9168 57.8943 74.8822C57.8383 74.7142 57.5365 74.0568 57.3444 74.5244C57.3444 74.6056 57.3164 74.6879 57.3164 74.7977Z" fill="#191919"/>
<path d="M60.2325 75.6513C63.2458 94.4836 66.6131 97.8761 69.2843 106.301C69.4809 106.693 70.247 106.693 70.247 106.133V105.968C67.9286 98.393 65.9086 97.4342 62.3784 82.3355C61.8363 80.016 61.3329 77.7133 60.7544 75.4296C60.6256 75.1076 60.1026 75.326 60.2325 75.6513Z" fill="#191919"/>
<path d="M62.9287 74.6058C63.5083 80.9825 66.8655 83.3631 72.0629 98.8992C73.4987 103.191 73.5189 103.385 74.2637 104.952C74.4563 105.447 75.1121 105.064 75.0342 104.677C74.8236 103.667 74.5385 102.673 74.1813 101.705C72.6257 97.4051 72.596 97.0013 71.1277 93.1217C68.629 86.5187 67.5073 84.8516 65.6525 81.2911C64.5537 79.1723 63.7483 76.9138 63.2585 74.5778C63.0939 74.1102 62.9287 74.4132 62.9287 74.6058Z" fill="#191919"/>
<path d="M65.4083 72.955C65.5894 74.9643 66.14 76.923 67.0322 78.7325C67.4875 79.6338 68.1028 80.4448 68.8483 81.1259C69.6912 81.8092 70.4905 82.5444 71.2418 83.3273C71.9175 84.1682 72.4647 85.1046 72.8658 86.106C73.4028 87.3912 75.5706 92.047 76.8826 96.093C78.7435 101.834 78.4691 101.794 79.0835 103.769C79.2761 104.264 80.0466 104.154 79.9363 103.657C78.9608 97.8027 75.0839 88.0044 72.6457 83.7658C72.0454 82.8546 71.3021 82.0462 70.4443 81.3718C67.5788 79.4308 66.7915 75.7897 65.8227 72.843C65.8227 72.5534 65.3545 72.619 65.3545 72.8704C65.4329 72.9275 65.4329 72.955 65.4083 72.955Z" fill="#191919"/>
<path d="M66.8352 28.2207C65.4856 27.2048 63.688 28.9453 63.0384 30.0642C62.059 31.752 62.9118 33.5272 64.5504 33.063C65.881 32.6861 66.8744 31.3488 67.3011 30.0642C67.4197 29.7459 67.4386 29.3991 67.3554 29.0699C67.2721 28.7406 67.0907 28.4444 66.8352 28.2207ZM66.175 29.4566C66.1808 29.5929 66.145 29.7277 66.0724 29.8432C65.9997 29.9587 65.8937 30.0493 65.7683 30.103C65.6429 30.1568 65.5041 30.1711 65.3704 30.144C65.2367 30.117 65.1143 30.0499 65.0197 29.9516C64.1489 28.9285 65.8059 28.3517 66.175 29.4566ZM64.2766 31.9604C64.1501 31.9947 64.0164 31.9914 63.8918 31.9507C63.7672 31.9101 63.6572 31.8339 63.5754 31.7315C63.4936 31.6291 63.4435 31.5051 63.4312 31.3746C63.419 31.2441 63.4452 31.1129 63.5066 30.9972C63.6186 30.7222 64.4692 30.5296 64.6618 30.9148C64.9368 31.467 64.827 31.6596 64.2766 31.9626V31.9604Z" fill="#E54A2B"/>
<path d="M64.0292 33.7497C64.5949 33.8753 65.1824 33.8634 65.7425 33.715C66.3025 33.5666 66.8189 33.2861 67.2481 32.8968C68.9091 31.4968 68.8799 29.8056 68.2387 29.2927C67.5236 28.7976 67.5723 30.2262 67.4682 30.5583C67.256 31.2369 66.862 31.8445 66.3289 32.315C65.7958 32.7856 65.1439 33.101 64.4442 33.2272C63.5599 33.4479 63.6383 33.6848 64.0292 33.7497Z" fill="#191919"/>
<path d="M108.462 53.8351C107.541 53.7119 106.612 53.6658 105.683 53.6973C99.8991 53.2818 89.3123 50.8083 83.1232 49.9005C81.9953 49.7325 79.7632 49.9039 78.9685 48.855C78.3878 48.0872 78.1985 46.3512 76.9604 45.9665C76.1898 45.7739 75.7222 46.4616 75.7222 47.1218C75.6896 47.4743 75.7277 47.8297 75.8342 48.1673C75.2613 48.0615 74.6739 48.0615 74.101 48.1673C73.4145 48.2877 72.6702 48.5526 72.6702 49.3226C72.6976 49.5496 72.7701 49.7688 72.8835 49.9673C72.9969 50.1658 73.1489 50.3396 73.3305 50.4784C72.4776 50.7808 71.5973 51.2484 71.5973 52.2116C71.613 52.4548 71.6924 52.6896 71.8275 52.8924C71.9627 53.0952 72.1488 53.2588 72.3673 53.3669C71.5144 53.6424 70.6341 54.2198 70.7433 55.183C70.7626 55.4362 70.8529 55.6789 71.0037 55.8832C71.1545 56.0875 71.3598 56.2452 71.5961 56.3383C70.9079 56.6138 69.9721 56.7236 70.055 57.9623C70.0898 58.3115 70.2253 58.643 70.4452 58.9166C70.665 59.1901 70.9596 59.3938 71.2932 59.5028C70.3305 60.2734 69.2828 61.1268 69.6692 62.0895C70.1345 63.2459 71.2646 63.41 72.365 63.1344C72.0352 63.8227 71.9512 64.9264 72.5577 65.501C73.1546 66.0677 74.4701 66.1008 75.7765 64.8956C76.1058 64.5916 76.4373 64.2903 76.7946 64.0153C83.5628 66.5739 90.4922 68.5384 97.4026 70.728C99.4102 71.3642 101.386 72.072 103.401 72.599C103.949 72.7429 104.04 72.739 104.226 72.2137C105.225 69.3924 105.898 66.462 106.702 63.5752C107.522 60.6296 108.382 57.6873 109.178 54.7434C109.287 54.1649 108.983 53.9527 108.462 53.8351ZM78.8588 50.9735C78.8588 50.9735 79.2441 51.3588 79.1337 51.3588C78.8588 51.3588 78.1991 52.6798 78.0608 52.9268C77.1373 54.5546 76.5921 56.3694 76.4653 58.2367C76.4121 58.8975 76.5213 59.5297 76.5213 60.1625C76.5213 60.6032 76.4401 61.5065 75.8611 61.1532C75.0928 60.6822 75.2009 59.1999 75.2832 58.4568C75.32 56.8669 75.7151 55.3059 76.439 53.89C77.0746 52.6708 77.601 51.7541 78.8588 50.9735Z" fill="#E54A2B"/>
</svg>
