<svg width="18" height="21" viewBox="0 0 18 21" fill="none" xmlns="http://www.w3.org/2000/svg">
<path d="M1 5.00977H17M16 5.00977L15.133 17.1518C15.0971 17.6563 14.8713 18.1286 14.5011 18.4733C14.1309 18.8181 13.6439 19.0098 13.138 19.0098H4.862C4.35614 19.0098 3.86907 18.8181 3.49889 18.4733C3.1287 18.1286 2.90292 17.6563 2.867 17.1518L2 5.00977H16ZM7 9.00977V15.0098V9.00977ZM11 9.00977V15.0098V9.00977ZM12 5.00977V2.00977C12 1.74455 11.8946 1.4902 11.7071 1.30266C11.5196 1.11512 11.2652 1.00977 11 1.00977H7C6.73478 1.00977 6.48043 1.11512 6.29289 1.30266C6.10536 1.4902 6 1.74455 6 2.00977V5.00977H12Z" stroke="currentColor" stroke-width="2" stroke-linecap="round" stroke-linejoin="round"/>
</svg>
