<svg width="100" height="100" viewBox="0 0 100 100" fill="none" xmlns="http://www.w3.org/2000/svg">
<path d="M89.5837 75H60.417V29.1666H82.4149C84.2066 29.1666 85.8003 30.3145 86.367 32.0166L93.7503 54.1666V70.8333C93.7503 73.1354 91.8857 75 89.5837 75Z" fill="url(#paint0_linear_19515_80631)"/>
<path d="M60.4167 75H10.4167C8.11458 75 6.25 73.1355 6.25 70.8334V18.75C6.25 16.448 8.11458 14.5834 10.4167 14.5834H56.25C58.5521 14.5834 60.4167 16.448 60.4167 18.75V75Z" fill="url(#paint1_linear_19515_80631)"/>
<path d="M87.5003 75C87.5003 80.7521 82.8378 85.4167 77.0837 85.4167C71.3295 85.4167 66.667 80.7521 66.667 75C66.667 69.248 71.3295 64.5834 77.0837 64.5834C82.8378 64.5834 87.5003 69.248 87.5003 75Z" fill="#586169"/>
<path d="M37.5003 75C37.5003 80.7521 32.8357 85.4167 27.0837 85.4167C21.3316 85.4167 16.667 80.7521 16.667 75C16.667 69.248 21.3316 64.5834 27.0837 64.5834C32.8357 64.5834 37.5003 69.248 37.5003 75Z" fill="#586169"/>
<path d="M81.2503 75C81.2503 77.3021 79.3857 79.1667 77.0837 79.1667C74.7816 79.1667 72.917 77.3021 72.917 75C72.917 72.698 74.7816 70.8334 77.0837 70.8334C79.3857 70.8334 81.2503 72.698 81.2503 75Z" fill="#999999"/>
<path d="M31.2503 75C31.2503 77.3021 29.3857 79.1667 27.0837 79.1667C24.7816 79.1667 22.917 77.3021 22.917 75C22.917 72.698 24.7816 70.8334 27.0837 70.8334C29.3857 70.8334 31.2503 72.698 31.2503 75Z" fill="#999999"/>
<path d="M85.4167 52.0834H70.8333C69.6833 52.0834 68.75 51.15 68.75 50V35.4167C68.75 34.2667 69.6833 33.3334 70.8333 33.3334H81.25C82.15 33.3334 82.9438 33.9063 83.2271 34.7584L87.3938 47.2584C87.4625 47.4709 87.5 47.6938 87.5 47.9167V50C87.5 51.15 86.5667 52.0834 85.4167 52.0834Z" fill="url(#paint2_linear_19515_80631)"/>
<defs>
<linearGradient id="paint0_linear_19515_80631" x1="59.1941" y1="30.9625" x2="87.5962" y2="75.8354" gradientUnits="userSpaceOnUse">
<stop stop-color="#42A3F2"/>
<stop offset="1" stop-color="#42A4EB"/>
</linearGradient>
<linearGradient id="paint1_linear_19515_80631" x1="13.4188" y1="14.3084" x2="52.0417" y2="73.4271" gradientUnits="userSpaceOnUse">
<stop stop-color="#3079D6"/>
<stop offset="1" stop-color="#297CD2"/>
</linearGradient>
<linearGradient id="paint2_linear_19515_80631" x1="86.55" y1="53.8438" x2="70.5583" y2="36.8959" gradientUnits="userSpaceOnUse">
<stop stop-color="#3079D6"/>
<stop offset="1" stop-color="#297CD2"/>
</linearGradient>
</defs>
</svg>
