<svg width="24" height="24" viewBox="0 0 24 24" fill="none" xmlns="http://www.w3.org/2000/svg">
<path d="M3 4C2.46957 4 1.96086 4.21071 1.58579 4.58579C1.21071 4.96086 1 5.46957 1 6V17H3C3 17.7956 3.31607 18.5587 3.87868 19.1213C4.44129 19.6839 5.20435 20 6 20C6.79565 20 7.55871 19.6839 8.12132 19.1213C8.68393 18.5587 9 17.7956 9 17H15C15 17.7956 15.3161 18.5587 15.8787 19.1213C16.4413 19.6839 17.2044 20 18 20C18.7956 20 19.5587 19.6839 20.1213 19.1213C20.6839 18.5587 21 17.7956 21 17H23V12L20 8H17V4M10 6L14 10L10 14V11H4V9H10M17 9.5H19.5L21.47 12H17M6 15.5C6.39782 15.5 6.77936 15.658 7.06066 15.9393C7.34196 16.2206 7.5 16.6022 7.5 17C7.5 17.3978 7.34196 17.7794 7.06066 18.0607C6.77936 18.342 6.39782 18.5 6 18.5C5.60218 18.5 5.22064 18.342 4.93934 18.0607C4.65804 17.7794 4.5 17.3978 4.5 17C4.5 16.6022 4.65804 16.2206 4.93934 15.9393C5.22064 15.658 5.60218 15.5 6 15.5ZM18 15.5C18.3978 15.5 18.7794 15.658 19.0607 15.9393C19.342 16.2206 19.5 16.6022 19.5 17C19.5 17.3978 19.342 17.7794 19.0607 18.0607C18.7794 18.342 18.3978 18.5 18 18.5C17.6022 18.5 17.2206 18.342 16.9393 18.0607C16.658 17.7794 16.5 17.3978 16.5 17C16.5 16.6022 16.658 16.2206 16.9393 15.9393C17.2206 15.658 17.6022 15.5 18 15.5Z" fill="currentColor"/>
</svg>
