<svg width="33" height="32" viewBox="0 0 33 32" fill="none" xmlns="http://www.w3.org/2000/svg">
<path d="M21.2996 9.60078C21.2996 10.8738 20.7939 12.0947 19.8937 12.9949C18.9935 13.8951 17.7726 14.4008 16.4996 14.4008C15.2266 14.4008 14.0057 13.8951 13.1055 12.9949C12.2053 12.0947 11.6996 10.8738 11.6996 9.60078C11.6996 8.32774 12.2053 7.10684 13.1055 6.20667C14.0057 5.30649 15.2266 4.80078 16.4996 4.80078C17.7726 4.80078 18.9935 5.30649 19.8937 6.20667C20.7939 7.10684 21.2996 8.32774 21.2996 9.60078ZM29.2996 12.8008C29.2996 13.6495 28.9625 14.4634 28.3623 15.0635C27.7622 15.6636 26.9483 16.0008 26.0996 16.0008C25.2509 16.0008 24.437 15.6636 23.8369 15.0635C23.2368 14.4634 22.8996 13.6495 22.8996 12.8008C22.8996 11.9521 23.2368 11.1382 23.8369 10.538C24.437 9.93792 25.2509 9.60078 26.0996 9.60078C26.9483 9.60078 27.7622 9.93792 28.3623 10.538C28.9625 11.1382 29.2996 11.9521 29.2996 12.8008ZM22.8996 24.0008C22.8996 22.3034 22.2253 20.6755 21.0251 19.4753C19.8249 18.2751 18.197 17.6008 16.4996 17.6008C14.8022 17.6008 13.1744 18.2751 11.9741 19.4753C10.7739 20.6755 10.0996 22.3034 10.0996 24.0008V28.8008H22.8996V24.0008ZM10.0996 12.8008C10.0996 13.6495 9.76247 14.4634 9.16235 15.0635C8.56224 15.6636 7.7483 16.0008 6.89961 16.0008C6.05092 16.0008 5.23698 15.6636 4.63687 15.0635C4.03675 14.4634 3.69961 13.6495 3.69961 12.8008C3.69961 11.9521 4.03675 11.1382 4.63687 10.538C5.23698 9.93792 6.05092 9.60078 6.89961 9.60078C7.7483 9.60078 8.56224 9.93792 9.16235 10.538C9.76247 11.1382 10.0996 11.9521 10.0996 12.8008ZM26.0996 28.8008V24.0008C26.1019 22.374 25.6889 20.7736 24.8996 19.3512C25.609 19.1696 26.3504 19.1525 27.0674 19.3011C27.7844 19.4497 28.4579 19.7601 29.0367 20.2086C29.6155 20.6571 30.0842 21.2319 30.407 21.8891C30.7299 22.5463 30.8983 23.2686 30.8996 24.0008V28.8008H26.0996ZM8.09961 19.3512C7.31041 20.7737 6.89737 22.374 6.89961 24.0008V28.8008H2.09961V24.0008C2.0993 23.268 2.26675 22.545 2.58912 21.887C2.9115 21.2289 3.38024 20.6535 3.95942 20.2046C4.53861 19.7558 5.21286 19.4455 5.93051 19.2976C6.64815 19.1497 7.39014 19.168 8.09961 19.3512Z" fill="#E54A2B"/>
</svg>
