<svg width="33" height="32" viewBox="0 0 33 32" fill="none" xmlns="http://www.w3.org/2000/svg">
<path d="M23.167 26.6673H29.8337V24.0006C29.8336 23.1694 29.5745 22.3587 29.0925 21.6815C28.6105 21.0042 27.9294 20.494 27.144 20.2217C26.3586 19.9493 25.5078 19.9285 24.71 20.162C23.9122 20.3955 23.207 20.8718 22.6923 21.5246M23.167 26.6673L22.6923 21.5246M23.167 26.6673H9.83366M23.167 26.6673V24.0006C23.167 23.126 22.999 22.29 22.6923 21.5246M22.6923 21.5246C22.1972 20.2873 21.3427 19.2266 20.239 18.4795C19.1353 17.7324 17.8331 17.333 16.5003 17.333C15.1675 17.333 13.8653 17.7324 12.7617 18.4795C11.658 19.2266 10.8035 20.2873 10.3083 21.5246M9.83366 26.6673H3.16699V24.0006C3.16705 23.1694 3.42611 22.3587 3.90814 21.6815C4.39018 21.0042 5.07124 20.494 5.85666 20.2217C6.64208 19.9493 7.49283 19.9285 8.29064 20.162C9.08846 20.3955 9.7937 20.8718 10.3083 21.5246M9.83366 26.6673L10.3083 21.5246M9.83366 26.6673V24.0006C9.83366 23.126 10.0017 22.29 10.3083 21.5246M20.5003 9.33398C20.5003 10.3949 20.0789 11.4123 19.3288 12.1624C18.5786 12.9126 17.5612 13.334 16.5003 13.334C15.4395 13.334 14.422 12.9126 13.6719 12.1624C12.9218 11.4123 12.5003 10.3949 12.5003 9.33398C12.5003 8.27312 12.9218 7.2557 13.6719 6.50556C14.422 5.75541 15.4395 5.33398 16.5003 5.33398C17.5612 5.33398 18.5786 5.75541 19.3288 6.50556C20.0789 7.2557 20.5003 8.27312 20.5003 9.33398ZM28.5003 13.334C28.5003 14.0412 28.2194 14.7195 27.7193 15.2196C27.2192 15.7197 26.5409 16.0007 25.8337 16.0007C25.1264 16.0007 24.4481 15.7197 23.948 15.2196C23.4479 14.7195 23.167 14.0412 23.167 13.334C23.167 12.6267 23.4479 11.9485 23.948 11.4484C24.4481 10.9483 25.1264 10.6673 25.8337 10.6673C26.5409 10.6673 27.2192 10.9483 27.7193 11.4484C28.2194 11.9485 28.5003 12.6267 28.5003 13.334ZM9.83366 13.334C9.83366 14.0412 9.55271 14.7195 9.05261 15.2196C8.55251 15.7197 7.87424 16.0007 7.16699 16.0007C6.45975 16.0007 5.78147 15.7197 5.28137 15.2196C4.78128 14.7195 4.50033 14.0412 4.50033 13.334C4.50033 12.6267 4.78128 11.9485 5.28137 11.4484C5.78147 10.9483 6.45975 10.6673 7.16699 10.6673C7.87424 10.6673 8.55251 10.9483 9.05261 11.4484C9.55271 11.9485 9.83366 12.6267 9.83366 13.334Z" stroke="currentColor" stroke-width="2" stroke-linecap="round" stroke-linejoin="round"/>
</svg>
