<svg width="72" height="72" viewBox="0 0 72 72" fill="none" xmlns="http://www.w3.org/2000/svg">
<path d="M36 0C40.7739 0 45.3523 1.89642 48.7279 5.27208C52.1036 8.64773 54 13.2261 54 18C54 22.7739 52.1036 27.3523 48.7279 30.7279C45.3523 34.1036 40.7739 36 36 36C31.2261 36 26.6477 34.1036 23.2721 30.7279C19.8964 27.3523 18 22.7739 18 18C18 13.2261 19.8964 8.64773 23.2721 5.27208C26.6477 1.89642 31.2261 0 36 0ZM36 45C55.89 45 72 53.055 72 63V72H0V63C0 53.055 16.11 45 36 45Z" fill="currentColor"/>
</svg>
